/* XPM */
const static char *openFolderIcon_xpm[] = {
"16 16 135 2",
"   c #16120E",
".  c #18130E",
"X  c #1E1914",
"o  c #29221B",
"O  c #302A1B",
"+  c #352E25",
"@  c #433A2E",
"#  c #594414",
"$  c #5B4A21",
"%  c #5B4B22",
"&  c #524839",
"*  c #615644",
"=  c #6C5E47",
"-  c #6F624E",
";  c #7B6E57",
":  c #96721F",
">  c #9F771B",
",  c #A97C15",
"<  c #806723",
"1  c #816925",
"2  c #877960",
"3  c #B4820F",
"4  c #BE8808",
"5  c #C78C04",
"6  c #CD8F00",
"7  c #CD8510",
"8  c #D48C13",
"9  c #DBA22E",
"0  c #E5A024",
"q  c #E9A829",
"w  c #EBAA2E",
"e  c #ECAC31",
"r  c #EEB034",
"t  c #F0B337",
"y  c #F2B63B",
"u  c #F5B93F",
"i  c #8F8066",
"p  c #8F8475",
"a  c #928777",
"s  c #938877",
"d  c #958B79",
"f  c #958A7A",
"g  c #978C7A",
"h  c #998E7A",
"j  c #988E7D",
"k  c #9A907E",
"l  c #9D917C",
"z  c #A1957F",
"x  c #D1A956",
"c  c #F7BB41",
"v  c #F5BC41",
"b  c #F7BE46",
"n  c #D4B26A",
"m  c #D3BE7E",
"M  c #FAC149",
"N  c #FCC54B",
"B  c #FAC44C",
"V  c #FCC74E",
"C  c #FEC951",
"Z  c #FFCB55",
"A  c #FFCD54",
"S  c #FFCD58",
"D  c #FFCE5C",
"F  c #FFCF5F",
"G  c #FFD05F",
"H  c #FFD162",
"J  c #FFD365",
"K  c #FFD467",
"L  c #FFD368",
"P  c #FFD66B",
"I  c #E0C57D",
"U  c #ECD279",
"Y  c #FBD471",
"T  c #FFD871",
"R  c #FFD874",
"E  c #FFDA7A",
"W  c #FFDD7B",
"Q  c #FFDC7E",
"!  c #536A8E",
"~  c #546B8D",
"^  c #4C6793",
"/  c #4F6990",
"(  c #4F6891",
")  c #5F7494",
"_  c #607495",
"`  c #7889A1",
"'  c #9C9180",
"]  c #9F9482",
"[  c #9F9583",
"{  c #A69A81",
"}  c #A39986",
"|  c #A39A86",
" . c #AA9F83",
".. c #A59C88",
"X. c #A79E89",
"o. c #AFA386",
"O. c #ABA189",
"+. c #A8A08B",
"@. c #ADA48B",
"#. c #AEA48A",
"$. c #AAA18D",
"%. c #ABA28E",
"&. c #ACA48F",
"*. c #B0A484",
"=. c #B3A688",
"-. c #B0A68C",
";. c #B0A78E",
":. c #B6A988",
">. c #B7AA8A",
",. c #B1A88D",
"<. c #B9AC8B",
"1. c #8191A6",
"2. c #8291A6",
"3. c #8795AA",
"4. c #C7BA8C",
"5. c #CEC289",
"6. c #DEC480",
"7. c #EFD781",
"8. c #FEDD80",
"9. c #FDDE81",
"0. c #FFDF81",
"q. c #F1DC89",
"w. c #FFE084",
"e. c #FFE28C",
"r. c #F2E192",
"t. c #F3E69A",
"y. c #FDE898",
"u. c #FEE898",
"i. c #FBEB9F",
"p. c #DAD2A0",
"a. c #F6EAA0",
"s. c #F6EEA7",
"d. c #F9EEA6",
"f. c #F7F0AB",
"g. c None",
/* pixels */
"g.g.g.g.g.g.g.g.g.g.g.g.g.g.g.g.",
"g.g.g.g.g.g.g.g.g.g.1.` 3.g.g.g.",
"g.g.g.g.g.g.g.g.g._ g.g.g.1.g.) ",
"g.&.&.&.&.&.>.g.g.g.g.g.g.g.~ / ",
"&.p.f.f.d.i.%.*.g.g.g.g.g.~ ^ ^ ",
"%.s.f.d.i.u.Y ..} ] k g s g.g.g.",
"+.a.d.i.u.E K K K K K K s g.g.g.",
"..t.i.u.<.<.>.=.o. .{ z l h g s ",
"| r.y.6.&.0.w.w.w.w.0.W R P x - ",
"[ q.e.;.4.R K K K G A N c 9 = g.",
"' 7.I =.Q P J H S V b y e 1 # g.",
"j U #.5.R H F C M u r q 7 % g.g.",
"d m #.Q F Z B v t w 0 8 < O g.g.",
"a +.n 6 6 6 5 4 3 , > : % g.g.g.",
"p i 2 ; - * & @ + o X   . g.g.g.",
"g.g.g.g.g.g.g.g.g.g.g.g.g.g.g.g."
};
