/* XPM */
const static char *addIcon_xpm[] = {
"32 32 66 1",
"  c #3F6A13",
". c #42770C",
"X c #44790B",
"o c #477C0B",
"O c #4B7F0B",
"+ c #4F7A11",
"@ c #4E820A",
"# c #52860A",
"$ c #568A09",
"% c #5A8E09",
"& c #5F9208",
"* c #6C9E07",
"= c #639608",
"- c #68910E",
"; c #679A08",
": c #779E0C",
"> c #70A207",
", c #74A606",
"< c #78AA06",
"1 c #7BAD05",
"2 c #7FB005",
"3 c #82B305",
"4 c #84B504",
"5 c #86B704",
"6 c #AED047",
"7 c #B0D049",
"8 c #B2D24B",
"9 c #B3D24B",
"0 c #B4D24D",
"q c #B6D44D",
"w c #B7D44F",
"e c #B9D64F",
"r c #B9D651",
"t c #BCD751",
"y c #BFD954",
"u c #C2DB56",
"i c #C2DB58",
"p c #C3DC5B",
"a c #C5DD5A",
"s c #C2DC5C",
"d c #C5DD5C",
"f c #CCE15D",
"g c #CEE25F",
"h c #CEE260",
"j c #CBE266",
"k c #CDE266",
"l c #CEE267",
"z c #D0E460",
"x c #D0E461",
"c c #D1E462",
"v c #D3E663",
"b c #D5E764",
"n c #D5E766",
"m c #D6E866",
"M c #D7E866",
"N c #D7E868",
"B c #D9E968",
"V c #D5E770",
"C c #D7E873",
"Z c #D7E876",
"A c #DBEA84",
"S c #DDEC89",
"D c #E0EE89",
"F c #E2EE99",
"G c #E6F19C",
"H c None",
/* pixels */
"HHHHHHHHHHHHHHHHHHHHHHHHHHHHHHHH",
"HHHHHHHHHHHHHHHHHHHHHHHHHHHHHHHH",
"HHHHHHHHHHHHHHHHHHHHHHHHHHHHHHHH",
"HHHHHHHHHHHHHHHHHHHHHHHHHHHHHHHH",
"HHHHHHHHHHHHHHHHHHHHHHHHHHHHHHHH",
"HHHHHHHHHHHHHHHHHHHHHHHHHHHHHHHH",
"HHHHHHHHHHHH:555555:HHHHHHHHHHHH",
"HHHHHHHHHHHH4DGGGGD4HHHHHHHHHHHH",
"HHHHHHHHHHHH3BMMMMB3HHHHHHHHHHHH",
"HHHHHHHHHHHH2NMMMMN2HHHHHHHHHHHH",
"HHHHHHHHHHHH1MbbnnM1HHHHHHHHHHHH",
"HHHHHHHHHHHH<Mxbxxb<HHHHHHHHHHHH",
"HHHHHH-,,,,,,VxxxxC<,,,,,-HHHHHH",
"HHHHHH>AFFFFSZzgxxCSFFFFA>HHHHHH",
"HHHHHH*xgggghgggghhhggggx*HHHHHH",
"HHHHHH;hgfffgffffffgfffgh;HHHHHH",
"HHHHHH=auuuuuuuuuuuupuuua=HHHHHH",
"HHHHHH&pyyyyyyyyyyyyyyyyu&HHHHHH",
"HHHHHH%kVVVVkattttdkVVVVk%HHHHHH",
"HHHHHH+$$$$$$seteep$$$$$$+HHHHHH",
"HHHHHHHHHHHH#wqq0qt#HHHHHHHHHHHH",
"HHHHHHHHHHHH@t8899w@HHHHHHHHHHHH",
"HHHHHHHHHHHHoq77770@HHHHHHHHHHHH",
"HHHHHHHHHHHHo866667oHHHHHHHHHHHH",
"HHHHHHHHHHHHXsjjjjsXHHHHHHHHHHHH",
"HHHHHHHHHHHH ...... HHHHHHHHHHHH",
"HHHHHHHHHHHHHHHHHHHHHHHHHHHHHHHH",
"HHHHHHHHHHHHHHHHHHHHHHHHHHHHHHHH",
"HHHHHHHHHHHHHHHHHHHHHHHHHHHHHHHH",
"HHHHHHHHHHHHHHHHHHHHHHHHHHHHHHHH",
"HHHHHHHHHHHHHHHHHHHHHHHHHHHHHHHH",
"HHHHHHHHHHHHHHHHHHHHHHHHHHHHHHHH"
};
