/* XPM */
const static char *databaseIcon_xpm[] = {
"16 16 79 1",
"  c #553A00",
". c #533C00",
"X c #5D4900",
"o c #5F5300",
"O c #714F00",
"+ c #744F00",
"@ c #685100",
"# c #685400",
"$ c #6F5500",
"% c #6C5600",
"& c #675D00",
"* c #775300",
"= c #785000",
"- c #795200",
"; c #725B00",
": c #795B00",
"> c #7E5B00",
", c #7F5D00",
"< c #7B6000",
"1 c #8C6200",
"2 c #826A00",
"3 c #817000",
"4 c #8A7B00",
"5 c #9D7200",
"6 c #9B7500",
"7 c #A58400",
"8 c #AF8300",
"9 c #A48D00",
"0 c #AE8900",
"q c #B18100",
"w c #B68700",
"e c #B79100",
"r c #B69600",
"t c #BB9200",
"y c #BE9200",
"u c #BC9400",
"i c #C58F00",
"p c #C69000",
"a c #C59300",
"s c #C39600",
"d c #CA9300",
"f c #C49900",
"g c #C29C00",
"h c #C49D00",
"j c #C99900",
"k c #CE9B00",
"l c #C99D00",
"z c #CF9C00",
"x c #CEA100",
"c c #C5A900",
"v c #C3AE00",
"b c #C5AC00",
"n c #D5A000",
"m c #D6A300",
"M c #D2A500",
"N c #DBA400",
"B c #DDA500",
"V c #DFA400",
"C c #DFA700",
"Z c #D0AB00",
"A c #D0B300",
"S c #D2B500",
"D c #DCB000",
"F c #E0AC00",
"G c #E7AD00",
"H c #E4AF00",
"J c #E8AC00",
"K c #E2BB00",
"L c #EDBF00",
"P c #F1B800",
"I c #F0BB00",
"U c #F9BB00",
"Y c #FBBA00",
"T c #FCBB00",
"R c #FDBB00",
"E c #FABF00",
"W c #EAC500",
"Q c #FFC300",
"! c None",
/* pixels */
"!!b!8!!!!!!!!!!!",
"!!c!p!v!!!!!!!!!",
"!!!!!!!!&o!!!!!!",
"!!7!!!er!!!!!!!!",
"!!!!!!!!!!Ly#!!!",
"!!!!!!gDHjs0%!!!",
"!!!!9WZhPzly;!!!",
"!!!!4SSQQBms%!!!",
"!!!!3ALRRVnpO!!!",
"!!!!2KLRRJFdO!!!",
"!!!!<MMUUHBp=!!!",
"!!!!1yyEECzq=!!!",
"!!!!:6yEzzw5*!!!",
"!!!!!! .Xo11!!!!",
"!!!!!!!!!!!!!!!!",
"!!!!!!!!!!!!!!!!"
};
