/* XPM */
const static char *deleteIcon_xpm[] = {
"24 24 159 2",
"   c #460909",
".  c #540F0D",
"X  c #591A18",
"o  c #670E0B",
"O  c #6E0E09",
"+  c #681916",
"@  c #7F1B14",
"#  c #7F1C17",
"$  c #7B221F",
"%  c #93190F",
"&  c #891C15",
"*  c #8B1F19",
"=  c #9A1E15",
"-  c #9B1E15",
";  c #9B1A19",
":  c #B11504",
">  c #BE1900",
",  c #902218",
"<  c #9E211E",
"1  c #BF210D",
"2  c #A3261A",
"3  c #AA211F",
"4  c #B52412",
"5  c #BE2510",
"6  c #BA2617",
"7  c #BF2D1C",
"8  c #993C36",
"9  c #B32E23",
"0  c #A8372F",
"q  c #AF372E",
"w  c #B53327",
"e  c #B43B2F",
"r  c #B63A2E",
"t  c #C31700",
"y  c #C71700",
"u  c #CC1703",
"i  c #C31903",
"p  c #C71900",
"a  c #C91900",
"s  c #C91A00",
"d  c #CC1B04",
"f  c #C81F07",
"g  c #D51D00",
"h  c #DB1F02",
"j  c #C92207",
"k  c #C0230B",
"l  c #CA240A",
"z  c #CA240C",
"x  c #CE280D",
"c  c #CC2A0F",
"v  c #DF2103",
"b  c #D02308",
"n  c #D32309",
"m  c #C32310",
"M  c #C72513",
"N  c #CE2C12",
"B  c #CE2E15",
"V  c #C22E1F",
"C  c #C42F1F",
"Z  c #C92F1C",
"A  c #D52A10",
"S  c #D32F14",
"D  c #CD321F",
"F  c #D33016",
"G  c #D93217",
"H  c #DE3217",
"J  c #D13119",
"K  c #D73019",
"L  c #D5311B",
"P  c #D73419",
"I  c #D0351C",
"U  c #D1371E",
"Y  c #DA3318",
"T  c #EA280C",
"R  c #E32C12",
"E  c #E72E10",
"W  c #EE2F12",
"Q  c #FD2F10",
"!  c #EE3112",
"~  c #E93519",
"^  c #F43416",
"/  c #F23618",
"(  c #F5391D",
")  c #CE3724",
"_  c #CB3C2D",
"`  c #D43920",
"'  c #D63D23",
"]  c #D13825",
"[  c #D23825",
"{  c #D83B22",
"}  c #E12D23",
"|  c #E23820",
" . c #E13B25",
".. c #A5443B",
"X. c #A84039",
"o. c #DD4026",
"O. c #DC482F",
"+. c #DC4B34",
"@. c #DE4C37",
"#. c #D9453F",
"$. c #DE4E38",
"%. c #D84B3D",
"&. c #DF523E",
"*. c #E74128",
"=. c #E1422D",
"-. c #EB482F",
";. c #F14229",
":. c #EC533E",
">. c #814743",
",. c #984640",
"<. c #B4736C",
"1. c #D74D40",
"2. c #D95045",
"3. c #D85247",
"4. c #DB5447",
"5. c #D4594F",
"6. c #DA5C4F",
"7. c #D65F56",
"8. c #E95843",
"9. c #E65648",
"0. c #F55941",
"q. c #F65841",
"w. c #F15A47",
"e. c #C8685D",
"r. c #D7695D",
"t. c #E6614D",
"y. c #E9624A",
"u. c #E06A56",
"i. c #E86954",
"p. c #EE6B57",
"a. c #F56E59",
"s. c #F7735F",
"d. c #DA7C70",
"f. c #DA7F73",
"g. c #E86E63",
"h. c #EE7363",
"j. c #F37664",
"k. c #FA7360",
"l. c #F4806E",
"z. c #E88070",
"x. c #EA8A7A",
"c. c #E98C7F",
"v. c #F58574",
"b. c #FC8572",
"n. c #FA877D",
"m. c #F28A7A",
"M. c #F28A7F",
"N. c #F08E7F",
"B. c #F88B7A",
"V. c #FC8D7B",
"C. c #B9928D",
"Z. c #F38B80",
"A. c #EC9182",
"S. c #FA9585",
"D. c #F0998B",
"F. c #F5988C",
"G. c #F79D8F",
"H. c #FE9889",
"J. c None",
/* pixels */
"J.J.J.J.J.J.J.J.J.J.J.J.J.J.J.J.J.J.J.J.J.J.J.J.",
"J.J.c.z.F.<.J.J.J.J.J.J.J.J.J.J.J.J.J.J.n.5.$ J.",
"C.V.u.x.A.S.f.J.J.J.J.J.J.J.J.J.J.J.Z.M.8 J.J.J.",
"J.e.B.G.D.N.m.j...J.J.J.J.J.J.J.g.b.r.X J.J.J.J.",
"J.J.>.f.H.v.l.p.0.r J.J.J.J.J.:.0.q J.J.J.J.J.J.",
"J.J.J.J.,.h.a.8.*.^ 7 J.J.2.R T & J.J.J.J.J.J.J.",
"J.J.J.J.J.J.r ;.! v h C _ d u o J.J.J.J.J.J.J.J.",
"J.J.J.J.J.J.J.O i g s p y :   J.J.J.J.J.J.J.J.J.",
"J.J.J.J.J.J.J.J.J.1 t > s % J.J.J.J.J.J.J.J.J.J.",
"J.J.J.J.J.J.J.J.3.k z A b f 9 J.J.J.J.J.J.J.J.J.",
"J.J.J.J.J.J.J.1.l P ) @ ) E b J.J.J.J.J.J.J.J.J.",
"J.J.J.J.J.J.%.j S =.+ J.J.] ! m J.J.J.J.J.J.J.J.",
"J.J.J.J.J.4.c c | # J.J.J.J.] / 2 J.J.J.J.J.J.J.",
"J.J.J.J.6.I N H = J.J.J.J.J.J. .~ J.J.J.J.J.J.J.",
"J.J.J.7.' B G 6 J.J.J.J.J.J.J.J.( 4 J.J.J.J.J.J.",
"J.J.J.@.J F K . J.J.J.J.J.J.J.J., Q J.J.J.J.J.J.",
"J.J.9.O.I P = J.J.J.J.J.J.J.J.J.J.M m J.J.J.J.J.",
"J.J.t.+.U P J.J.J.J.J.J.J.J.J.J.J.J.} J.J.J.J.J.",
"J.#.i.%.` D J.J.J.J.J.J.J.J.J.J.J.J.< ; J.J.J.J.",
"J.X.s.:.o.V J.J.J.J.J.J.J.J.J.J.J.J.J.3 J.J.J.J.",
"J.J.k.y.-.* J.J.J.J.J.J.J.J.J.J.J.J.J.J.J.J.J.J.",
"J.J.0 w.w J.J.J.J.J.J.J.J.J.J.J.J.J.J.J.J.J.J.J.",
"J.J.J.J.J.J.J.J.J.J.J.J.J.J.J.J.J.J.J.J.J.J.J.J.",
"J.J.J.J.J.J.J.J.J.J.J.J.J.J.J.J.J.J.J.J.J.J.J.J."
};
