/* XPM */
const static char *getSubjectIcon_xpm[] = {
"32 32 249 2",
"   c #000000",
".  c #080400",
"X  c #0C0500",
"o  c #0C0600",
"O  c #000C00",
"+  c #000F00",
"@  c #0B0A00",
"#  c #0C0800",
"$  c #001A00",
"%  c #051900",
"&  c #001C00",
"*  c #001D00",
"=  c #181200",
"-  c #1F1600",
";  c #241900",
":  c #261A00",
">  c #271A00",
",  c #281B00",
"<  c #002000",
"1  c #002300",
"2  c #002400",
"3  c #002600",
"4  c #002800",
"5  c #002A00",
"6  c #002B00",
"7  c #003500",
"8  c #023400",
"9  c #053500",
"0  c #033B00",
"q  c #003E00",
"w  c #143000",
"e  c #3B2F00",
"r  c #4A3500",
"t  c #693F00",
"y  c #054000",
"u  c #054700",
"i  c #004A00",
"p  c #004E00",
"a  c #045200",
"s  c #005500",
"d  c #005501",
"f  c #005A00",
"g  c #005B00",
"h  c #005D00",
"j  c #005F00",
"k  c #006000",
"l  c #006100",
"z  c #006300",
"x  c #006003",
"c  c #006103",
"v  c #006202",
"b  c #006703",
"n  c #006800",
"m  c #006D00",
"M  c #006E00",
"N  c #006F00",
"B  c #007100",
"V  c #007300",
"C  c #007500",
"Z  c #007600",
"A  c #0D7600",
"S  c #007800",
"D  c #007A00",
"F  c #007B00",
"G  c #007B02",
"H  c #007D00",
"J  c #007E00",
"K  c #007C03",
"L  c #007E02",
"P  c #00760F",
"I  c #1C7D0F",
"U  c #286000",
"Y  c #366100",
"T  c #396A13",
"R  c #006822",
"E  c #445100",
"W  c #6F4A00",
"Q  c #765000",
"!  c #496402",
"~  c #00006D",
"^  c #000070",
"/  c #000071",
"(  c #000072",
")  c #000075",
"_  c #000078",
"`  c #00007A",
"'  c #00007C",
"]  c #332366",
"[  c #8E5F03",
"{  c #8D5F04",
"}  c #895C08",
"|  c #915F00",
" . c #995A00",
".. c #856700",
"X. c #886800",
"o. c #8D6900",
"O. c #916100",
"+. c #926100",
"@. c #926200",
"#. c #956200",
"$. c #966300",
"%. c #996500",
"&. c #9B6500",
"*. c #986700",
"=. c #9C6500",
"-. c #9E6500",
";. c #9E6800",
":. c #A36800",
">. c #A16A00",
",. c #A26A00",
"<. c #A46C00",
"1. c #A76D00",
"2. c #A86D00",
"3. c #A86E00",
"4. c #AA6F00",
"5. c #B66B00",
"6. c #B46E00",
"7. c #BD6E00",
"8. c #BF6F00",
"9. c #AA7000",
"0. c #AB7000",
"q. c #B07100",
"w. c #B27100",
"e. c #B17200",
"r. c #B07300",
"t. c #B27200",
"y. c #B37200",
"u. c #B47300",
"i. c #B27400",
"p. c #B67500",
"a. c #B57600",
"s. c #BE7000",
"d. c #B97700",
"f. c #C47000",
"g. c #C77300",
"h. c #CF7500",
"j. c #C17900",
"k. c #C27900",
"l. c #C37901",
"z. c #C17A00",
"x. c #C17B00",
"c. c #C47C00",
"v. c #C67F00",
"b. c #C87D00",
"n. c #CA7F00",
"m. c #CE7E00",
"M. c #D37700",
"N. c #DE7600",
"B. c #D57B00",
"V. c #D37F00",
"C. c #E57900",
"Z. c #E87800",
"A. c #E97A00",
"S. c #EF7800",
"D. c #F47B00",
"F. c #F47F00",
"G. c #008000",
"H. c #008200",
"J. c #008400",
"K. c #008500",
"L. c #008502",
"P. c #008800",
"I. c #008A00",
"U. c #008E00",
"Y. c #008F00",
"T. c #008907",
"R. c #009100",
"E. c #009300",
"W. c #009400",
"Q. c #009501",
"!. c #009800",
"~. c #009900",
"^. c #009A00",
"/. c #009B00",
"(. c #009C00",
"). c #009E00",
"_. c #009F00",
"`. c #008316",
"'. c #00A100",
"]. c #00A500",
"[. c #00A700",
"{. c #00A800",
"}. c #00A900",
"|. c #00AA00",
" X c #00AB00",
".X c #00AC00",
"XX c #00AD00",
"oX c #00AF00",
"OX c #00B200",
"+X c #00B300",
"@X c #00B700",
"#X c #D28000",
"$X c #D98100",
"%X c #DC8100",
"&X c #D98500",
"*X c #E08600",
"=X c #E18600",
"-X c #E78B00",
";X c #E68D00",
":X c #EB8C00",
">X c #F38000",
",X c #FF8100",
"<X c #FF8200",
"1X c #FF8300",
"2X c #FF8600",
"3X c #FF8700",
"4X c #FF8A00",
"5X c #FF8B00",
"6X c #FB8F00",
"7X c #FF8D00",
"8X c #FF8E00",
"9X c #F39000",
"0X c #F69100",
"qX c #FB9200",
"wX c #FF9000",
"eX c #FF9100",
"rX c #FE9300",
"tX c #FF9300",
"yX c #FF9400",
"uX c #FF9500",
"iX c #FF9600",
"pX c #FF9700",
"aX c #FF9800",
"sX c #FF9900",
"dX c #000082",
"fX c #000083",
"gX c #000084",
"hX c #1E1581",
"jX c #000092",
"kX c #000093",
"lX c #000094",
"zX c #000097",
"xX c #00009C",
"cX c #0000A0",
"vX c #0000A4",
"bX c #0000A5",
"nX c #0000A6",
"mX c #0000A7",
"MX c #0000A8",
"NX c #0000AB",
"BX c #0000AC",
"VX c #0000AD",
"CX c #0000AF",
"ZX c #0000B0",
"AX c #0000B1",
"SX c #0000B2",
"DX c #0000B3",
"FX c #0000B5",
"GX c None",
/* pixels */
"GXGXGXGXGXGXGXGXGXGXGXGXGXGXGXGXGXGXGXGXGXGXGXGXGXGXGXGXGXGXGXGX",
"GXGXGXGXGXGXGXGXGXGXGXGXGXGXGXGXGXGXGXGXGXGXGXGXGXGXGXGXGXGXGXGX",
"GXGXGXGXGX/ lXDXNXnXGXGXGXGXGXGXGXGXGXGXGXGXGXGXGXGXGXGXGXGXGXGX",
"GXGXGXGXGXGXGXGXGXGXGXGXGXGXGXGXGXGXGXGXGXGXGXGXGXGXGXGXGXGXGXGX",
"GXGXGXGXGXGXGXGXGXGXGXGXGXGXGXGXGXGXGXGXGXGXGXGXGXGXGXGXGXGXGXGX",
"GXGXGXGXGX/ lXDXnXnXGXGXGXGXGXGX1.1.2.2.1.1.GXGXGXGXGXGXGXGXGXGX",
"GXGXGXGXGXGXGXGXGXGXGXGXGXGXGX1.y.y.0.u.y.9.>.GXGXGXGXGXGXGXGXGX",
"GXGXGXGXGXGXGXGXGXGXGXGXGXGX<.9.l.GXGXGXp.2.;.%.GXGXGXGXGXGXGXGX",
"GXGXGXGXGX/ lXDXNXGXGXGXGX+.>.y.d.#Xc.2.*.+.$.%.GXGXGXGXGXGXGXGX",
"GXGXGXGXGX/ lXDXnXnXGXGXGX+.1.d.a.l.#Xm.l.y.1.+.GXGXGXGXGXGXGXGX",
"GXGXGXGXGX/ jXDXnXnXGXGXGX+.y.b.i.x.*XqXrX;X#X[ ; GXGXGXGXGXGXGX",
"GXGXGXGXGX~ jXDXnXnXGXGXGX+.l.9X;X:X0XsXrXqX&X=.; GXGXGXGXGXGXGX",
"GXGXGXGXGXgXxXDXCXnXGXGXGX[ V.sXsXsXrXrXwXwX*X>., GXGXGXGXGXGXGX",
"GXGX) lXNXDXCXDXDXNXnXCXhX} %XwXwXwXwXwX7X4X$X=., GXGXGXGXGXGXGX",
"GXGX` fXjXDXDXDXNXNXnXDX] { B.7X4X4X7X4X4X3Xs.Q ; GXGXGXGXGXGXGX",
"GXGXGX~ ' xXNXCXnXnXnXGXGX+.M.3X3X3X3X3X3X>X .r = GXGXGXGXGXGXGX",
"GXGXGXGXGX` jXCXnXnXGXGXGXGXD.D.,X,X,X,X>XM.t @ GXGXGXGXGXGXGXGX",
"GXGXGXGXGX/ gXjXcXGXGXGXGXGXX.7.N.A.C.A.f.X.e   GXGXGXGXGXGXGXGX",
"GXGXGXGXGXGX) / GXGXGXl x x ! ..6.f.7.5.X.Y w . GXGXGXGXGXGXGXGX",
"GXGXGXGXGXGXGXGXGXGXH.G H W.I T GXGXW E U A a 8 GXGXGXGXGXGXGXGX",
"GXGXGXGXGXGXGXGXGXGXH.I.).GXGXGXGXGXGXd N Y.Z h GXGXGXGXGXGXGXGX",
"GXGXGXGXGXGXGXGXGXGXH.!.OXGX`.R GXGXGXL.!.{.).H.i GXGXGXGXGXGXGX",
"GXGXGXGXGXGXGXGXGXGXL.).@XOXT.P GXGXG !.XXXX{.W.l 0 GXGXGXGXGXGX",
"GXGXGXGXGXGXGXGXGXGXV R.XXXXR.H GXGXI.'.OX{.{.).Z y o GXGXGXGXGX",
"GXGXGXGXGXGXGXGXGXGX* N !.XXW.G b H {.XX{.].{.).H u o GXGXGXGXGX",
"GXGXGXGXGXGXGXGXGXGXGXq f N Z Z h V !.!.W.Y.Y.H.l 9 o GXGXGXGXGX",
"GXGXGXGXGXGXGXGXGXGXGXGXO 8 d h p h G G Z N n f 8 % @ GXGXGXGXGX",
"GXGXGXGXGXGXGXGXGXGXGXGXGXGX3 1 $ 1 6 6 3 1 1 * + GXGXGXGXGXGXGX",
"GXGXGXGXGXGXGXGXGXGXGXGXGXGXGXGXGXGXGXGXGXGXGXGXGXGXGXGXGXGXGXGX",
"GXGXGXGXGXGXGXGXGXGXGXGXGXGXGXGXGXGXGXGXGXGXGXGXGXGXGXGXGXGXGXGX",
"GXGXGXGXGXGXGXGXGXGXGXGXGXGXGXGXGXGXGXGXGXGXGXGXGXGXGXGXGXGXGXGX",
"GXGXGXGXGXGXGXGXGXGXGXGXGXGXGXGXGXGXGXGXGXGXGXGXGXGXGXGXGXGXGXGX"
};
