/* XPM */
const static char *helpIcon_xpm[] = {
"16 16 121 2",
"   c #32508F",
".  c #335291",
"X  c #365593",
"o  c #3A5897",
"O  c #1048B0",
"+  c #1050B0",
"@  c #2058B0",
"#  c #536C9F",
"$  c #546C9F",
"%  c #546DA0",
"&  c #556DA0",
"*  c #556EA2",
"=  c #617AAD",
"-  c #647DAF",
";  c #1050C0",
":  c #1050D0",
">  c #1058D0",
",  c #2050C0",
"<  c #2058C0",
"1  c #2058E0",
"2  c #2060F0",
"3  c #2068F0",
"4  c #2068FF",
"5  c #3068FF",
"6  c #3070FF",
"7  c #5078C0",
"8  c #4078F0",
"9  c #4070FF",
"0  c #4078FF",
"q  c #728BBC",
"w  c #768EBF",
"e  c #5080D0",
"r  c #7F95C6",
"t  c #6088D0",
"y  c #5080E0",
"u  c #5080F0",
"i  c #5088F0",
"p  c #5080FF",
"a  c #5088FF",
"s  c #6090F0",
"d  c #6090FF",
"f  c #7090F0",
"g  c #7098F0",
"h  c #7098FF",
"j  c #8A9BBD",
"k  c #8B9CBE",
"l  c #8299C9",
"z  c #889FD0",
"x  c #829EDA",
"c  c #99A9CB",
"v  c #9EACC8",
"b  c #9FACC8",
"n  c #9CACCD",
"m  c #80A0D0",
"M  c #8BA2D3",
"N  c #85A1DE",
"B  c #88A4DF",
"V  c #8DA9D8",
"C  c #95ACDC",
"Z  c #99AEDF",
"A  c #9FB8D6",
"S  c #A0B9D7",
"D  c #ADB8D5",
"F  c #8BA7E2",
"G  c #80A8E0",
"H  c #90A8E0",
"J  c #9FBAE9",
"K  c #80A8FF",
"L  c #90A8F0",
"P  c #90B0FF",
"I  c #A0B8E0",
"U  c #A3BAEA",
"Y  c #A5BBEB",
"T  c #A9BFEE",
"R  c #A0B8F0",
"E  c #A0B8FF",
"W  c #B5C1DC",
"Q  c #B7C3DF",
"!  c #AAC0EF",
"~  c #B5C4E5",
"^  c #B7C6E7",
"/  c #BAC7E2",
"(  c #BDC9E4",
")  c #B6CFEE",
"_  c #B8D0EC",
"`  c #A0C0FF",
"'  c #B0C0F0",
"]  c #B0C8F0",
"[  c #B0C8FF",
"{  c #CFD5E1",
"}  c #D8DCE4",
"|  c #C0D0F0",
" . c #C5D3F3",
".. c #C5D4F4",
"X. c #C0D8F0",
"o. c #C0D0FF",
"O. c #DADEF3",
"+. c #D2DEF8",
"@. c #DBE4ED",
"#. c #D9EAEC",
"$. c #DBECFD",
"%. c #DEEEFE",
"&. c #DEEFFE",
"*. c #DFEFFE",
"=. c #E8EBF2",
"-. c #E8EBF3",
";. c #E8ECF3",
":. c #E9ECF3",
">. c #E0EBF9",
",. c #E0EBFA",
"<. c #E1ECF9",
"1. c #E0F0FF",
"2. c #E6F0FC",
"3. c #ECF5FE",
"4. c #EDF6FE",
"5. c #F0F3FA",
"6. c #F0F3FB",
"7. c #F1F4FB",
"8. c #F0F8FF",
"9. c #FFFFFF",
"0. c None",
/* pixels */
"0.0.0.0.0.0.0.0.0.0.0.0.0.0.0.0.",
"0.0.0.0.0. .U B x C ~ 0.0.0.0.0.",
"0.0.0.+.T J ,.7.5.,.V z / 0.0.0.",
"0.0.+.! 4.o.K a a K | &.r W 0.0.",
"0.0.T 4.` 0 E 8.9.1.h R &.q 0.0.",
"0...) o.0 h 9.[ d [ 8.8 ] S c 0.",
"0.Y 2.K 9 a P 6 3 f 9.u t O.= 0.",
"0.F 7.p 6 5 5 4 s 8.X., < ;.X 0.",
"0.N 7.0 5 3 2 i 9.' < + @ =.  0.",
"0.Z <.g 2 1 1 L 9.: ; + 7 } % 0.",
"0.^ _ ] 1 > : y G ; O O I D j 0.",
"0.0.M &.H ; ; H 9.O O m #.# 0.0.",
"0.0.( l $.A 7 < < e I @.% b 0.0.",
"0.0.0.Q r S  .:.=.} D $ b 0.0.0.",
"0.0.0.0.0.n - o . % k 0.0.0.0.0.",
"0.0.0.0.0.0.0.0.0.0.0.0.0.0.0.0."
};
