/* XPM */
const static char *newFileIcon_xpm[] = {
"16 16 78 1",
"  c #354963",
". c #364A64",
"X c #FA7900",
"o c #FA8C00",
"O c #FF9100",
"+ c #FF9200",
"@ c #FF9500",
"# c #FF9A00",
"$ c #FF9B00",
"% c #FF9D00",
"& c #FFA000",
"* c #FFA800",
"= c #FFAE00",
"- c #FFB100",
"; c #FFB400",
": c #FFBF00",
"> c #FFD300",
", c #FFD600",
"< c #FFDC02",
"1 c #FFDE05",
"2 c #FFDB0B",
"3 c #FFD80D",
"4 c #FFDB0E",
"5 c #FFE713",
"6 c #FFE31C",
"7 c #FFE41F",
"8 c #F0D93B",
"9 c #FFF831",
"0 c #FFF53D",
"q c #FFF43E",
"w c #FFFC4C",
"e c #FFFE4F",
"r c #FFFF54",
"t c #FFFF58",
"y c #FFFF67",
"u c #FFED79",
"i c #FFFF7F",
"p c #93A2B7",
"a c #95A4B9",
"s c #96A5BA",
"d c #9AA9BE",
"f c #FFFF95",
"g c #FFF49B",
"h c #FFFF99",
"j c #FFFFA8",
"k c #9CABC0",
"l c #9EAEC3",
"z c #A4B3C9",
"x c #A9B9CF",
"c c #AEBED4",
"v c #BAC5D4",
"b c #BDCAE1",
"n c #C4CFE4",
"m c #C9D3E6",
"M c #CBD5E7",
"N c #D1D9EA",
"B c #D3DBEB",
"V c #D5DDEC",
"C c #D8DFED",
"Z c #DAE1EE",
"A c #DCE3EF",
"S c #DFE5F0",
"D c #E1E7F1",
"F c #E3E9F2",
"G c #E6EBF4",
"H c #E9EDF5",
"J c #EBEFF6",
"K c #EEF1F7",
"L c #F0F3F8",
"P c #F2F5F9",
"I c #F5F7FA",
"U c #F7F8FB",
"Y c #F9FAFC",
"T c #FBFCFD",
"R c #FCFDFE",
"E c #FEFEFE",
"W c #FFFFFF",
"Q c None",
/* pixels */
"QQyr#>wtQQQQQQQQ",
"Q3Xf;,fXqQQQQQQQ",
"Q2fX%;Xf8cczzQQQ",
"Qo@OWj;#*WWd.zQQ",
"Q,5O,1:96WWav.zQ",
"QwfX*;XfiWWp...Q",
"QqXf%<fXhWWTpp.Q",
"QQQ3=7ugWWWIHp Q",
"QQQQlWWWWWTKDp Q",
"QQQQdWWWWTPGZp Q",
"QQQQaWWWWUHSBp Q",
"QQQQpWWWTLFZMp Q",
"QQQQpWWWIHZBnp Q",
"QQQQpWWTKDVmbp Q",
"QQQQpWpppppppp Q",
"QQQQp          Q"
};
