/* XPM */
const static char *nextIcon_xpm[] = {
"16 16 39 1",
"  c #002A81",
". c #002B85",
"X c #002C89",
"o c #002D8B",
"O c #002D8D",
"+ c #002E8C",
"@ c #002F8C",
"# c #002F91",
"$ c #00339B",
"% c #00369E",
"& c #0039AA",
"* c #003AAB",
"= c #003BAF",
"- c #003CB3",
"; c #003DB6",
": c #003FBD",
"> c #0040BF",
", c #0040C1",
"< c #0041C1",
"1 c #0042C6",
"2 c #0043C7",
"3 c #0044CB",
"4 c #0045CE",
"5 c #0046CF",
"6 c #0045D0",
"7 c #0047D4",
"8 c #0049D8",
"9 c #0049D9",
"0 c #004BE2",
"q c #004EEB",
"w c #004FEB",
"e c #0051F1",
"r c #0051F2",
"t c #0051F3",
"y c #0054FA",
"u c #0055FB",
"i c #0056FC",
"p c #0054FF",
"a c None",
/* pixels */
"aaaaaaaaaaaaaaaa",
"aaaaaaaaaaaaaaaa",
"aaaaaaaaaaaaaaaa",
"aaaaaaaaaaaaaaaa",
"aaaaaaaaa7aaaaaa",
"aaaaaaaaa6*aaaaa",
"aa7333,,;,t%aaaa",
"aa4aaaaaapt9%aaa",
"aa2aiyypyw91-%aa",
"aa>atttw04>=Oaaa",
"aa- .XXX#%*Oaaaa",
"aaaaaaaaa@Xaaaaa",
"aaaaaaaaa.aaaaaa",
"aaaaaaaaaaaaaaaa",
"aaaaaaaaaaaaaaaa",
"aaaaaaaaaaaaaaaa"
};
