/* XPM */
const static char *playIcon_xpm[] = {
"32 32 137 2",
"   c #3C5E1A",
".  c #487D0B",
"X  c #406F10",
"o  c #426F11",
"O  c #446F12",
"+  c #466F13",
"@  c #437110",
"#  c #497113",
"$  c #4C7414",
"%  c #4F7514",
"&  c #527615",
"*  c #4C800B",
"=  c #50840A",
"-  c #55890A",
";  c #598D09",
":  c #5C8F0F",
">  c #5E9109",
",  c #5E910D",
"<  c #5C8410",
"1  c #5A8C11",
"2  c #5C8D15",
"3  c #5C8D17",
"4  c #5E8E19",
"5  c #638B0F",
"6  c #689B07",
"7  c #6D9F07",
"8  c #60930B",
"9  c #639608",
"0  c #649709",
"q  c #678515",
"w  c #618810",
"e  c #668C10",
"r  c #678C11",
"t  c #698913",
"y  c #698B13",
"u  c #698C12",
"i  c #71A306",
"p  c #76A806",
"a  c #7AAC05",
"s  c #7EAF05",
"d  c #7AA709",
"f  c #7BA709",
"g  c #7AA50A",
"h  c #7DA809",
"j  c #7EAF0B",
"k  c #7FB007",
"l  c #7EAD11",
"z  c #7DAB14",
"x  c #7FAB1E",
"c  c #81B205",
"v  c #89B228",
"b  c #8BB22C",
"n  c #8EB531",
"m  c #91B634",
"M  c #92B836",
"N  c #96BB37",
"B  c #9ABF31",
"V  c #95B939",
"C  c #99BE3C",
"Z  c #9FC732",
"A  c #A0C631",
"S  c #A0C734",
"D  c #A1C735",
"F  c #A2C835",
"G  c #A3CA37",
"H  c #A6CA38",
"J  c #A7CA39",
"K  c #A6CB3A",
"L  c #A7CB3A",
"P  c #A5C93D",
"I  c #A9CD3A",
"U  c #AACD3B",
"Y  c #AACD3C",
"T  c #A9CD3E",
"R  c #AACD3E",
"E  c #ADCE3D",
"W  c #ACCE3E",
"Q  c #AECF3E",
"!  c #ADD03E",
"~  c #AACB47",
"^  c #ADCC4D",
"/  c #AFD141",
"(  c #AED142",
")  c #B1D041",
"_  c #B2D246",
"`  c #B4D345",
"'  c #B5D449",
"]  c #B6D449",
"[  c #B7D54B",
"{  c #B8D64C",
"}  c #BAD64F",
"|  c #BAD84D",
" . c #BFD94E",
".. c #B0CE56",
"X. c #BBD651",
"o. c #BCD851",
"O. c #BED950",
"+. c #B4D05F",
"@. c #B7D164",
"#. c #C1DB4F",
"$. c #C1DA50",
"%. c #C1DB50",
"&. c #C3DC50",
"*. c #C3DC52",
"=. c #C3DD53",
"-. c #C4DD52",
";. c #C4DD53",
":. c #C3DB56",
">. c #C2DB57",
",. c #C6DD55",
"<. c #C6DF54",
"1. c #C6DE55",
"2. c #C4DC5B",
"3. c #C6DE5D",
"4. c #C8DF59",
"5. c #C8E057",
"6. c #CAE157",
"7. c #CAE15A",
"8. c #C9DF6B",
"9. c #C9E060",
"0. c #CBE164",
"q. c #CEE268",
"w. c #D0E468",
"e. c #D0E46C",
"r. c #CFE373",
"t. c #CFE37B",
"y. c #D1E475",
"u. c #D3E67A",
"i. c #D1E47E",
"p. c #D5E77D",
"a. c #D3E582",
"s. c #D2E682",
"d. c #D4E682",
"f. c #D4E683",
"g. c #D7E880",
"h. c #D9E982",
"j. c None",
/* pixels */
"j.j.j.j.j.j.j.j.j.j.j.j.j.j.j.j.j.j.j.j.j.j.j.j.j.j.j.j.j.j.j.j.",
"j.j.j.j.j.j.j.j.j.j.j.j.j.j.j.j.j.j.j.j.j.j.j.j.j.j.j.j.j.j.j.j.",
"j.j.j.j.j.j.j.j.j.j.j.j.j.j.j.j.j.j.j.j.j.j.j.j.j.j.j.j.j.j.j.j.",
"j.j.j.j.j.j.j.j.j.j.j.j.j.j.j.j.j.j.j.j.j.j.j.j.j.j.j.j.j.j.j.j.",
"j.j.j.j.j.j.j.j.j.j.j.j.j.j.j.j.j.j.j.j.j.j.j.j.j.j.j.j.j.j.j.j.",
"j.j.j.j.j.j.j.j.j.j.j.j.j.j.j.j.j.j.j.j.j.j.j.j.j.j.j.j.j.j.j.j.",
"j.j.j.j.j.j.j.j.j.j.j.j.j.j.j.j.j.j.j.j.j.j.j.j.j.j.j.j.j.j.j.j.",
"j.j.j.j.j.j.j.j.j.h q j.j.j.j.j.j.j.j.j.j.j.j.j.j.j.j.j.j.j.j.j.",
"j.j.j.j.j.j.j.j.g 8.A g t j.j.j.j.j.j.j.j.j.j.j.j.j.j.j.j.j.j.j.",
"j.j.j.j.j.j.j.j.c w.h.i.P f t j.j.j.j.j.j.j.j.j.j.j.j.j.j.j.j.j.",
"j.j.j.j.j.j.j.j.k 5.7.q.p.i.~ c u j.j.j.j.j.j.j.j.j.j.j.j.j.j.j.",
"j.j.j.j.j.j.j.j.a 5.5.5.3.q.p.d.^ j u j.j.j.j.j.j.j.j.j.j.j.j.j.",
"j.j.j.j.j.j.j.j.p -.-.-.-.-.,.0.i.f...l 5 j.j.j.j.j.j.j.j.j.j.j.",
"j.j.j.j.j.j.j.j.i -.-.#.#.#.#.#.-.7.y.f.+.z 5 j.j.j.j.j.j.j.j.j.",
"j.j.j.j.j.j.j.j.7 &.#.#.#.#.#.#.%.%.&.3.r.a.@.x w j.j.j.j.j.j.j.",
"j.j.j.j.j.j.j.j.6 #. . .#.#.#. . . . . . .>.2.>.Z < j.j.j.j.j.j.",
"j.j.j.j.j.j.j.j.0 Q Q U W W W W W W W W ` O.X.v 0 j.j.j.j.j.j.j.",
"j.j.j.j.j.j.j.j.8 Q U I U I I I I I !  .O.b 8 & j.j.j.j.j.j.j.j.",
"j.j.j.j.j.j.j.j.; U H H H H J L W ' X.n , $ j.j.j.j.j.j.j.j.j.j.",
"j.j.j.j.j.j.j.j.- L F F F F L _ X.m , $ j.j.j.j.j.j.j.j.j.j.j.j.",
"j.j.j.j.j.j.j.j.= G A A G / { m 1 # j.j.j.j.j.j.j.j.j.j.j.j.j.j.",
"j.j.j.j.j.j.j.j.. F A W { V 2 + j.j.j.j.j.j.j.j.j.j.j.j.j.j.j.j.",
"j.j.j.j.j.j.j.j.. T [ C 4 X j.j.j.j.j.j.j.j.j.j.j.j.j.j.j.j.j.j.",
"j.j.j.j.j.j.j.j.@ V 4 @ j.j.j.j.j.j.j.j.j.j.j.j.j.j.j.j.j.j.j.j.",
"j.j.j.j.j.j.j.j.j.X   j.j.j.j.j.j.j.j.j.j.j.j.j.j.j.j.j.j.j.j.j.",
"j.j.j.j.j.j.j.j.j.j.j.j.j.j.j.j.j.j.j.j.j.j.j.j.j.j.j.j.j.j.j.j.",
"j.j.j.j.j.j.j.j.j.j.j.j.j.j.j.j.j.j.j.j.j.j.j.j.j.j.j.j.j.j.j.j.",
"j.j.j.j.j.j.j.j.j.j.j.j.j.j.j.j.j.j.j.j.j.j.j.j.j.j.j.j.j.j.j.j.",
"j.j.j.j.j.j.j.j.j.j.j.j.j.j.j.j.j.j.j.j.j.j.j.j.j.j.j.j.j.j.j.j.",
"j.j.j.j.j.j.j.j.j.j.j.j.j.j.j.j.j.j.j.j.j.j.j.j.j.j.j.j.j.j.j.j.",
"j.j.j.j.j.j.j.j.j.j.j.j.j.j.j.j.j.j.j.j.j.j.j.j.j.j.j.j.j.j.j.j.",
"j.j.j.j.j.j.j.j.j.j.j.j.j.j.j.j.j.j.j.j.j.j.j.j.j.j.j.j.j.j.j.j."
};
