/* XPM */
const static char *removeIcon_xpm[] = {
"32 32 23 1",
"  c #AF3307",
". c #B43508",
"X c #BA3608",
"o c #A63710",
"O c #C03909",
"+ c #C73B0A",
"@ c #CD3C0A",
"# c #D23E0B",
"$ c #D53F0B",
"% c #D0400E",
"& c #D74916",
"* c #D94D19",
"= c #D94F1E",
"- c #DB5321",
"; c #E15B21",
": c #E66628",
"> c #E06F45",
", c #E27348",
"< c #E1744B",
"1 c #E3784E",
"2 c #E99677",
"3 c #EFB59F",
"4 c None",
/* pixels */
"44444444444444444444444444444444",
"44444444444444444444444444444444",
"44444444444444444444444444444444",
"44444444444444444444444444444444",
"44444444444444444444444444444444",
"44444444444444444444444444444444",
"44444444444444444444444444444444",
"44444444444444444444444444444444",
"44444444444444444444444444444444",
"44444444444444444444444444444444",
"44444444444444444444444444444444",
"44444444444444444444444444444444",
"444444%$$$$$$$$$$$$$$$$$$%444444",
"444444#233333333333333332#444444",
"444444@1<<<<<<<<<<<<<<<<1@444444",
"444444+,>>>>>>>>>>>>>>>>,+444444",
"444444O-================-O444444",
"444444X*&&&&&&&&&&&&&&&&*X444444",
"444444.;::::::::::::::::;.444444",
"444444o                  o444444",
"44444444444444444444444444444444",
"44444444444444444444444444444444",
"44444444444444444444444444444444",
"44444444444444444444444444444444",
"44444444444444444444444444444444",
"44444444444444444444444444444444",
"44444444444444444444444444444444",
"44444444444444444444444444444444",
"44444444444444444444444444444444",
"44444444444444444444444444444444",
"44444444444444444444444444444444",
"44444444444444444444444444444444"
};
