/* XPM */
const static char *repeatIcon_xpm[] = {
"16 16 58 1",
"  c #002C80",
". c #002D88",
"X c #002F89",
"o c #002F8C",
"O c #00328F",
"+ c #003191",
"@ c #003292",
"# c #003294",
"$ c #003398",
"% c #00359E",
"& c #00389E",
"* c #0037A2",
"= c #0038A3",
"- c #0039A5",
"; c #0038A6",
": c #0037A8",
"> c #0037AA",
", c #0038AA",
"< c #0038AD",
"1 c #003AAE",
"2 c #003BAE",
"3 c #003CAE",
"4 c #003CB4",
"5 c #003FB5",
"6 c #003CB8",
"7 c #003EB9",
"8 c #003DBA",
"9 c #0040BF",
"0 c #003FC0",
"q c #0041C2",
"w c #0040C3",
"e c #0041C3",
"r c #0043C4",
"t c #0043CB",
"y c #0044C8",
"u c #0045CD",
"i c #0047CD",
"p c #0046CE",
"a c #0047D0",
"s c #0046D2",
"d c #0047D2",
"f c #0049D6",
"g c #0049D7",
"h c #004AD9",
"j c #004DDF",
"k c #004BE3",
"l c #004DE1",
"z c #004EE1",
"x c #004DE2",
"c c #004EE3",
"v c #004CE6",
"b c #004EE6",
"n c #004EE9",
"m c #0050E8",
"M c #0051EE",
"N c #0052EF",
"B c #0052F6",
"V c None",
/* pixels */
"VVVVVVVVVVVVVVVV",
"VVVVVVVVVVVVVVVV",
"VVVVVVVVVVVVt0VV",
"VVVVVVVVVVBgVVVV",
"VVVVs&VVVMnp5VVV",
"VVVM6oVVdpte1VVV",
"VVVk1%VVeVV9;@VV",
"VVVl1VVV6VVp;.VV",
"VVVb3VVVVVVj,.VV",
"VVVl6VVVVVVb,@VV",
"VVVgyyVVVVVa$VVV",
"VVVrrphlbmd=@VVV",
"VVVV5>;;;;#OVVVV",
"VVVVVV.  .VVVVVV",
"VVVVVVVVVVVVVVVV",
"VVVVVVVVVVVVVVVV"
};
