/* XPM */
const static char *saveIcon_xpm[] = {
"16 16 112 2",
"   c #000000",
".  c #213247",
"X  c #343C47",
"o  c #333367",
"O  c #37366E",
"+  c #393972",
"@  c #3C3B78",
"#  c #3E3E7D",
"$  c #484D56",
"%  c #4B5B71",
"&  c #526276",
"*  c #5B6A7D",
"=  c #313998",
"-  c #333E9E",
";  c #353D9C",
":  c #363D9C",
">  c #113BA1",
",  c #1C41A7",
"<  c #2444AA",
"1  c #2847AD",
"2  c #3541A3",
"3  c #3C42A2",
"4  c #3C42A3",
"5  c #344DB3",
"6  c #3F52B8",
"7  c #414183",
"8  c #444489",
"9  c #47478F",
"0  c #4A4A94",
"q  c #4D4D9A",
"w  c #504F9F",
"e  c #677485",
"r  c #68788D",
"t  c #737F8F",
"y  c #4449AA",
"u  c #434BAE",
"i  c #5352A4",
"p  c #5655AA",
"a  c #4C4FB2",
"s  c #4C50B2",
"d  c #4B58BE",
"f  c #5958B0",
"g  c #5456BA",
"h  c #565EC4",
"j  c #5C5DC1",
"k  c #5C5DC2",
"l  c #6564C3",
"z  c #6063C9",
"x  c #6766CC",
"c  c #6767CC",
"v  c #6C6BCF",
"b  c #6C6BD1",
"n  c #6E6DD3",
"m  c #706FD1",
"M  c #7574D3",
"N  c #7271D7",
"B  c #7675D4",
"V  c #7B7AD6",
"C  c #7C7BD7",
"Z  c #7776DC",
"A  c #7A79DF",
"S  c #8180DA",
"D  c #8483DB",
"F  c #8887DD",
"G  c #8B8ADF",
"H  c #ABB4C3",
"J  c #B3BBC6",
"K  c #8180E6",
"L  c #8F8EE0",
"P  c #8786EC",
"I  c #8A89EF",
"U  c #9291E2",
"Y  c #9493E4",
"T  c #9897E5",
"R  c #9B9AE7",
"E  c #9F9EE9",
"W  c #8F8EF3",
"Q  c #8F8EF4",
"!  c #9190F5",
"~  c #9493F5",
"^  c #9392F8",
"/  c #9A99FF",
"(  c #A09FFB",
")  c #A09FFF",
"_  c #A2A1EA",
"`  c #A7A6ED",
"'  c #A8A7EE",
"]  c #ADACF0",
"[  c #AEADF1",
"{  c #A4A3FC",
"}  c #AAA9FF",
"|  c #AEADFF",
" . c #B3B2F3",
".. c #B7B6F5",
"X. c #B4B3FF",
"o. c #B7B6FF",
"O. c #BCBBFF",
"+. c #BEBDFF",
"@. c #BCC1CA",
"#. c #BDCAE1",
"$. c #C4C8CE",
"%. c #C6D1E5",
"&. c #CED9E9",
"*. c #D2DBEA",
"=. c #D4DDEC",
"-. c #D8E0ED",
";. c #DEE5F0",
":. c #E0E7F1",
">. c #EAEEF6",
",. c #F6F8FB",
"<. c #FFFFFF",
"1. c None",
/* pixels */
"1.1.1.1.1.1.1.1.1.1.1.1.1.1.1.1.",
"1..... .] ' _ R Y L F S V M m 1.",
"1. .+.^ <.<.<.<.<.<.<.,.d f f 1.",
"1.] +.I <.<.<.<.<.<.,.>.6 o p 1.",
"1.` +.K <.<.<.<.<.,.>.;.5 A i 1.",
"1.E +.Z <.<.<.<.,.>.;.*.1 N w 1.",
"1.T +.n <.<.<.,.>.;.*.%., x q 1.",
"1.U +.x <.<.,.>.;.*.%.#.> k 0 1.",
"1.G O.o.z h d 6 5 1 , > k g 9 1.",
"1.D X.| { Q P K A N b k g s 8 1.",
"1.C } ( ~ % % % % & * g a y 7 1.",
"1.B ) ! P %   X &.=.e u y 4 # 1.",
"1.m / P K % X r -.:.t 2 4 : @ 1.",
"1.v W K < . H J @.$.$ - : = + 1.",
"1.1.l p i w q 0 9 8 7 @ @ + O 1.",
"1.1.1.1.1.1.1.1.1.1.1.1.1.1.1.1."
};
