/* XPM */
const static char * settingsIcon_xpm[] = {
"16 16 117 2",
"  	c None",
". 	c #ACBBC4",
"+ 	c #C5D7E4",
"@ 	c #93AEC7",
"# 	c #B9CAD4",
"$ 	c #B8C9D6",
"% 	c #6E869B",
"& 	c #BDCFE5",
"* 	c #C5D5E3",
"= 	c #C0CFDD",
"- 	c #C5D3DE",
"; 	c #B5C4CF",
"> 	c #B5C4CE",
", 	c #A1B3C0",
"' 	c #A8BAC7",
") 	c #A0B4C6",
"! 	c #C1D3E7",
"~ 	c #C0D0E1",
"{ 	c #90A4B7",
"] 	c #A9BAC8",
"^ 	c #BECCD9",
"/ 	c #C2D0D7",
"( 	c #80919A",
"_ 	c #76858E",
": 	c #AEC2DA",
"< 	c #C9D9F0",
"[ 	c #CAD8EC",
"} 	c #C9D8E5",
"| 	c #9CAFC0",
"1 	c #A5B5C5",
"2 	c #C9D6DD",
"3 	c #BFCBD2",
"4 	c #D1DAE0",
"5 	c #91AAC0",
"6 	c #849CAF",
"7 	c #98B1CD",
"8 	c #D3E1F2",
"9 	c #D3DFEB",
"0 	c #7790AD",
"a 	c #7B90A2",
"b 	c #CAD7DB",
"c 	c #C2CDD4",
"d 	c #C0CED2",
"e 	c #BACAD3",
"f 	c #869EB2",
"g 	c #ADC3DA",
"h 	c #B5C8DE",
"i 	c #9CB3D0",
"j 	c #92A5B1",
"k 	c #CAD5DA",
"l 	c #C1CED7",
"m 	c #98A8B4",
"n 	c #8EA9C2",
"o 	c #BCD2ED",
"p 	c #8CA4B9",
"q 	c #92ABC8",
"r 	c #758BA1",
"s 	c #C3CFD7",
"t 	c #CFDADE",
"u 	c #8299A7",
"v 	c #92ABC3",
"w 	c #B5C9E2",
"x 	c #A3BAD0",
"y 	c #7890A5",
"z 	c #ADBCC5",
"A 	c #C7D1D7",
"B 	c #CCD7DD",
"C 	c #8A9FAE",
"D 	c #94ADC8",
"E 	c #ABC2DE",
"F 	c #BED1E1",
"G 	c #8095AC",
"H 	c #A5B4C0",
"I 	c #8CA0AE",
"J 	c #C6D2D8",
"K 	c #7A8E9D",
"L 	c #95AEC7",
"M 	c #A2BBD6",
"N 	c #A3BBD5",
"O 	c #CCDBE4",
"P 	c #758DA2",
"Q 	c #99B0C0",
"R 	c #BAC7CD",
"S 	c #B5C3CA",
"T 	c #8FA1AD",
"U 	c #88A1B9",
"V 	c #9DB4CD",
"W 	c #ADC0D2",
"X 	c #E3E9ED",
"Y 	c #A7BCCB",
"Z 	c #A0B4C5",
"` 	c #B4C2CA",
" .	c #B6C5CC",
"..	c #B6C3C8",
"+.	c #93AABA",
"@.	c #8CA4BA",
"#.	c #91ACC4",
"$.	c #95ADC5",
"%.	c #94ACC2",
"&.	c #A0B3C3",
"*.	c #A0B2C0",
"=.	c #AABAC4",
"-.	c #AFBEC7",
";.	c #BCCDD7",
">.	c #94A3AE",
",.	c #7F97AE",
"'.	c #7D94AB",
").	c #738EA8",
"!.	c #839BB1",
"~.	c #98ADBF",
"{.	c #9FB2C0",
"].	c #7B8E9D",
"^.	c #809CB5",
"/.	c #7C90A2",
"(.	c #7D95A7",
"_.	c #99B0C2",
":.	c #8499A8",
"            .                   ",
"      + @ # $ %                 ",
"      & * = - ; > ,             ",
"  ' ) ! ~ { ] ^ / ( _           ",
"  : < [ } | 1 2 3 4 5 6         ",
"  7 8 9 0     a b c d e f       ",
"  g h i         j k l m         ",
"n o p q         r s t u         ",
"  v w x         y z A B C       ",
"  D E F         G H I J K       ",
"  L M N O P     Q R S T         ",
"    U V W X Y Z `  ...+.        ",
"    @.#.$.%.&.*.=.-.;.>.        ",
"      ,.'.).!.~.{.].            ",
"          ^./.(._.:.            ",
"                                "};
