/* XPM */
const static char *stopIcon_xpm[] = {
"32 32 53 1",
"  c #96320F",
". c #AD3207",
"X c #AF3307",
"o c #B13407",
"O c #B33408",
"+ c #B63508",
"@ c #B83608",
"# c #BB3708",
"$ c #BE3809",
"% c #B73D12",
"& c #C03909",
"* c #C33909",
"= c #C63A0A",
"- c #C93B0A",
"; c #CB3C0A",
": c #CE3D0A",
"> c #D03D0B",
", c #D23E0B",
"< c #D43F0B",
"1 c #D53F0B",
"2 c #D44019",
"3 c #D5421C",
"4 c #D6441C",
"5 c #D5441E",
"6 c #D7461F",
"7 c #D64621",
"8 c #D74821",
"9 c #D64823",
"0 c #D74B26",
"q c #D84A24",
"w c #D84C26",
"e c #D74E29",
"r c #D94F29",
"t c #D9522C",
"y c #DF5829",
"u c #E46330",
"i c #DE6A4B",
"p c #DF6D4E",
"a c #DF6E50",
"s c #E06D4E",
"d c #E07051",
"f c #E07052",
"g c #E07252",
"h c #E07355",
"j c #E17355",
"k c #E07357",
"l c #E17557",
"z c #E17657",
"x c #E27759",
"c c #E3795A",
"v c #EBA592",
"b c #F1BFB2",
"n c None",
/* pixels */
"nnnnnnnnnnnnnnnnnnnnnnnnnnnnnnnn",
"nnnnnnnnnnnnnnnnnnnnnnnnnnnnnnnn",
"nnnnnnnnnnnnnnnnnnnnnnnnnnnnnnnn",
"nnnnnnnnnnnnnnnnnnnnnnnnnnnnnnnn",
"nnnnnnnnnnnnnnnnnnnnnnnnnnnnnnnn",
"nnnnnnnnnnnnnnnnnnnnnnnnnnnnnnnn",
"nnnnnnnnnnnnnnnnnnnnnnnnnnnnnnnn",
"nnnnnnn%1122222211111111%nnnnnnn",
"nnnnnnn2vbbbbbbbbbbbbbbv1nnnnnnn",
"nnnnnnn>zgzzjjzjjzzjjxjc1nnnnnnn",
"nnnnnnn>cjjjkkkkkkkkkkkz>nnnnnnn",
"nnnnnnn:jjjjkkkjkkhhkkkx:nnnnnnn",
"nnnnnnn;jggaffffhgggfffj:nnnnnnn",
"nnnnnnn-ggaaaaaappapapaf-nnnnnnn",
"nnnnnnn=appppppppppppppf=nnnnnnn",
"nnnnnnn*piiiiiiiiiiiiiis*nnnnnnn",
"nnnnnnn$teeeeeeeeeeeeeet*nnnnnnn",
"nnnnnnn$e00000000000ww0r$nnnnnnn",
"nnnnnnn$e79979779999999w#nnnnnnn",
"nnnnnnn$077777777777775q#nnnnnnn",
"nnnnnnnO9737555555555559+nnnnnnn",
"nnnnnnnO7371555333333345Onnnnnnn",
"nnnnnnnO7>33,57,22222225onnnnnnn",
"nnnnnnnOtuuuuuuuuuuuuuuyXnnnnnnn",
"nnnnnnn XX.X..XX.XXX.XXX nnnnnnn",
"nnnnnnnnnnnnnnnnnnnnnnnnnnnnnnnn",
"nnnnnnnnnnnnnnnnnnnnnnnnnnnnnnnn",
"nnnnnnnnnnnnnnnnnnnnnnnnnnnnnnnn",
"nnnnnnnnnnnnnnnnnnnnnnnnnnnnnnnn",
"nnnnnnnnnnnnnnnnnnnnnnnnnnnnnnnn",
"nnnnnnnnnnnnnnnnnnnnnnnnnnnnnnnn",
"nnnnnnnnnnnnnnnnnnnnnnnnnnnnnnnn"
};
