/* XPM */ 
static const char * Up_XPM[] = {
"13 16 18 1",
" 	c None",
"!	c black",
"#	c #E3E3E3",
"$	c #363636",
"%	c #D5D5D5",
"&	c #474747",
"'	c #303030",
"(	c #484848",
")	c #7E7E7E",
"*	c #2E2E2E",
"+	c #333333",
",	c #717171",
"-	c #B8B8B8",
".	c #282828",
"0	c #292929",
"1	c #A9A9A9",
"2	c #2F2F2F",
"3	c #313131",
"             ",
"             ",
"     #$%     ",
"     &'(     ",
"    )*+*,    ",
"   -.+++01   ",
"  #2+++++3#  ",
"  &3+++++3&  ",
"     +++     ",
"     +++     ",
"     +++     ",
"     +++     ",
"     +++     ",
"     +++     ",
"             ",
"             "};