/* XPM */
static const char * HandOpenCursor_xpm[] = {
"16 16 3 1",
" 	c None",
".	c #000000",
"+	c #FFFFFF",
"       ..       ",
"   .. .++...    ",
"  .++..++.++.   ",
"  .++..++.++. . ",
"   .++.++.++..+.",
"   .++.++.++.++.",
" ....+++++++.++.",
".++..++++++++++.",
".+++.+++++++++. ",
" .++++++++++++. ",
"  .+++++++++++. ",
"  .++++++++++.  ",
"   .+++++++++.  ",
"    .+++++++.   ",
"     .++++++.   ",
"     .++++++.   "};
