/* XPM */
static const char *Neurotechnology_XPM[]={
"32 32 39 1",
"      c None",
"0     c #CCECFF",
"1     c #A6CAF0",
"2     c #99CCCC",
"3     c #D7D7D7",
"4     c #C0DCC0",
"5     c #66CCCC",
"6     c #A0A0A4",
"7     c #669999",
"8     c #DDDDDD",
"9     c #F8F8F8",
"a     c #FFFFFF",
"b     c #E3E3E3",
"c     c #5F5F5F",
"d     c #969696",
"e     c #808080",
"f     c #F1F1F1",
"g     c #EAEAEA",
"h     c #666666",
"i     c #C0C0C0",
"j     c #040404",
"k     c #4D4D4D",
"l     c #0C0C0C",
"m     c #333333",
"n     c #424242",
"o     c #555555",
"p     c #868686",
"q     c #222222",
"r     c #161616",
"s     c #777777",
"t     c #B2B2B2",
"u     c #292929",
"v     c #393939",
"w     c #999999",
"x     c #111111",
"y     c #CCCCCC",
"z     c #1C1C1C",
"A     c #CBCBCB",
"B     c #336666",
"                                ",
"                   001123       ",
"                42555555555     ",
"             322222222222657    ",
"           855555555555555555   ",
"          92211222222222226572  ",
"         5555aa555555555555555  ",
"       bcdb4aecfg2bdh8222266773 ",
"      aijk55djlm8gbnji555555555 ",
"      filog8plqrmbgkji22222657i ",
"     553sjtgtrrluftlm3555555555 ",
"    b2238uvba3tibbnjw0222226572 ",
"    555558uletutexjhy5555555555 ",
"   022222f3dzzzzrp602222222656  ",
"  555555555afyl385555555555555  ",
"  2222222222f8x32222222222657i  ",
" 555555555555yxt3555555555555   ",
" 1222222222203ln912222222265i   ",
" 55555555555bdlmtyf5555555555   ",
"2222222221aeujumzrc89252267y    ",
"555555555bhjmpbibpulhf55555     ",
"22222222yilj69121fbujhg256      ",
"55555555avle955555aprjd555      ",
"56622222amza3222253frrmb2       ",
"5555555fpjd35555555yxzlt        ",
"8676662asjd22222225ghjzy        ",
"5555555atoi55555555fAeh8        ",
" i555559aaa555555555            ",
"  7777762225777777              ",
"   55555555555552               ",
"    i67BBBs766y                 ",
"                                "};

