/* XPM */
static const char *Down_XPM[] = {
"13 16 11 1",
"  c #191919",
". c #333333",
"X c #3F3F3F",
"o c #444444",
"O c #4D4D4D",
"+ c #595959",
"@ c #8D8D8D",
"# c #BFBFBF",
"$ c #D8D8D8",
"% c #E6E6E6",
"& c #EEEEEE",
/* pixels */
"&&&&&&&&&&&&&",
"&&&&&&&&&&&&&",
"&&&&&   &&&&&",
"&&&&&...&&&&&",
"&&&&&...&&&&&",
"&&&&&...&&&&&",
"&&&&&...&&&&&",
"&&&&&...&&&&&",
"&&o  ...  o&&",
"&&%X.....X%&&",
"&&&#.....#&&&",
"&&&&@...@&&&&",
"&&&&&+.+&&&&&",
"&&&&&$O%&&&&&",
"&&&&&&&&&&&&&",
"&&&&&&&&&&&&&"
};
