/* XPM */
static const char *Up_XPM[] = {
"13 16 18 1",
"  c #282828",
". c #292929",
"X c #2E2E2E",
"o c #2F2F2F",
"O c #303030",
"+ c #313131",
"@ c #333333",
"# c #363636",
"$ c #474747",
"% c #484848",
"& c #717171",
"* c #7E7E7E",
"= c #A9A9A9",
"- c #B8B8B8",
"; c #D5D5D5",
": c #E3E3E3",
"> c #F1F1F1",
", c #EEEEEE",
/* pixels */
",,,,,,,,,,,,,",
",,,,,,,,,,,,,",
",,,,,:#;,,,,,",
",,,,,$O%>,,,,",
",,,,*X@X&,,,,",
",,,- @@@.=,,,",
",,:o@@@@@+:,,",
",,$+@@@@@+$,,",
",,,,,@@@,,,,,",
",,,,,@@@,,,,,",
",,,,,@@@,,,,,",
",,,,,@@@,,,,,",
",,,,,@@@,,,,,",
",,,,,@@@,,,,,",
",,,,,,,,,,,,,",
",,,,,,,,,,,,,"
};
