<?xml version="1.0" encoding="UTF-8" standalone="no"?>
<!-- Created with Inkscape (http://www.inkscape.org/) -->

<svg
   xmlns:dc="http://purl.org/dc/elements/1.1/"
   xmlns:cc="http://creativecommons.org/ns#"
   xmlns:rdf="http://www.w3.org/1999/02/22-rdf-syntax-ns#"
   xmlns:svg="http://www.w3.org/2000/svg"
   xmlns="http://www.w3.org/2000/svg"
   xmlns:sodipodi="http://sodipodi.sourceforge.net/DTD/sodipodi-0.dtd"
   xmlns:inkscape="http://www.inkscape.org/namespaces/inkscape"
   width="640"
   height="300"
   id="svg2"
   version="1.1"
   inkscape:version="0.48.4 r9939"
   sodipodi:docname="Hands.svg"
   inkscape:export-filename="D:\MegaMatcher\Samples\Server\Common\Resources\icons\two_hands.png"
   inkscape:export-xdpi="94.299484"
   inkscape:export-ydpi="94.299484"
   style="display:inline">
  <defs
     id="defs4">
    <inkscape:perspective
       sodipodi:type="inkscape:persp3d"
       inkscape:vp_x="0 : 150 : 1"
       inkscape:vp_y="0 : 1000 : 0"
       inkscape:vp_z="640 : 150 : 1"
       inkscape:persp3d-origin="320 : 100 : 1"
       id="perspective3182" />
  </defs>
  <sodipodi:namedview
     id="base"
     pagecolor="#ffffff"
     bordercolor="#666666"
     borderopacity="1.0"
     inkscape:pageopacity="0.0"
     inkscape:pageshadow="2"
     inkscape:zoom="1.4142136"
     inkscape:cx="330.93823"
     inkscape:cy="83.801559"
     inkscape:document-units="px"
     inkscape:current-layer="layer10"
     showgrid="false"
     inkscape:window-width="1280"
     inkscape:window-height="972"
     inkscape:window-x="-30720"
     inkscape:window-y="-32000"
     inkscape:window-maximized="0" />
  <metadata
     id="metadata7">
    <rdf:RDF>
      <cc:Work
         rdf:about="">
        <dc:format>image/svg+xml</dc:format>
        <dc:type
           rdf:resource="http://purl.org/dc/dcmitype/StillImage" />
        <dc:title />
      </cc:Work>
    </rdf:RDF>
  </metadata>
  <g
     id="layer4"
     style="display:none"
     inkscape:groupmode="layer"
     inkscape:label="FullPalm"
     sodipodi:insensitive="true">
    <path
       id="LeftFullPalm"
       sodipodi:nodetypes="czzzzzzzzzzzzzzzzzzzzzzzzzzzzzzc"
       inkscape:connector-curvature="0"
       d="M 212.16718,259.65962 C 226.61932,238.82578 269.58476,200.44723 286.15526,189.15202 C 302.72576,177.85681 306.30871,169.95819 299.52735,164.70105 C 292.74599,159.44391 283.23943,161.22249 269.84198,169.37669 C 256.44453,177.53089 224.97337,206.19339 212.5439,204.20429 C 200.11443,202.21519 194.90628,188.07171 193.30319,181.41837 C 191.7001,174.76503 193.16818,161.70277 196.11019,145.64374 C 199.0522,129.58471 208.78886,72.063767 210.49842,58.102076 C 212.20798,44.140385 212.65696,31.923836 205.35133,30.359316 C 198.0457,28.794796 192.36234,36.564546 188.13203,49.289836 C 183.90172,62.015126 175.65793,111.11387 172.36817,121.98426 C 169.07841,132.85465 167.73241,141.04906 161.54441,139.56483 C 155.35641,138.0806 155.03576,127.73524 154.55541,115.6797 C 154.07505,103.62415 149.34947,66.112656 148.85639,49.235132 C 148.36331,32.357608 145.91565,17.719329 135.36181,17.255176 C 124.80797,16.791024 124.83348,35.983273 124.6761,53.524485 C 124.51872,71.065697 128.36631,118.44254 128.638,127.48542 C 128.90969,136.5283 128.15494,143.0049 122.82317,144.21003 C 117.4914,145.41516 112.65882,136.87705 110.33264,129.69451 C 108.00646,122.51197 96.290854,89.108289 87.294039,70.183938 C 78.297224,51.259587 76.699689,39.578041 65.488369,43.001446 C 54.277049,46.424851 58.107534,64.781472 64.091009,80.677468 C 70.074484,96.573464 86.138915,137.52489 87.418919,145.85757 C 88.698923,154.19025 89.0115,159.87195 84.95934,162.75692 C 80.90718,165.64189 76.761329,166.90257 68.235419,155.95326 C 59.709509,145.00395 59.717023,143.2745 51.532443,133.76769 C 43.347863,124.26088 26.976475,102.56357 17.235603,111.77211 C 7.4947304,120.98066 26.290683,135.28643 34.430188,147.13217 C 42.569693,158.97791 49.716147,165.81993 56.7663,182.75852 C 63.816453,199.69711 66.909401,224.92291 69.681565,243.94074 C 72.453729,262.95857 89.643839,294.55331 125.24492,294.26496 C 160.846,293.97661 189.47546,296.35417 212.16718,259.65962 z"
       style="fill:#00ff00;fill-opacity:1;stroke:none;display:inline"
       group="Item"
       position="LeftFullPalm" />
    <path
       id="RightFullPalm"
       sodipodi:nodetypes="czzzzzzzzzzzzzzzzzzzzzzzzzzzzzzc"
       inkscape:connector-curvature="0"
       d="M 431.96784,259.40271 C 417.5157,238.56887 374.55026,200.19032 357.97976,188.89511 C 341.40926,177.5999 337.82631,169.70128 344.60767,164.44414 C 351.38903,159.187 360.89559,160.96558 374.29304,169.11978 C 387.69049,177.27398 419.16165,205.93648 431.59112,203.94738 C 444.02059,201.95828 449.22874,187.8148 450.83183,181.16146 C 452.43492,174.50812 450.96684,161.44586 448.02483,145.38683 C 445.08282,129.3278 435.34616,71.806853 433.6366,57.845163 C 431.92704,43.883474 431.47806,31.666925 438.78369,30.102405 C 446.08932,28.537885 451.77268,36.307635 456.00299,49.032925 C 460.2333,61.758213 468.47709,110.85696 471.76685,121.72735 C 475.05661,132.59774 476.40261,140.79215 482.59061,139.30792 C 488.77861,137.82369 489.09926,127.47833 489.57961,115.42279 C 490.05997,103.36724 494.78555,65.855743 495.27863,48.978221 C 495.77171,32.100697 498.21937,17.462418 508.77321,16.998265 C 519.32705,16.534113 519.30154,35.726362 519.45892,53.267574 C 519.6163,70.808783 515.76871,118.18563 515.49702,127.22851 C 515.22533,136.27139 515.98008,142.74799 521.31185,143.95312 C 526.64362,145.15825 531.47621,136.62014 533.80239,129.4376 C 536.12857,122.25506 547.84417,88.851381 556.84099,69.927023 C 565.8378,51.002676 567.43534,39.32113 578.64666,42.744535 C 589.85798,46.16794 586.02749,64.524563 580.04402,80.420553 C 574.06054,96.316551 557.99611,137.26798 556.71611,145.60066 C 555.4361,153.93334 555.12353,159.61504 559.17569,162.50001 C 563.22785,165.38498 567.3737,166.64566 575.89961,155.69635 C 584.42552,144.74704 584.418,143.01759 592.60258,133.51078 C 600.78716,124.00397 617.15855,102.30666 626.89942,111.5152 C 636.64029,120.72375 617.84434,135.02952 609.70484,146.87526 C 601.56533,158.721 594.41888,165.56302 587.36873,182.50161 C 580.31857,199.4402 577.22562,224.666 574.45346,243.68383 C 571.6813,262.70166 554.49119,294.2964 518.8901,294.00805 C 483.28902,293.7197 454.65956,296.09726 431.96784,259.40271 z"
       style="fill:#00ff00;fill-opacity:1;stroke:none;display:inline"
       group="Item"
       position="RightFullPalm" />
  </g>
  <g
     id="layer7"
     inkscape:label="LowerPalm"
     style="display:none"
     inkscape:groupmode="layer"
     sodipodi:insensitive="true">
    <path
       id="LeftLowerPalm"
       d="M 66.340306,221.26166 C 67.62023,229.17984 68.668805,236.98425 69.684056,243.94916 C 72.45622,262.96699 89.645479,294.55001 125.24656,294.26166 C 160.84764,293.97331 189.46109,296.36246 212.15281,259.66791 C 212.01238,260.15315 212.55906,204.19916 212.55906,204.19916 C 202.29104,202.55596 196.947,192.63802 194.49656,185.48041 C 193.98074,183.97371 193.58783,182.57491 193.30906,181.41791 C 193.30906,181.41791 66.388466,221.40382 66.340306,221.26166 z"
       style="fill:#ff7f00;fill-opacity:1;stroke:none;display:inline"
       inkscape:connector-curvature="0"
       sodipodi:nodetypes="cssccscc"
       group="Item"
       position="LeftLowerPalm" />
    <path
       id="RightLowerPalm"
       d="M 577.10935,221.4209 C 575.82942,229.33908 574.78085,237.14349 573.7656,244.1084 C 570.99343,263.12623 553.80417,294.70925 518.20309,294.4209 C 482.60201,294.13255 453.98856,296.5217 431.29684,259.82715 C 431.43727,260.31239 430.89059,204.3584 430.89059,204.3584 C 441.15861,202.7152 446.50265,192.79726 448.95309,185.63965 C 449.46891,184.13295 449.86182,182.73415 450.14059,181.57715 C 450.14059,181.57715 577.06119,221.56306 577.10935,221.4209 z"
       style="fill:#ff7f00;fill-opacity:1;stroke:none;display:inline"
       inkscape:connector-curvature="0"
       sodipodi:nodetypes="cssccscc"
       group="Item"
       position="RightLowerPalm" />
  </g>
  <g
     inkscape:groupmode="layer"
     id="layer8"
     inkscape:label="Thenar"
     style="display:none"
     sodipodi:insensitive="true">
    <path
       inkscape:connector-curvature="0"
       id="LeftThenar"
       d="M 142.12156,294.13671 C 142.13306,294.24388 142.14126,294.37443 142.15276,294.48046 L 142.30901,294.13671 C 170.12072,293.68234 193.21227,290.29643 212.15276,259.66796 C 223.37096,245.27492 218.5386,213.53332 205.15276,201.19921 C 197.93018,196.17999 194.5486,186.56266 193.30901,181.41796 C 193.14284,180.72829 193.03531,179.96106 192.93401,179.13671 L 193.12151,178.66796 C 193.03541,178.71766 192.95734,178.77443 192.87151,178.82421 C 154.86944,198.64127 134.20722,245.79447 142.12156,294.13671 z"
       style="fill:#a63bff;fill-opacity:1;stroke:none;display:inline"
       sodipodi:nodetypes="cccccscccc"
       position="LeftThenar"
       group="Item" />
    <path
       inkscape:connector-curvature="0"
       id="RightThenar"
       d="M 501.80185,294.0625 C 501.79035,294.16967 501.78215,294.30022 501.77065,294.40625 L 501.6144,294.0625 C 473.80269,293.60813 450.71114,290.22222 431.77065,259.59375 C 420.55245,245.20071 425.38481,213.45911 438.77065,201.125 C 445.99323,196.10578 449.37481,186.48845 450.6144,181.34375 C 450.78057,180.65408 450.8881,179.88685 450.9894,179.0625 L 450.8019,178.59375 C 450.888,178.64345 450.96607,178.70022 451.0519,178.75 C 489.05397,198.56706 509.71619,245.72026 501.80185,294.0625 z"
       style="fill:#a63bff;fill-opacity:1;stroke:none;display:inline"
       sodipodi:nodetypes="cccccscccc"
       position="RightThenar"
       group="Item" />
  </g>
  <g
     inkscape:groupmode="layer"
     id="layer9"
     inkscape:label="Hypothenar"
     style="display:none"
     sodipodi:insensitive="true">
    <path
       style="fill:#00ff00;fill-opacity:1;stroke:none;display:inline"
       d="M 162.37156,139.85541 C 158.67569,166.82334 130.39141,201.08832 65.434056,216.04291 L 65.152806,216.29291 C 65.259868,216.26581 65.358489,216.22631 65.465306,216.19921 C 67.142501,225.82748 68.452065,235.49741 69.684056,243.94921 C 72.45622,262.96704 89.645479,294.55006 125.24656,294.26171 C 131.06514,294.21461 136.67164,294.22311 142.12156,294.13671 C 142.13306,294.24388 142.14126,294.37443 142.15276,294.48046 L 142.30901,294.13671 C 133.62645,246.90438 156.14814,196.81966 192.93401,179.13671 L 193.12151,178.66796 C 193.03541,178.71766 192.95734,178.77443 192.87151,178.82421 C 192.11515,171.97629 193.4269,160.82239 195.80901,147.48046 L 196.09026,147.41796 C 196.00546,147.38796 195.92503,147.35386 195.84026,147.32426 C 182.01753,141.97039 174.8216,139.92804 162.37156,139.85541 z"
       id="LeftHypothenar"
       inkscape:connector-curvature="0"
       sodipodi:nodetypes="ccccsscccccccccc"
       position="LeftHypothenar"
       group="Item" />
    <path
       style="fill:#00ff00;fill-opacity:1;stroke:none;display:inline"
       d="M 480.74994,139.18748 C 484.44581,166.15541 512.73009,200.42039 577.68744,215.37498 L 577.96869,215.62498 C 577.86163,215.59788 577.763,215.55838 577.65619,215.53128 C 575.97899,225.15955 574.66943,234.82948 573.43744,243.28128 C 570.66527,262.29911 553.47601,293.88213 517.87494,293.59378 C 512.05636,293.54668 506.44986,293.55518 500.99994,293.46878 C 500.98844,293.57595 500.98024,293.7065 500.96874,293.81253 L 500.81249,293.46878 C 509.49505,246.23645 486.97336,196.15173 450.18749,178.46878 L 449.99999,178.00003 C 450.08609,178.04973 450.16416,178.1065 450.24999,178.15628 C 451.00635,171.30836 449.6946,160.15446 447.31249,146.81253 L 447.03124,146.75003 C 447.11604,146.72003 447.19647,146.68593 447.28124,146.65633 C 461.10397,141.30246 468.2999,139.26011 480.74994,139.18748 z"
       id="RightHypothenar"
       inkscape:connector-curvature="0"
       sodipodi:nodetypes="ccccsscccccccccc"
       position="RightHypothenar"
       group="Item" />
  </g>
  <g
     inkscape:groupmode="layer"
     id="layer10"
     inkscape:label="Interdigital"
     style="display:inline"
     sodipodi:insensitive="true">
    <path
       style="fill:#9f4200;fill-opacity:1;stroke:none;display:inline"
       d="M 162.37156,139.85541 C 117.90711,139.59603 76.970041,167.23014 57.090306,183.57416 C 57.049446,183.60736 57.006166,183.63476 56.965306,183.66786 L 57.121556,183.63666 C 60.833411,192.87019 63.404356,204.42061 65.434056,216.04291 L 65.152806,216.29291 C 65.259868,216.26581 65.358489,216.22631 65.465306,216.19921 C 133.97636,200.41112 158.53772,166.9625 162.37156,139.85541 z"
       id="LeftInterdigital"
       inkscape:connector-curvature="0"
       sodipodi:nodetypes="cccccccc"
       position="LeftInterdigital"
       group="Item" />
    <path
       style="fill:#9f4200;fill-opacity:1;stroke:none;display:inline"
       d="M 480.29684,140.28216 C 524.76129,140.02278 565.69836,167.65689 585.57809,184.00091 C 585.61895,184.03411 585.66223,184.06151 585.70309,184.09461 L 585.54684,184.06341 C 581.83499,193.29694 579.26404,204.84736 577.23434,216.46966 L 577.51559,216.71966 C 577.40853,216.69256 577.30991,216.65306 577.20309,216.62596 C 508.69204,200.83787 484.13068,167.38925 480.29684,140.28216 z"
       id="RightInterdigital"
       inkscape:connector-curvature="0"
       sodipodi:nodetypes="cccccccc"
       position="RightInterdigital"
       group="Item" />
  </g>
  <g
     inkscape:groupmode="layer"
     id="layer6"
     inkscape:label="UpperPalm"
     style="display:none"
     sodipodi:insensitive="true">
    <path
       style="fill:#008080;fill-opacity:1;stroke:none;display:inline"
       d="M 134.40281,17.26166 C 124.80914,17.981988 124.83652,36.518611 124.68406,53.51166 C 124.52668,71.052872 128.38112,118.43753 128.65281,127.48041 C 128.9245,136.52329 128.14083,142.99403 122.80906,144.19916 C 117.47729,145.40429 112.66649,136.8817 110.34031,129.69916 C 108.01413,122.51662 96.305871,89.123511 87.309056,70.19916 C 78.312241,51.274809 76.707876,39.588255 65.496556,43.01166 C 54.285236,46.435065 58.106831,64.771914 64.090306,80.66791 C 70.073781,96.563906 86.154052,137.52273 87.434056,145.85541 C 88.71406,154.18809 89.017466,159.87669 84.965306,162.76166 C 80.913146,165.64663 76.772466,166.89847 68.246556,155.94916 C 59.720646,144.99985 59.712386,143.26847 51.527806,133.76166 C 43.343226,124.25485 26.987428,102.55311 17.246556,111.76166 C 7.5056834,120.97021 26.294551,135.29092 34.434056,147.13666 C 42.573561,158.9824 49.727653,165.82307 56.777806,182.76166 C 61.245978,193.49682 64.12537,207.55908 66.340306,221.26166 C 66.370886,221.33906 193.30906,181.41791 193.30906,181.41791 C 191.70597,174.76457 193.17955,161.69569 196.12156,145.63666 C 199.06357,129.57763 208.787,72.067101 210.49656,58.10541 C 212.20612,44.143719 212.64594,31.91993 205.34031,30.35541 C 198.03468,28.79089 192.35187,36.56762 188.12156,49.29291 C 183.89125,62.0182 175.66132,111.11002 172.37156,121.98041 C 169.0818,132.8508 167.74706,141.05839 161.55906,139.57416 C 155.37106,138.08993 155.03941,127.72345 154.55906,115.66791 C 154.0787,103.61236 149.36464,66.107934 148.87156,49.23041 C 148.37848,32.352886 145.9254,17.725813 135.37156,17.26166 C 135.04175,17.247155 134.71228,17.238424 134.40281,17.26166 z"
       id="LeftUpperPalm"
       inkscape:connector-curvature="0"
       sodipodi:nodetypes="sssssssssssssssccssssssssss"
       position="LeftUpperPalm"
       group="Item" />
    <path
       style="fill:#008080;fill-opacity:1;stroke:none;display:inline"
       d="M 509.12679,18.007122 C 518.72046,18.72745 518.69308,37.264072 518.84554,54.257123 C 519.00292,71.798332 515.14848,119.18299 514.87679,128.22587 C 514.6051,137.26875 515.38877,143.73949 520.72054,144.94462 C 526.05231,146.14975 530.86311,137.62716 533.18929,130.44462 C 535.51547,123.26208 547.22373,89.868972 556.22054,70.944622 C 565.21736,52.020273 566.82172,40.333716 578.03304,43.757123 C 589.24436,47.180523 585.42277,65.517372 579.43929,81.413372 C 573.45582,97.309362 557.37555,138.26819 556.09554,146.60087 C 554.81554,154.93355 554.51213,160.62215 558.56429,163.50712 C 562.61645,166.39209 566.75713,167.64393 575.28304,156.69462 C 583.80895,145.74531 583.81721,144.01393 592.00179,134.50712 C 600.18638,125.00031 616.54217,103.29857 626.28305,112.50712 C 636.02392,121.71567 617.23505,136.03638 609.09555,147.88212 C 600.95604,159.72786 593.80195,166.56853 586.75179,183.50712 C 582.28362,194.24228 579.40423,208.30454 577.18929,222.00712 C 577.15871,222.08452 450.22054,182.16337 450.22054,182.16337 C 451.82363,175.51003 450.35005,162.44115 447.40804,146.38212 C 444.46603,130.32309 434.7426,72.812562 433.03304,58.850873 C 431.32348,44.889183 430.88366,32.665391 438.18929,31.100871 C 445.49492,29.536351 451.17773,37.313081 455.40804,50.038373 C 459.63835,62.763662 467.86828,111.85548 471.15804,122.72587 C 474.4478,133.59626 475.78254,141.80385 481.97054,140.31962 C 488.15854,138.83539 488.49019,128.46891 488.97054,116.41337 C 489.4509,104.35782 494.16496,66.853392 494.65804,49.975873 C 495.15112,33.098347 497.6042,18.471275 508.15804,18.007122 C 508.48785,17.992617 508.81732,17.983886 509.12679,18.007122 z"
       id="RightUpperPalm"
       inkscape:connector-curvature="0"
       sodipodi:nodetypes="sssssssssssssssccssssssssss"
       position="RightUpperPalm"
       group="Item" />
  </g>
  <g
     inkscape:groupmode="layer"
     id="layer5"
     inkscape:label="Slap"
     style="display:none"
     sodipodi:insensitive="true">
    <path
       style="fill:#ff0000;stroke:none;display:inline"
       d="M 196.11577,145.64572 C 199.05778,129.58669 208.79444,72.065757 210.504,58.104062 C 212.21356,44.142371 212.66254,31.925822 205.35691,30.361302 C 198.05128,28.796782 192.36792,36.566532 188.13761,49.291822 C 183.9073,62.017112 175.66351,111.11585 172.37375,121.98624 C 169.08399,132.85663 167.73799,141.05104 161.54999,139.56681 C 155.36199,138.08258 155.04134,127.73722 154.56099,115.68167 C 154.08063,103.62614 149.35505,66.114637 148.86197,49.237118 C 148.36889,32.359594 145.92123,17.721316 135.36739,17.257163 C 124.81355,16.793009 124.83906,35.985259 124.68168,53.526471 C 124.5243,71.067687 128.37189,118.44452 128.64358,127.4874 C 128.91527,136.53028 128.16052,143.00688 122.82875,144.21201 C 117.49698,145.41714 112.6644,136.87903 110.33822,129.69649 C 108.01204,122.51395 96.296434,89.110277 87.299624,70.185927 C 78.302804,51.261573 76.705274,39.580027 65.493954,43.003432 C 54.282634,46.426837 58.113114,64.783457 64.096594,80.679457 C 70.080064,96.575447 86.144494,137.52687 87.424504,145.85955 C 88.704504,154.19223 89.017084,159.87393 84.964924,162.7589 C 80.912764,165.64387 76.766914,166.90455 68.241004,155.95524 C 59.715094,145.00593 59.722604,143.27648 51.538024,133.76967 C 43.353444,124.26286 26.982056,102.56555 17.241183,111.77409 C 7.5003104,120.98264 26.296264,135.28841 34.435764,147.13415 C 42.575274,158.97989 49.721724,165.82191 56.771884,182.7605 C 104.17858,148.33809 133.70839,131.45907 196.11577,145.64572 z"
       inkscape:connector-curvature="0"
       sodipodi:nodetypes="czzzzzzzzzzzzzzzzzzzzzcc"
       id="LeftFourFingers"
       position="PlainLeftFourFingers"
       group="Item" />
    <path
       style="fill:#ff0000;stroke:none;display:inline"
       d="M 447.91654,145.64102 C 444.97453,129.58199 435.23787,72.061066 433.52831,58.099376 C 431.81875,44.137686 431.36977,31.921136 438.6754,30.356616 C 445.98103,28.792096 451.66439,36.561846 455.8947,49.287136 C 460.12501,62.012426 468.3688,111.11115 471.65856,121.98154 C 474.94832,132.85193 476.29432,141.04634 482.48232,139.56211 C 488.67032,138.07788 488.99097,127.73252 489.47132,115.67697 C 489.95168,103.62144 494.67726,66.109946 495.17034,49.232426 C 495.66342,32.354906 498.11108,17.716626 508.66492,17.252476 C 519.21876,16.788316 519.19325,35.980566 519.35063,53.521786 C 519.50801,71.062996 515.66042,118.43982 515.38873,127.4827 C 515.11704,136.52558 515.87179,143.00218 521.20356,144.20731 C 526.53533,145.41244 531.36791,136.87433 533.69409,129.69179 C 536.02027,122.50925 547.73588,89.105581 556.73269,70.181236 C 565.72951,51.256886 567.32704,39.575336 578.53836,42.998746 C 589.74968,46.422146 585.9192,64.778766 579.93572,80.674766 C 573.95225,96.570751 557.88782,137.52217 556.60781,145.85485 C 555.32781,154.18753 555.01523,159.86923 559.06739,162.7542 C 563.11955,165.63917 567.2654,166.89985 575.79131,155.95054 C 584.31722,145.00123 584.30971,143.27178 592.49429,133.76497 C 600.67887,124.25816 617.05026,102.56085 626.79113,111.76939 C 636.532,120.97794 617.73605,135.28371 609.59655,147.12945 C 601.45704,158.97519 594.31059,165.81721 587.26043,182.7558 C 539.85373,148.33339 510.32392,131.45437 447.91654,145.64102 z"
       inkscape:connector-curvature="0"
       sodipodi:nodetypes="czzzzzzzzzzzzzzzzzzzzzcc"
       id="RightFourFingers"
       position="PlainRightFourFingers"
       group="Item" />
    <path
       style="fill:#ff0000;fill-opacity:1;stroke:none;display:inline"
       d="M 290.21875,162.03125 C 284.60051,161.98551 277.74841,164.59113 269.375,169.6875 C 255.97755,177.8417 224.49197,206.4891 212.0625,204.5 C 212.0625,204.5 211.70913,259.88277 211.6875,259.96875 C 226.13964,239.13491 269.117,200.76396 285.6875,189.46875 C 302.258,178.17354 305.84386,170.25714 299.0625,165 C 296.51949,163.02857 293.58969,162.05869 290.21875,162.03125 z M 353.28125,162.03125 C 349.91031,162.05869 346.98051,163.02857 344.4375,165 C 337.65614,170.25714 341.242,178.17354 357.8125,189.46875 C 374.383,200.76396 417.36036,239.13491 431.8125,259.96875 C 431.79087,259.88277 431.4375,204.5 431.4375,204.5 C 419.00803,206.4891 387.52245,177.8417 374.125,169.6875 C 365.75159,164.59113 358.89949,161.98551 353.28125,162.03125 z"
       id="PlainThumbs"
       inkscape:connector-curvature="0"
       position="PlainThumbs"
       group="Item" />
    <path
       id="PlainLeftThumb"
       sodipodi:nodetypes="czzzcc"
       inkscape:connector-curvature="0"
       d="M 212.08617,259.87458 C 226.53832,239.04074 269.50376,200.66219 286.07426,189.36698 C 302.64476,178.07177 306.22771,170.17315 299.44635,164.91601 C 292.66499,159.65887 283.15843,161.43745 269.76098,169.59165 C 256.36353,177.74585 224.89236,206.40835 212.46289,204.41925 C 212.46289,204.41925 212.1078,259.7886 212.08617,259.87458 z"
       style="fill:#00ff00;fill-opacity:1;stroke:none;display:inline"
       position="PlainLeftThumb"
       group="Item" />
    <path
       id="PlainRightThumb"
       sodipodi:nodetypes="czzzcc"
       inkscape:connector-curvature="0"
       d="M 430.67387,259.87458 C 416.22172,239.04074 373.25628,200.66218 356.68578,189.36697 C 340.11528,178.07176 336.53233,170.17314 343.31369,164.916 C 350.09505,159.65886 359.60161,161.43744 372.99906,169.59164 C 386.39651,177.74584 417.86768,206.40834 430.29715,204.41924 C 430.29715,204.41924 430.65224,259.7886 430.67387,259.87458 z"
       style="fill:#00ff00;fill-opacity:1;stroke:none;display:inline"
       position="PlainRightThumb"
       group="Item" />
  </g>
  <g
     inkscape:groupmode="layer"
     id="layer3"
     inkscape:label="Fingers"
     style="display:none"
     sodipodi:insensitive="true">
    <path
       id="LeftLittle"
       sodipodi:nodetypes="czzzzcc"
       inkscape:connector-curvature="0"
       d="M 84.964924,162.7589 C 80.912764,165.64387 76.766914,166.90455 68.241004,155.95524 C 59.715094,145.00593 59.722604,143.27648 51.538024,133.76967 C 43.353444,124.26286 26.982056,102.56555 17.241183,111.77409 C 7.5003104,120.98264 26.296264,135.28841 34.435764,147.13415 C 42.575274,158.97989 49.721724,165.82191 56.771884,182.7605 C 68.154098,174.38581 71.267448,172.3659 84.964924,162.7589 z"
       style="fill:#ffff00;stroke:none;display:inline"
       Position="Little"
       position="LeftLittle"
       group="ItemPart" />
    <path
       id="LeftRing"
       sodipodi:nodetypes="czzzzzcc"
       inkscape:connector-curvature="0"
       d="M 122.82875,144.21201 C 117.49698,145.41714 112.6644,136.87903 110.33822,129.69649 C 108.01204,122.51395 96.296434,89.110277 87.299624,70.185927 C 78.302804,51.261573 76.705274,39.580027 65.493954,43.003432 C 54.282634,46.426837 58.113114,64.783457 64.096594,80.679457 C 70.080064,96.575447 86.144494,137.52687 87.424504,145.85955 C 88.704504,154.19223 89.017084,159.87393 84.964924,162.7589 C 101.60417,153.64616 112.1648,148.64029 122.82875,144.21201 z"
       style="fill:#ffff00;stroke:none;display:inline"
       position="LeftRing"
       group="ItemPart" />
    <path
       id="LeftMiddle"
       sodipodi:nodetypes="czzzzzcc"
       inkscape:connector-curvature="0"
       d="M 161.54999,139.56681 C 155.36199,138.08258 155.04134,127.73722 154.56099,115.68167 C 154.08063,103.62614 149.35505,66.114637 148.86197,49.237118 C 148.36889,32.359594 145.92123,17.721316 135.36739,17.257163 C 124.81355,16.793009 124.83906,35.985259 124.68168,53.526471 C 124.5243,71.067687 128.37189,118.44452 128.64358,127.4874 C 128.91527,136.53028 128.16052,143.00688 122.82875,144.21201 C 138.81265,140.95745 146.5041,140.00819 161.54999,139.56681 z"
       style="fill:#ffff00;stroke:none;display:inline"
       position="LeftMiddle"
       group="ItemPart" />
    <path
       id="LeftIndex"
       sodipodi:nodetypes="czzzzcc"
       inkscape:connector-curvature="0"
       d="M 196.11577,145.64572 C 199.05778,129.58669 208.79444,72.065757 210.504,58.104062 C 212.21356,44.142371 212.66254,31.925822 205.35691,30.361302 C 198.05128,28.796782 192.36792,36.566532 188.13761,49.291822 C 183.9073,62.017112 175.66351,111.11585 172.37375,121.98624 C 169.08399,132.85663 167.73799,141.05104 161.54999,139.56681 C 176.74019,141.33819 185.34148,142.68843 196.11577,145.64572 z"
       style="fill:#ffff00;stroke:none;display:inline"
       position="LeftIndex"
       group="ItemPart" />
    <path
       id="LeftThumb"
       sodipodi:nodetypes="czzzcc"
       inkscape:connector-curvature="0"
       d="M 211.46007,259.65962 C 225.91221,238.82578 268.87765,200.44723 285.44815,189.15202 C 302.01865,177.85681 305.6016,169.95819 298.82024,164.70105 C 292.03888,159.44391 282.53232,161.22249 269.13487,169.37669 C 255.73742,177.53089 224.26626,206.19339 211.83679,204.20429 C 211.83679,204.20429 211.4817,259.57364 211.46007,259.65962 z"
       style="fill:#ffff00;fill-opacity:1;stroke:none;display:inline"
       position="LeftThumb"
       group="ItemPart" />
    <path
       id="RightLittle"
       sodipodi:nodetypes="czzzzcc"
       inkscape:connector-curvature="0"
       d="M 558.67289,163.30464 C 562.72505,166.18961 566.8709,167.45029 575.39681,156.50098 C 583.92272,145.55167 583.91521,143.82222 592.09979,134.31541 C 600.28437,124.80861 616.65576,103.1113 626.39664,112.31984 C 636.13751,121.52839 617.34155,135.83415 609.20205,147.67989 C 601.06254,159.52563 593.91609,166.36765 586.86593,183.30624 C 575.48372,174.93155 572.37037,172.91164 558.67289,163.30464 z"
       style="fill:#ffff00;stroke:none;display:inline"
       position="RightLittle"
       group="ItemPart" />
    <path
       id="RightRing"
       sodipodi:nodetypes="czzzzzcc"
       inkscape:connector-curvature="0"
       d="M 520.80906,144.75775 C 526.14083,145.96288 530.97342,137.42477 533.2996,130.24223 C 535.62578,123.0597 547.34138,89.656025 556.33819,70.731675 C 565.33501,51.807321 566.93254,40.125775 578.14386,43.54918 C 589.35518,46.972585 585.5247,65.329205 579.54122,81.225205 C 573.55775,97.121195 557.49332,138.07261 556.21331,146.40529 C 554.93331,154.73797 554.62073,160.41967 558.67289,163.30464 C 542.03365,154.1919 531.47302,149.18603 520.80906,144.75775 z"
       style="fill:#ffff00;stroke:none;display:inline"
       position="RightRing"
       group="ItemPart" />
    <path
       id="RightMiddle"
       sodipodi:nodetypes="czzzzzcc"
       inkscape:connector-curvature="0"
       d="M 482.08782,140.11255 C 488.27582,138.62832 488.59647,128.28296 489.07682,116.22742 C 489.55718,104.17189 494.28276,66.660385 494.77584,49.782866 C 495.26892,32.905342 497.71658,18.267064 508.27042,17.802911 C 518.82426,17.338757 518.79875,36.531007 518.95613,54.072219 C 519.11351,71.613435 515.26592,118.99027 514.99423,128.03314 C 514.72254,137.07602 515.47729,143.55262 520.80906,144.75775 C 504.82516,141.50319 497.13371,140.55393 482.08782,140.11255 z"
       style="fill:#ffff00;stroke:none;display:inline"
       position="RightMiddle"
       group="ItemPart" />
    <path
       id="RightIndex"
       sodipodi:nodetypes="czzzzcc"
       inkscape:connector-curvature="0"
       d="M 447.52204,146.19146 C 444.58003,130.13243 434.84337,72.611505 433.13381,58.64981 C 431.42425,44.688119 430.97527,32.47157 438.2809,30.90705 C 445.58653,29.34253 451.26989,37.11228 455.5002,49.83757 C 459.73051,62.56286 467.9743,111.6616 471.26406,122.53199 C 474.55382,133.40237 475.89982,141.59678 482.08782,140.11255 C 466.89762,141.88393 458.29633,143.23417 447.52204,146.19146 z"
       style="fill:#ffff00;stroke:none;display:inline"
       position="RightIndex"
       group="ItemPart" />
    <path
       id="RightThumb"
       sodipodi:nodetypes="czzzcc"
       inkscape:connector-curvature="0"
       d="M 431.47063,260.20536 C 417.01849,239.37152 374.05305,200.99297 357.48255,189.69776 C 340.91205,178.40255 337.3291,170.50393 344.11046,165.24679 C 350.89182,159.98965 360.39838,161.76823 373.79583,169.92243 C 387.19328,178.07663 418.66444,206.73913 431.09391,204.75003 C 431.09391,204.75003 431.449,260.11938 431.47063,260.20536 z"
       style="fill:#ffff00;fill-opacity:1;stroke:none;display:inline"
       position="RightThumb"
       group="ItemPart" />
  </g>
  <g
     inkscape:label="Fingerprints"
     inkscape:groupmode="layer"
     id="layer1"
     style="display:none"
     sodipodi:insensitive="true">
    <path
       id="LeftThumbFingerprint"
       sodipodi:nodetypes="czzzc"
       inkscape:connector-curvature="0"
       d="M 286.15724,189.15237 C 302.72774,177.85716 306.31069,169.95854 299.52933,164.7014 C 292.74797,159.44426 283.24141,161.22284 269.84396,169.37704 C 256.44651,177.53124 259.76105,185.53287 262.75046,189.70895 C 265.73987,193.88503 272.85721,194.09712 286.15724,189.15237 z"
       style="fill:#ffff00;fill-opacity:1;stroke:none"
       position="LeftThumb"
       group="Item" />
    <path
       style="fill:#0000ff;fill-opacity:1;stroke:none"
       d="M 203.34031,30.16791 C 197.62311,30.28806 192.97697,36.378616 189.30906,46.01166 C 187.59682,52.202722 188.24321,63.522482 195.87156,65.38666 C 203.49991,67.250838 208.54147,60.917611 211.21531,51.35541 C 212.14453,40.392887 211.46697,31.660759 205.37156,30.35541 C 204.68666,30.208736 203.99684,30.154113 203.34031,30.16791 z"
       id="LeftIndexFingerprint"
       inkscape:connector-curvature="0"
       sodipodi:nodetypes="sczcss"
       position="LeftIndex"
       group="Item" />
    <path
       style="fill:#00ffff;fill-opacity:1;stroke:none"
       d="M 22.246556,109.54291 C 20.457312,109.63707 18.768567,110.32283 17.246556,111.76166 C 11.590875,117.10827 15.552147,124.17633 21.465306,131.48041 C 25.736479,136.75627 34.024382,136.61527 36.809056,134.13666 C 39.59373,131.65805 43.720748,125.1177 37.090306,117.66791 C 32.080227,112.93667 26.823991,109.30202 22.246556,109.54291 z"
       id="LeftLittleFingerprint"
       inkscape:connector-curvature="0"
       sodipodi:nodetypes="ssszcs"
       position="LeftLittle"
       group="Item" />
    <path
       style="fill:#ff00ff;fill-opacity:1;stroke:none"
       d="M 134.40281,17.26166 C 127.81713,17.756137 125.75013,26.674371 125.05906,37.69916 C 126.06344,49.314077 132.09123,52.741721 136.80906,52.41791 C 141.52689,52.094099 147.47054,49.039364 147.87156,36.04291 C 146.39327,25.382952 143.00965,17.597579 135.37156,17.26166 C 135.04175,17.247155 134.71228,17.238424 134.40281,17.26166 z"
       id="LeftMiddleFingerprint"
       inkscape:connector-curvature="0"
       sodipodi:nodetypes="sczcss"
       position="LeftMiddle"
       group="Item" />
    <path
       style="fill:#8000ff;fill-opacity:1;stroke:none"
       d="M 68.402806,42.41791 C 67.506719,42.47982 66.547617,42.690716 65.496556,43.01166 C 58.022787,45.293794 57.232148,54.203695 59.309056,64.60541 C 62.949236,74.53878 71.593046,77.266383 75.526282,75.867527 C 79.459518,74.468671 84.498641,70.109677 81.996556,58.19916 C 77.660247,48.070408 74.819576,41.974611 68.402806,42.41791 z"
       id="LeftRingFingerprint"
       inkscape:connector-curvature="0"
       sodipodi:nodetypes="ssczcs"
       position="LeftRing"
       group="Item" />
    <path
       id="RightThumbFingerprint"
       sodipodi:nodetypes="czzzc"
       inkscape:connector-curvature="0"
       d="M 357.12529,189.65218 C 340.55479,178.35697 336.97184,170.45835 343.7532,165.20121 C 350.53456,159.94407 360.04112,161.72265 373.43857,169.87685 C 386.83602,178.03105 383.52148,186.03268 380.53207,190.20876 C 377.54266,194.38484 370.42532,194.59693 357.12529,189.65218 z"
       style="fill:#ffff00;fill-opacity:1;stroke:none;display:inline"
       position="RightThumb"
       group="Item" />
    <path
       style="fill:#0000ff;fill-opacity:1;stroke:none;display:inline"
       d="M 439.94222,30.667712 C 445.65942,30.787862 450.30556,36.878418 453.97347,46.511462 C 455.68571,52.702524 455.03932,64.022284 447.41097,65.886462 C 439.78262,67.75064 434.74106,61.417413 432.06722,51.855212 C 431.138,40.892689 431.81556,32.160561 437.91097,30.855212 C 438.59587,30.708538 439.28569,30.653915 439.94222,30.667712 z"
       id="RightIndexFingerprint"
       inkscape:connector-curvature="0"
       sodipodi:nodetypes="sczcss"
       position="RightIndex"
       group="Item" />
    <path
       style="fill:#00ffff;fill-opacity:1;stroke:none;display:inline"
       d="M 621.03598,110.04271 C 622.82522,110.13687 624.51397,110.82263 626.03598,112.26146 C 631.69166,117.60807 627.73039,124.67614 621.81723,131.98022 C 617.54605,137.25608 609.25815,137.11508 606.47348,134.63647 C 603.6888,132.15786 599.56178,125.61751 606.19223,118.16772 C 611.2023,113.43647 616.45854,109.80182 621.03598,110.04271 z"
       id="RightLittleFingerprint"
       inkscape:connector-curvature="0"
       sodipodi:nodetypes="ssszcs"
       position="RightLittle"
       group="Item" />
    <path
       style="fill:#ff00ff;fill-opacity:1;stroke:none;display:inline"
       d="M 508.87972,17.761462 C 515.4654,18.255939 517.5324,27.174173 518.22347,38.198962 C 517.21909,49.813879 511.1913,53.241523 506.47347,52.917712 C 501.75564,52.593901 495.81199,49.539166 495.41097,36.542712 C 496.88926,25.882754 500.27288,18.097381 507.91097,17.761462 C 508.24078,17.746957 508.57025,17.738226 508.87972,17.761462 z"
       id="RightMiddleFingerprint"
       inkscape:connector-curvature="0"
       sodipodi:nodetypes="sczcss"
       position="RightMiddle"
       group="Item" />
    <path
       style="fill:#8000ff;fill-opacity:1;stroke:none;display:inline"
       d="M 574.87973,42.917712 C 575.77582,42.979622 576.73492,43.190518 577.78598,43.511462 C 585.25975,45.793596 586.05039,54.703497 583.97348,65.105212 C 580.3333,75.038582 571.68949,77.766185 567.75625,76.367329 C 563.82302,74.968473 558.7839,70.609479 561.28598,58.698962 C 565.62229,48.57021 568.46296,42.474413 574.87973,42.917712 z"
       id="RightRingFingerprint"
       inkscape:connector-curvature="0"
       sodipodi:nodetypes="ssczcs"
       position="RightRing"
       group="Item" />
  </g>
  <g
     inkscape:groupmode="layer"
     id="layer14"
     inkscape:label="Fingernails"
     style="display:none"
     sodipodi:insensitive="true">
    <path
       style="fill:none;stroke:#000000;stroke-width:1.30524206;stroke-linecap:round;stroke-linejoin:miter;stroke-miterlimit:4;stroke-opacity:1"
       d="M 77.992606,53.774793 C 79.306043,59.855678 78.324268,63.53654 73.192905,65.276574 C 67.081848,67.34882 62.244217,65.39498 60.396594,57.616722 C 58.958722,51.563463 61.957408,45.746259 66.816412,44.68534 C 71.675417,43.624421 76.679169,47.693908 77.992606,53.774793 z"
       id="path3896"
       inkscape:connector-curvature="0"
       sodipodi:nodetypes="sssss"
       group="Fingernails" />
    <path
       style="fill:none;stroke:#000000;stroke-width:1.29779637;stroke-linecap:round;stroke-linejoin:miter;stroke-miterlimit:4;stroke-opacity:1;display:inline"
       d="M 144.7121,32.183641 C 144.31648,38.607485 142.4558,40.369362 136.83638,41.027001 C 132.13981,41.576642 127.06326,39.274924 127.54225,30.984555 C 127.91355,24.558413 131.00451,19.255697 135.74583,19.586815 C 140.48714,19.917933 145.10773,25.7598 144.7121,32.183641 z"
       id="path3896-8"
       inkscape:connector-curvature="0"
       sodipodi:nodetypes="sssss"
       group="Fingernails" />
    <path
       style="fill:none;stroke:#000000;stroke-width:1.08709085;stroke-linecap:round;stroke-linejoin:miter;stroke-miterlimit:4;stroke-opacity:1;display:inline"
       d="M 30.284145,115.20606 C 33.827385,118.98416 34.693613,122.02305 31.744663,125.43473 C 28.232684,129.49779 23.916846,130.15248 19.263999,125.39073 C 15.64302,121.68496 15.315333,116.26993 18.358462,113.45752 C 21.40159,110.64511 26.740901,111.42797 30.284145,115.2061 z"
       id="path3896-7"
       inkscape:connector-curvature="0"
       sodipodi:nodetypes="sssss"
       group="Fingernails" />
    <path
       style="fill:none;stroke:#000000;stroke-width:1.29779637;stroke-linecap:round;stroke-linejoin:miter;stroke-miterlimit:4;stroke-opacity:1;display:inline"
       d="M 208.76759,48.602997 C 206.72484,54.706233 200.32743,54.682233 197.67306,53.720903 C 193.22705,52.110692 191.14591,47.050698 193.19296,41.219975 C 195.32521,35.146536 201.29393,30.711847 205.55521,32.816901 C 209.81647,34.921951 210.85045,42.37994 208.76759,48.602997 z"
       id="path3896-8-6"
       inkscape:connector-curvature="0"
       sodipodi:nodetypes="sssss"
       group="Fingernails" />
    <path
       style="fill:none;stroke:#000000;stroke-width:1.14057875;stroke-linecap:round;stroke-linejoin:miter;stroke-miterlimit:4;stroke-opacity:1;display:inline"
       d="M 293.24548,182.8977 C 292.3004,183.62922 279.67753,174.67355 282.09293,172.59428 C 284.5143,170.17446 291.24761,165.85082 293.3952,165.71314 C 296.77718,165.49635 301.33324,168.99131 301.46678,172.54274 C 301.9433,175.90029 293.24548,182.8977 293.24548,182.8977 z"
       id="path3896-8-6-0"
       inkscape:connector-curvature="0"
       sodipodi:nodetypes="ccscc"
       group="Fingernails" />
    <path
       style="fill:none;stroke:#000000;stroke-width:1.30524206;stroke-linecap:round;stroke-linejoin:miter;stroke-miterlimit:4;stroke-opacity:1;display:inline"
       d="M 564.06334,53.774423 C 562.74991,59.855313 563.73168,63.536173 568.86304,65.276213 C 574.9741,67.348453 579.81173,65.394613 581.65935,57.616353 C 583.09723,51.563093 580.09854,45.745893 575.23954,44.684973 C 570.38053,43.624053 565.37678,47.693543 564.06334,53.774423 z"
       id="path3896-3"
       inkscape:connector-curvature="0"
       sodipodi:nodetypes="sssss"
       group="Fingernails" />
    <path
       style="fill:none;stroke:#000000;stroke-width:1.29779637;stroke-linecap:round;stroke-linejoin:miter;stroke-miterlimit:4;stroke-opacity:1;display:inline"
       d="M 497.34385,32.183273 C 497.73947,38.607123 499.60015,40.368993 505.21957,41.026633 C 509.91614,41.576273 514.99269,39.274563 514.5137,30.984193 C 514.1424,24.558043 511.05144,19.255333 506.31012,19.586453 C 501.56881,19.917563 496.94822,25.759433 497.34385,32.183273 z"
       id="path3896-8-5"
       inkscape:connector-curvature="0"
       sodipodi:nodetypes="sssss"
       group="Fingernails" />
    <path
       style="fill:none;stroke:#000000;stroke-width:1.08709085;stroke-linecap:round;stroke-linejoin:miter;stroke-miterlimit:4;stroke-opacity:1;display:inline"
       d="M 611.7718,115.20569 C 608.22856,118.9838 607.36234,122.02269 610.31129,125.43437 C 613.82326,129.49743 618.1391,130.15212 622.79195,125.39037 C 626.41293,121.6846 626.74062,116.26956 623.69749,113.45715 C 620.65436,110.64474 615.31505,111.4276 611.7718,115.20573 z"
       id="path3896-7-9"
       inkscape:connector-curvature="0"
       sodipodi:nodetypes="sssss"
       group="Fingernails" />
    <path
       style="fill:none;stroke:#000000;stroke-width:1.29779637;stroke-linecap:round;stroke-linejoin:miter;stroke-miterlimit:4;stroke-opacity:1;display:inline"
       d="M 433.28836,48.602633 C 435.33111,54.705863 441.72852,54.681863 444.38289,53.720533 C 448.8289,52.110323 450.91004,47.050333 448.86299,41.219613 C 446.73074,35.146173 440.76202,30.711483 436.50074,32.816533 C 432.23948,34.921583 431.2055,42.379573 433.28836,48.602633 z"
       id="path3896-8-6-8"
       inkscape:connector-curvature="0"
       sodipodi:nodetypes="sssss"
       group="Fingernails" />
    <path
       style="fill:none;stroke:#000000;stroke-width:1.14057875;stroke-linecap:round;stroke-linejoin:miter;stroke-miterlimit:4;stroke-opacity:1;display:inline"
       d="M 348.81047,182.89734 C 349.75555,183.62886 362.37842,174.67319 359.96302,172.59392 C 357.54165,170.1741 350.80834,165.85046 348.66075,165.71278 C 345.27877,165.49599 340.72271,168.99095 340.58917,172.54238 C 340.11265,175.89993 348.81047,182.89734 348.81047,182.89734 z"
       id="path3896-8-6-0-4"
       inkscape:connector-curvature="0"
       sodipodi:nodetypes="ccscc"
       group="Fingernails" />
  </g>
  <g
     inkscape:groupmode="layer"
     id="layer2"
     inkscape:label="Outline"
     style="display:inline"
     sodipodi:insensitive="true">
    <path
       style="fill:none;stroke:#000000;stroke-width:1.32247794;stroke-miterlimit:4;stroke-opacity:1;stroke-dasharray:none;display:inline"
       d="M 212.16718,259.65962 C 226.61932,238.82578 269.58476,200.44723 286.15526,189.15202 C 302.72576,177.85681 306.30871,169.95819 299.52735,164.70105 C 292.74599,159.44391 283.23943,161.22249 269.84198,169.37669 C 256.44453,177.53089 224.97337,206.19339 212.5439,204.20429 C 200.11443,202.21519 194.90628,188.07171 193.30319,181.41837 C 191.7001,174.76503 193.16818,161.70277 196.11019,145.64374 C 199.0522,129.58471 208.78886,72.063767 210.49842,58.102076 C 212.20798,44.140385 212.65696,31.923836 205.35133,30.359316 C 198.0457,28.794796 192.36234,36.564546 188.13203,49.289836 C 183.90172,62.015126 175.65793,111.11387 172.36817,121.98426 C 169.07841,132.85465 167.73241,141.04906 161.54441,139.56483 C 155.35641,138.0806 155.03576,127.73524 154.55541,115.6797 C 154.07505,103.62415 149.34947,66.112656 148.85639,49.235132 C 148.36331,32.357608 145.91565,17.719329 135.36181,17.255176 C 124.80797,16.791024 124.83348,35.983273 124.6761,53.524485 C 124.51872,71.065697 128.36631,118.44254 128.638,127.48542 C 128.90969,136.5283 128.15494,143.0049 122.82317,144.21003 C 117.4914,145.41516 112.65882,136.87705 110.33264,129.69451 C 108.00646,122.51197 96.290854,89.108289 87.294039,70.183938 C 78.297224,51.259587 76.699689,39.578041 65.488369,43.001446 C 54.277049,46.424851 58.107534,64.781472 64.091009,80.677468 C 70.074484,96.573464 86.138915,137.52489 87.418919,145.85757 C 88.698923,154.19025 89.0115,159.87195 84.95934,162.75692 C 80.90718,165.64189 76.761329,166.90257 68.235419,155.95326 C 59.709509,145.00395 59.717023,143.2745 51.532443,133.76769 C 43.347863,124.26088 26.976475,102.56357 17.235603,111.77211 C 7.4947304,120.98066 26.290683,135.28643 34.430188,147.13217 C 42.569693,158.97791 49.716147,165.81993 56.7663,182.75852 C 63.816453,199.69711 66.909401,224.92291 69.681565,243.94074 C 72.453729,262.95857 89.643839,294.55331 125.24492,294.26496 C 160.846,293.97661 189.47546,296.35417 212.16718,259.65962 z"
       inkscape:connector-curvature="0"
       sodipodi:nodetypes="czzzzzzzzzzzzzzzzzzzzzzzzzzzzzzc"
       id="path7" />
    <path
       style="fill:none;stroke:#000000;stroke-width:1.32247794;stroke-miterlimit:4;stroke-opacity:1;stroke-dasharray:none;display:inline"
       d="M 431.26261,259.73146 C 416.81047,238.89762 373.84503,200.51907 357.27453,189.22386 C 340.70403,177.92865 337.12108,170.03003 343.90244,164.77289 C 350.6838,159.51575 360.19036,161.29433 373.58781,169.44853 C 386.98526,177.60273 418.45642,206.26523 430.88589,204.27613 C 443.31536,202.28703 448.52351,188.14355 450.1266,181.49021 C 451.72969,174.83687 450.26161,161.77461 447.3196,145.71558 C 444.37759,129.65655 434.64093,72.13561 432.93137,58.17392 C 431.22181,44.21222 430.77283,31.99568 438.07846,30.43116 C 445.38409,28.86664 451.06745,36.63639 455.29776,49.36168 C 459.52807,62.08697 467.77186,111.18571 471.06162,122.0561 C 474.35138,132.92649 475.69738,141.1209 481.88538,139.63667 C 488.07338,138.15244 488.39403,127.80708 488.87438,115.75154 C 489.35474,103.69599 494.08032,66.1845 494.5734,49.30697 C 495.06648,32.42945 497.51414,17.79117 508.06798,17.32702 C 518.62182,16.86286 518.59631,36.05511 518.75369,53.59632 C 518.91107,71.13754 515.06348,118.51438 514.79179,127.55726 C 514.5201,136.60014 515.27485,143.07674 520.60662,144.28187 C 525.93839,145.487 530.77097,136.94889 533.09715,129.76635 C 535.42333,122.58381 547.13893,89.18013 556.13575,70.25578 C 565.13256,51.33143 566.7301,39.64988 577.94142,43.07329 C 589.15274,46.49669 585.32225,64.85331 579.33878,80.74931 C 573.3553,96.6453 557.29087,137.59673 556.01087,145.92941 C 554.73086,154.26209 554.41829,159.94379 558.47045,162.82876 C 562.52261,165.71373 566.66846,166.97441 575.19437,156.0251 C 583.72028,145.07579 583.71276,143.34634 591.89734,133.83953 C 600.08192,124.33272 616.45331,102.63541 626.19418,111.84395 C 635.93506,121.0525 617.1391,135.35827 608.9996,147.20401 C 600.86009,159.04975 593.71364,165.89177 586.66349,182.83036 C 579.61333,199.76895 576.52039,224.99475 573.74822,244.01258 C 570.97606,263.03041 553.78595,294.62515 518.18487,294.3368 C 482.58379,294.04845 453.95433,296.42601 431.26261,259.73146 z"
       inkscape:connector-curvature="0"
       sodipodi:nodetypes="czzzzzzzzzzzzzzzzzzzzzzzzzzzzzzc"
       id="path7-3" />
  </g>
  <g
     inkscape:groupmode="layer"
     id="layer12"
     inkscape:label="Rotate"
     style="display:none"
     sodipodi:insensitive="true">
    <path
       id="LeftMiddleRotate"
       d="M 137.63627,1.6238121 L 137.51746,4.9429271 L 137.23785,7.8183561 L 136.63648,8.1083061 L 134.76246,8.2021041 L 132.56674,8.2021041 L 129.84661,8.6969981 L 126.93065,9.4734441 L 124.57413,10.497334 L 121.93787,12.007563 L 119.65827,13.662853 L 117.14091,16.444403 L 115.46265,19.123563 L 114.02218,22.784003 L 113.62358,26.342013 L 113.74239,29.516093 L 114.38573,32.775453 L 115.78426,36.973413 L 117.02195,39.217463 L 119.14075,38.142343 L 122.21751,36.341993 L 122.33632,35.659433 L 121.49718,33.654303 L 120.57414,30.539963 L 120.25949,27.314703 L 120.37829,25.420503 L 121.01465,22.690113 L 121.89572,20.932463 L 123.13342,19.277153 L 125.41302,17.323253 L 128.56673,15.369303 L 131.168,14.592863 L 135.04195,14.302913 L 137.07684,14.592863 L 137.27965,15.616773 L 137.60131,20.488763 L 149.74759,11.273784 L 148.30711,9.9597941 L 144.18841,6.7942711 L 140.1956,3.6713761 L 137.63627,1.6236041 z M 155.25782,19.567503 L 153.69846,20.105023 L 151.26501,21.273983 L 149.66367,22.195503 L 150.10421,23.560683 L 151.02725,26.342233 L 151.54471,28.782543 L 151.70552,31.564063 L 151.50271,33.654533 L 150.90134,35.608443 L 149.58669,38.193753 L 148.23013,39.601633 L 146.02742,41.410473 L 143.75481,42.579433 L 140.79691,43.509493 L 138.23758,43.509493 L 135.95798,43.313303 L 134.55942,43.014683 L 134.08393,42.528333 L 133.96512,42.042003 L 133.68551,37.511283 L 121.5742,46.623913 L 122.21751,47.357683 L 130.68567,53.936173 L 133.76244,56.376423 L 133.88124,55.258683 L 134.11885,49.695543 L 137.95785,49.652803 L 140.51715,49.652803 L 143.51003,49.260323 L 146.86652,47.988983 L 148.86642,47.016293 L 151.74041,45.019713 L 154.29974,42.485543 L 155.81716,40.241563 L 157.0968,37.707413 L 158.0548,34.439503 L 158.2996,32.681813 L 158.37641,30.198863 L 158.05474,27.758603 L 157.6142,25.608473 L 156.90095,23.176733 L 155.97791,20.685253 L 155.25767,19.567503 z"
       inkscape:connector-curvature="0"
       style="fill:#00ff00;fill-opacity:1;stroke:#000000;stroke-width:0.2471769;stroke-opacity:1;display:inline"
       group="Rotation"
       position="LeftMiddle" />
    <path
       id="LeftLittleRotate"
       d="M 26.601273,92.428688 L 26.482467,95.747803 L 26.202858,98.623232 L 25.601487,98.913182 L 23.727468,99.00698 L 21.531751,99.00698 L 18.811612,99.501874 L 15.895656,100.27832 L 13.539132,101.30221 L 10.902877,102.81244 L 8.6232751,104.46773 L 6.1059156,107.24928 L 4.4276545,109.92844 L 2.9871829,113.58888 L 2.5885885,117.14689 L 2.7073928,120.32097 L 3.3507368,123.58033 L 4.7492678,127.77829 L 5.9869616,130.02234 L 8.1057571,128.94722 L 11.182516,127.14687 L 11.301322,126.46431 L 10.462191,124.45918 L 9.539148,121.34484 L 9.224497,118.11958 L 9.343301,116.22538 L 9.979654,113.49499 L 10.860726,111.73734 L 12.098424,110.08203 L 14.378022,108.12813 L 17.531736,106.17418 L 20.133009,105.39774 L 24.006959,105.10779 L 26.041844,105.39774 L 26.244652,106.42165 L 26.56632,111.29364 L 38.712591,102.07866 L 37.272116,100.76467 L 33.153419,97.599147 L 29.160605,94.476252 L 26.601273,92.42848 z M 44.222829,110.37238 L 42.663463,110.9099 L 40.230013,112.07886 L 38.62868,113.00038 L 39.069215,114.36556 L 39.992258,117.14711 L 40.509715,119.58742 L 40.670523,122.36894 L 40.467712,124.45941 L 39.866343,126.41332 L 38.551696,128.99863 L 37.195135,130.40651 L 34.992427,132.21535 L 32.719815,133.38431 L 29.761919,134.31437 L 27.202586,134.31437 L 24.922982,134.11818 L 23.524423,133.81956 L 23.048939,133.33321 L 22.930131,132.84688 L 22.65052,128.31616 L 10.539204,137.42879 L 11.182516,138.16256 L 19.650681,144.74105 L 22.727444,147.1813 L 22.846248,146.06356 L 23.083858,140.50042 L 26.922853,140.45768 L 29.482159,140.45768 L 32.475033,140.0652 L 35.831527,138.79386 L 37.83143,137.82117 L 40.705414,135.82459 L 43.264745,133.29042 L 44.78217,131.04644 L 46.061806,128.51229 L 47.019803,125.24438 L 47.264609,123.48669 L 47.341412,121.00374 L 47.019742,118.56348 L 46.579203,116.41335 L 45.865959,113.98161 L 44.942914,111.49013 L 44.222679,110.37238 z"
       inkscape:connector-curvature="0"
       style="fill:#00ff00;fill-opacity:1;stroke:#000000;stroke-width:0.2471769;stroke-opacity:1"
       position="LeftLittle"
       group="Rotation" />
    <path
       id="LeftRingRotate"
       d="M 70.636267,28.623814 L 70.517467,31.942924 L 70.237857,34.818354 L 69.636487,35.108304 L 67.762467,35.202104 L 65.566747,35.202104 L 62.846607,35.696994 L 59.930657,36.473444 L 57.574127,37.497334 L 54.937877,39.007564 L 52.658267,40.662854 L 50.140917,43.444404 L 48.462647,46.123564 L 47.022177,49.784004 L 46.623587,53.342014 L 46.742387,56.516094 L 47.385737,59.775454 L 48.784267,63.973414 L 50.021957,66.217464 L 52.140757,65.142344 L 55.217517,63.341994 L 55.336317,62.659434 L 54.497187,60.654304 L 53.574147,57.539964 L 53.259497,54.314704 L 53.378297,52.420504 L 54.014647,49.690114 L 54.895727,47.932464 L 56.133417,46.277154 L 58.413017,44.323254 L 61.566737,42.369304 L 64.168007,41.592864 L 68.041957,41.302914 L 70.076837,41.592864 L 70.279647,42.616774 L 70.601317,47.488764 L 82.747587,38.273784 L 81.307117,36.959794 L 77.188417,33.794274 L 73.195597,30.671374 L 70.636267,28.623604 z M 88.257827,46.567504 L 86.698457,47.105024 L 84.265007,48.273984 L 82.663677,49.195504 L 83.104207,50.560684 L 84.027257,53.342234 L 84.544707,55.782544 L 84.705517,58.564064 L 84.502707,60.654534 L 83.901337,62.608444 L 82.586697,65.193754 L 81.230127,66.601634 L 79.027427,68.410474 L 76.754807,69.579434 L 73.796917,70.509494 L 71.237587,70.509494 L 68.957977,70.313304 L 67.559417,70.014684 L 67.083937,69.528334 L 66.965127,69.042004 L 66.685517,64.511284 L 54.574197,73.623914 L 55.217517,74.357684 L 63.685677,80.936174 L 66.762437,83.376424 L 66.881247,82.258684 L 67.118857,76.695544 L 70.957847,76.652804 L 73.517157,76.652804 L 76.510027,76.260324 L 79.866527,74.988984 L 81.866427,74.016294 L 84.740407,72.019714 L 87.299737,69.485544 L 88.817167,67.241564 L 90.096807,64.707414 L 91.054797,61.439504 L 91.299607,59.681814 L 91.376407,57.198864 L 91.054737,54.758604 L 90.614197,52.608474 L 89.900957,50.176734 L 88.977907,47.685254 L 88.257677,46.567504 z"
       inkscape:connector-curvature="0"
       style="fill:#00ff00;fill-opacity:1;stroke:#000000;stroke-width:0.2471769;stroke-opacity:1;display:inline"
       position="LeftRing"
       group="Rotation" />
    <path
       id="LeftIndexRotate"
       d="M 204.13626,15.123811 L 204.01746,18.442926 L 203.73785,21.318355 L 203.13648,21.608305 L 201.26246,21.702103 L 199.06674,21.702103 L 196.3466,22.196997 L 193.43064,22.973443 L 191.07412,23.997333 L 188.43787,25.507562 L 186.15826,27.162852 L 183.6409,29.944402 L 181.96264,32.623562 L 180.52217,36.284002 L 180.12358,39.842012 L 180.24238,43.016092 L 180.88573,46.275452 L 182.28426,50.473412 L 183.52195,52.717462 L 185.64075,51.642342 L 188.7175,49.841992 L 188.83631,49.159432 L 187.99718,47.154302 L 187.07414,44.039962 L 186.75949,40.814702 L 186.87829,38.920502 L 187.51464,36.190112 L 188.39571,34.432462 L 189.63341,32.777152 L 191.91301,30.823252 L 195.06672,28.869302 L 197.668,28.092862 L 201.54195,27.802912 L 203.57683,28.092862 L 203.77964,29.116772 L 204.10131,33.988762 L 216.24758,24.773783 L 214.8071,23.459793 L 210.68841,20.29427 L 206.69559,17.171375 L 204.13626,15.123603 z M 221.75782,33.067502 L 220.19845,33.605022 L 217.765,34.773982 L 216.16367,35.695502 L 216.6042,37.060682 L 217.52725,39.842232 L 218.0447,42.282542 L 218.20551,45.064062 L 218.0027,47.154532 L 217.40133,49.108442 L 216.08668,51.693752 L 214.73012,53.101632 L 212.52742,54.910472 L 210.2548,56.079432 L 207.29691,57.009492 L 204.73757,57.009492 L 202.45797,56.813302 L 201.05941,56.514682 L 200.58393,56.028332 L 200.46512,55.542002 L 200.18551,51.011282 L 188.07419,60.123912 L 188.7175,60.857682 L 197.18567,67.436172 L 200.26243,69.876422 L 200.38124,68.758682 L 200.61885,63.195542 L 204.45784,63.152802 L 207.01715,63.152802 L 210.01002,62.760322 L 213.36652,61.488982 L 215.36642,60.516292 L 218.2404,58.519712 L 220.79973,55.985542 L 222.31716,53.741562 L 223.59679,51.207412 L 224.55479,47.939502 L 224.7996,46.181812 L 224.8764,43.698862 L 224.55473,41.258602 L 224.11419,39.108472 L 223.40095,36.676732 L 222.4779,34.185252 L 221.75767,33.067502 z"
       inkscape:connector-curvature="0"
       style="fill:#00ff00;fill-opacity:1;stroke:#000000;stroke-width:0.2471769;stroke-opacity:1;display:inline"
       group="Rotation"
       position="LeftIndex" />
    <path
       id="LeftThumbRotate"
       d="M 291.63626,145.62381 L 291.51745,148.94292 L 291.23784,151.81835 L 290.63647,152.1083 L 288.76245,152.2021 L 286.56674,152.2021 L 283.8466,152.69699 L 280.93064,153.47344 L 278.57412,154.49733 L 275.93786,156.00756 L 273.65826,157.66285 L 271.1409,160.4444 L 269.46264,163.12356 L 268.02217,166.784 L 267.62357,170.34201 L 267.74238,173.51609 L 268.38572,176.77545 L 269.78425,180.97341 L 271.02195,183.21746 L 273.14074,182.14234 L 276.2175,180.34199 L 276.33631,179.65943 L 275.49718,177.6543 L 274.57413,174.53996 L 274.25948,171.3147 L 274.37829,169.4205 L 275.01464,166.69011 L 275.89571,164.93246 L 277.13341,163.27715 L 279.41301,161.32325 L 282.56672,159.3693 L 285.16799,158.59286 L 289.04194,158.30291 L 291.07683,158.59286 L 291.27964,159.61677 L 291.60131,164.48876 L 303.74758,155.27378 L 302.3071,153.95979 L 298.1884,150.79426 L 294.19559,147.67137 L 291.63626,145.6236 z M 309.25781,163.5675 L 307.69845,164.10502 L 305.265,165.27398 L 303.66367,166.1955 L 304.1042,167.56068 L 305.02724,170.34223 L 305.5447,172.78254 L 305.70551,175.56406 L 305.5027,177.65453 L 304.90133,179.60844 L 303.58668,182.19375 L 302.23012,183.60163 L 300.02741,185.41047 L 297.7548,186.57943 L 294.7969,187.50949 L 292.23757,187.50949 L 289.95797,187.3133 L 288.55941,187.01468 L 288.08392,186.52833 L 287.96512,186.042 L 287.68551,181.51128 L 275.57419,190.62391 L 276.2175,191.35768 L 284.68567,197.93617 L 287.76243,200.37642 L 287.88123,199.25868 L 288.11884,193.69554 L 291.95784,193.6528 L 294.51714,193.6528 L 297.51002,193.26032 L 300.86651,191.98898 L 302.86642,191.01629 L 305.7404,189.01971 L 308.29973,186.48554 L 309.81716,184.24156 L 311.09679,181.70741 L 312.05479,178.4395 L 312.29959,176.68181 L 312.3764,174.19886 L 312.05473,171.7586 L 311.61419,169.60847 L 310.90094,167.17673 L 309.9779,164.68525 L 309.25766,163.5675 z"
       inkscape:connector-curvature="0"
       style="fill:#00ff00;fill-opacity:1;stroke:#000000;stroke-width:0.2471769;stroke-opacity:1;display:inline"
       group="Rotation"
       position="LeftThumb" />
    <path
       id="RightThumbRotate"
       d="M 353.13625,144.6238 L 353.01745,147.94292 L 352.73784,150.81835 L 352.13647,151.1083 L 350.26245,151.2021 L 348.06673,151.2021 L 345.34659,151.69699 L 342.43064,152.47344 L 340.07411,153.49733 L 337.43786,155.00756 L 335.15825,156.66285 L 332.6409,159.4444 L 330.96263,162.12356 L 329.52216,165.784 L 329.12357,169.34201 L 329.24237,172.51609 L 329.88572,175.77545 L 331.28425,179.97341 L 332.52194,182.21746 L 334.64074,181.14234 L 337.7175,179.34199 L 337.8363,178.65943 L 336.99717,176.6543 L 336.07413,173.53996 L 335.75948,170.3147 L 335.87828,168.4205 L 336.51463,165.69011 L 337.39571,163.93246 L 338.6334,162.27715 L 340.913,160.32325 L 344.06672,158.3693 L 346.66799,157.59286 L 350.54194,157.30291 L 352.57682,157.59286 L 352.77963,158.61677 L 353.1013,163.48876 L 365.24757,154.27378 L 363.8071,152.95979 L 359.6884,149.79426 L 355.69558,146.67137 L 353.13625,144.6236 z M 370.75781,162.5675 L 369.19844,163.10502 L 366.76499,164.27398 L 365.16366,165.1955 L 365.60419,166.56068 L 366.52724,169.34223 L 367.04469,171.78254 L 367.2055,174.56406 L 367.00269,176.65453 L 366.40132,178.60844 L 365.08668,181.19375 L 363.73011,182.60163 L 361.52741,184.41047 L 359.25479,185.57943 L 356.2969,186.50949 L 353.73757,186.50949 L 351.45796,186.3133 L 350.0594,186.01468 L 349.58392,185.52833 L 349.46511,185.042 L 349.1855,180.51128 L 337.07418,189.62391 L 337.7175,190.35768 L 346.18566,196.93617 L 349.26242,199.37642 L 349.38123,198.25868 L 349.61884,192.69554 L 353.45783,192.6528 L 356.01714,192.6528 L 359.01001,192.26032 L 362.36651,190.98898 L 364.36641,190.01629 L 367.24039,188.01971 L 369.79972,185.48554 L 371.31715,183.24156 L 372.59679,180.70741 L 373.55478,177.4395 L 373.79959,175.68181 L 373.87639,173.19886 L 373.55472,170.7586 L 373.11418,168.60847 L 372.40094,166.17673 L 371.47789,163.68525 L 370.75766,162.5675 z"
       inkscape:connector-curvature="0"
       style="fill:#00ff00;fill-opacity:1;stroke:#000000;stroke-width:0.2471769;stroke-opacity:1;display:inline"
       group="Rotation"
       position="RightThumb" />
    <path
       id="RightIndexRotate"
       d="M 444.13625,15.123811 L 444.01745,18.442926 L 443.73784,21.318355 L 443.13647,21.608305 L 441.26245,21.702103 L 439.06673,21.702103 L 436.34659,22.196997 L 433.43064,22.973443 L 431.07411,23.997333 L 428.43786,25.507562 L 426.15825,27.162852 L 423.64089,29.944402 L 421.96263,32.623562 L 420.52216,36.284002 L 420.12357,39.842012 L 420.24237,43.016092 L 420.88572,46.275452 L 422.28425,50.473412 L 423.52194,52.717462 L 425.64074,51.642342 L 428.7175,49.841992 L 428.8363,49.159432 L 427.99717,47.154302 L 427.07413,44.039962 L 426.75948,40.814702 L 426.87828,38.920502 L 427.51463,36.190112 L 428.39571,34.432462 L 429.6334,32.777152 L 431.913,30.823252 L 435.06672,28.869302 L 437.66799,28.092862 L 441.54194,27.802912 L 443.57682,28.092862 L 443.77963,29.116772 L 444.1013,33.988762 L 456.24757,24.773783 L 454.8071,23.459793 L 450.6884,20.29427 L 446.69558,17.171375 L 444.13625,15.123603 z M 461.75781,33.067502 L 460.19844,33.605022 L 457.76499,34.773982 L 456.16366,35.695502 L 456.60419,37.060682 L 457.52724,39.842232 L 458.04469,42.282542 L 458.2055,45.064062 L 458.00269,47.154532 L 457.40132,49.108442 L 456.08668,51.693752 L 454.73011,53.101632 L 452.52741,54.910472 L 450.25479,56.079432 L 447.2969,57.009492 L 444.73757,57.009492 L 442.45796,56.813302 L 441.0594,56.514682 L 440.58392,56.028332 L 440.46511,55.542002 L 440.1855,51.011282 L 428.07418,60.123912 L 428.7175,60.857682 L 437.18566,67.436172 L 440.26242,69.876422 L 440.38123,68.758682 L 440.61884,63.195542 L 444.45783,63.152802 L 447.01714,63.152802 L 450.01001,62.760322 L 453.36651,61.488982 L 455.36641,60.516292 L 458.24039,58.519712 L 460.79972,55.985542 L 462.31715,53.741562 L 463.59679,51.207412 L 464.55478,47.939502 L 464.79959,46.181812 L 464.87639,43.698862 L 464.55472,41.258602 L 464.11418,39.108472 L 463.40094,36.676732 L 462.47789,34.185252 L 461.75766,33.067502 z"
       inkscape:connector-curvature="0"
       style="fill:#00ff00;fill-opacity:1;stroke:#000000;stroke-width:0.2471769;stroke-opacity:1;display:inline"
       group="Rotation"
       position="RightIndex" />
    <path
       id="RightMiddleRotate"
       d="M 508.13625,3.1238114 L 508.01744,6.4429264 L 507.73783,9.3183554 L 507.13646,9.6083054 L 505.26244,9.7021034 L 503.06672,9.7021034 L 500.34659,10.196997 L 497.43063,10.973443 L 495.07411,11.997333 L 492.43785,13.507563 L 490.15825,15.162853 L 487.64089,17.944403 L 485.96263,20.623563 L 484.52216,24.284003 L 484.12356,27.842013 L 484.24237,31.016093 L 484.88571,34.275453 L 486.28424,38.473413 L 487.52193,40.717463 L 489.64073,39.642343 L 492.71749,37.841993 L 492.8363,37.159433 L 491.99716,35.154303 L 491.07412,32.039963 L 490.75947,28.814703 L 490.87827,26.920503 L 491.51463,24.190113 L 492.3957,22.432463 L 493.6334,20.777153 L 495.913,18.823253 L 499.06671,16.869303 L 501.66798,16.092863 L 505.54193,15.802913 L 507.57682,16.092863 L 507.77963,17.116773 L 508.10129,21.988763 L 520.24756,12.773783 L 518.80709,11.459793 L 514.68839,8.2942704 L 510.69558,5.1713754 L 508.13625,3.1236034 z M 525.7578,21.067503 L 524.19844,21.605023 L 521.76499,22.773983 L 520.16365,23.695503 L 520.60419,25.060683 L 521.52723,27.842233 L 522.04469,30.282543 L 522.2055,33.064063 L 522.00269,35.154533 L 521.40132,37.108443 L 520.08667,39.693753 L 518.73011,41.101633 L 516.5274,42.910473 L 514.25479,44.079433 L 511.29689,45.009493 L 508.73756,45.009493 L 506.45796,44.813303 L 505.0594,44.514683 L 504.58391,44.028333 L 504.4651,43.542003 L 504.18549,39.011283 L 492.07418,48.123913 L 492.71749,48.857683 L 501.18565,55.436173 L 504.26242,57.876423 L 504.38122,56.758683 L 504.61883,51.195543 L 508.45783,51.152803 L 511.01713,51.152803 L 514.01001,50.760323 L 517.3665,49.488983 L 519.3664,48.516293 L 522.24039,46.519713 L 524.79972,43.985543 L 526.31714,41.741563 L 527.59678,39.207413 L 528.55478,35.939503 L 528.79958,34.181813 L 528.87639,31.698863 L 528.55472,29.258603 L 528.11418,27.108473 L 527.40093,24.676733 L 526.47789,22.185253 L 525.75765,21.067503 z"
       inkscape:connector-curvature="0"
       style="fill:#00ff00;fill-opacity:1;stroke:#000000;stroke-width:0.2471769;stroke-opacity:1;display:inline"
       group="Rotation"
       position="RightMiddle" />
    <path
       id="RightRingRotate"
       d="M 575.13625,26.623811 L 575.01744,29.942926 L 574.73783,32.818355 L 574.13646,33.108305 L 572.26244,33.202103 L 570.06672,33.202103 L 567.34659,33.696997 L 564.43063,34.473443 L 562.07411,35.497333 L 559.43785,37.007562 L 557.15825,38.662852 L 554.64089,41.444402 L 552.96263,44.123562 L 551.52216,47.784002 L 551.12356,51.342012 L 551.24237,54.516092 L 551.88571,57.775452 L 553.28424,61.973412 L 554.52194,64.217462 L 556.64073,63.142342 L 559.71749,61.341992 L 559.8363,60.659432 L 558.99716,58.654302 L 558.07412,55.539962 L 557.75947,52.314702 L 557.87827,50.420502 L 558.51463,47.690112 L 559.3957,45.932462 L 560.6334,44.277152 L 562.913,42.323252 L 566.06671,40.369302 L 568.66798,39.592862 L 572.54193,39.302912 L 574.57682,39.592862 L 574.77963,40.616772 L 575.10129,45.488762 L 587.24756,36.273783 L 585.80709,34.959793 L 581.68839,31.79427 L 577.69558,28.671375 L 575.13625,26.623603 z M 592.7578,44.567502 L 591.19844,45.105022 L 588.76499,46.273982 L 587.16365,47.195502 L 587.60419,48.560682 L 588.52723,51.342232 L 589.04469,53.782542 L 589.2055,56.564062 L 589.00269,58.654532 L 588.40132,60.608442 L 587.08667,63.193752 L 585.73011,64.601632 L 583.5274,66.410472 L 581.25479,67.579432 L 578.29689,68.509492 L 575.73756,68.509492 L 573.45796,68.313302 L 572.0594,68.014682 L 571.58391,67.528332 L 571.4651,67.042002 L 571.18549,62.511282 L 559.07418,71.623912 L 559.71749,72.357682 L 568.18565,78.936172 L 571.26242,81.376422 L 571.38122,80.258682 L 571.61883,74.695542 L 575.45783,74.652802 L 578.01713,74.652802 L 581.01001,74.260322 L 584.3665,72.988982 L 586.3664,72.016292 L 589.24039,70.019712 L 591.79972,67.485542 L 593.31714,65.241562 L 594.59678,62.707412 L 595.55478,59.439502 L 595.79958,57.681812 L 595.87639,55.198862 L 595.55472,52.758602 L 595.11418,50.608472 L 594.40093,48.176732 L 593.47789,45.685252 L 592.75765,44.567502 z"
       inkscape:connector-curvature="0"
       style="fill:#00ff00;fill-opacity:1;stroke:#000000;stroke-width:0.2471769;stroke-opacity:1;display:inline"
       group="Rotation"
       position="RightRing" />
    <path
       id="RightLittleRotate"
       d="M 617.63624,93.123807 L 617.51744,96.442922 L 617.23783,99.318351 L 616.63646,99.608301 L 614.76244,99.702099 L 612.56672,99.702099 L 609.84658,100.19699 L 606.93063,100.97344 L 604.5741,101.99733 L 601.93785,103.50756 L 599.65825,105.16285 L 597.14089,107.9444 L 595.46262,110.62356 L 594.02215,114.284 L 593.62356,117.84201 L 593.74236,121.01609 L 594.38571,124.27545 L 595.78424,128.47341 L 597.02193,130.71746 L 599.14073,129.64234 L 602.21749,127.84199 L 602.33629,127.15943 L 601.49716,125.1543 L 600.57412,122.03996 L 600.25947,118.8147 L 600.37827,116.9205 L 601.01462,114.19011 L 601.8957,112.43246 L 603.13339,110.77715 L 605.41299,108.82325 L 608.56671,106.8693 L 611.16798,106.09286 L 615.04193,105.80291 L 617.07681,106.09286 L 617.27962,107.11677 L 617.60129,111.98876 L 629.74756,102.77378 L 628.30709,101.45979 L 624.18839,98.294266 L 620.19558,95.171371 L 617.63624,93.123599 z M 635.2578,111.0675 L 633.69843,111.60502 L 631.26498,112.77398 L 629.66365,113.6955 L 630.10419,115.06068 L 631.02723,117.84223 L 631.54469,120.28254 L 631.70549,123.06406 L 631.50268,125.15453 L 630.90131,127.10844 L 629.58667,129.69375 L 628.23011,131.10163 L 626.0274,132.91047 L 623.75479,134.07943 L 620.79689,135.00949 L 618.23756,135.00949 L 615.95795,134.8133 L 614.55939,134.51468 L 614.08391,134.02833 L 613.9651,133.542 L 613.68549,129.01128 L 601.57417,138.12391 L 602.21749,138.85768 L 610.68565,145.43617 L 613.76241,147.87642 L 613.88122,146.75868 L 614.11883,141.19554 L 617.95782,141.1528 L 620.51713,141.1528 L 623.51,140.76032 L 626.8665,139.48898 L 628.8664,138.51629 L 631.74038,136.51971 L 634.29972,133.98554 L 635.81714,131.74156 L 637.09678,129.20741 L 638.05477,125.9395 L 638.29958,124.18181 L 638.37638,121.69886 L 638.05471,119.2586 L 637.61417,117.10847 L 636.90093,114.67673 L 635.97788,112.18525 L 635.25765,111.0675 z"
       inkscape:connector-curvature="0"
       style="fill:#00ff00;fill-opacity:1;stroke:#000000;stroke-width:0.2471769;stroke-opacity:1;display:inline"
       group="Rotation"
       position="RightLittle" />
  </g>
  <g
     inkscape:groupmode="layer"
     id="layer11"
     inkscape:label="Creases"
     style="display:none"
     sodipodi:insensitive="true">
    <path
       id="leftPalmCreases"
       style="fill:none;stroke:#808080;stroke-width:1px;stroke-linecap:butt;stroke-linejoin:miter;stroke-opacity:0.50196078"
       d="M 166.23507,137.9561 C 176.9389,142.14718 186.76161,144.13546 195.58,143.61295 M 125.57643,141.84518 C 136.62135,142.74042 148.26193,141.33268 158.36498,137.5186 M 86.685551,158.81575 C 95.285178,156.10868 101.67535,155.61106 119.21246,143.9665 M 212.19701,204.07058 C 215.8949,213.28603 216.69299,225.58555 224.21782,234.47617 M 141.73449,294.39459 C 134.83165,250.33163 149.60416,202.33402 192.83996,178.52635 M 192.75157,178.61473 C 154.26463,197.57498 118.29648,237.15554 98.706369,260.99268 M 64.825903,216.12265 C 84.837252,211.25545 142.13932,196.30208 157.82577,154.58475 M 241.89549,188.86779 C 245.01471,201.49808 250.67993,208.52717 258.5125,210.7881 M 176.13456,104.72208 C 183.14992,108.37203 190.8773,111.41845 201.59041,109.67183 M 182.85208,70.427397 C 190.19581,74.680908 198.65662,77.562102 206.89371,75.377145 M 125.92998,102.60076 C 136.39086,105.53478 146.07808,106.66844 152.80004,101.18654 M 124.51577,63.709883 C 133.38326,66.35671 141.69263,65.654782 149.61806,62.649223 M 66.179455,153.15889 C 61.514427,162.54735 55.007067,164.56649 48.501785,166.59393 M 50.957052,133.27596 C 46.624909,139.42184 42.102118,143.12613 34.006096,146.44138 M 66.533008,89.165728 C 75.026553,88.154651 83.023843,84.166038 90.574639,77.498466 M 79.614483,122.7533 C 89.740866,123.59945 98.002273,119.76637 104.36322,112.1467 M 57.163843,184.1832 C 64.460706,181.888 73.158216,178.35481 81.559027,164.38421"
       group="PalmCreases"
       inkscape:connector-curvature="0" />
    <path
       id="rightPalmCreases"
       style="fill:none;stroke:#808080;stroke-width:1px;stroke-linecap:butt;stroke-linejoin:miter;stroke-opacity:0.50196078"
       d="M 476.82261,138.80578 C 466.11878,142.99686 456.29607,144.98514 447.47768,144.46263 M 517.48125,142.69486 C 506.43633,143.5901 494.79575,142.18236 484.6927,138.36828 M 556.37213,159.66543 C 547.77251,156.95836 541.38234,156.46074 523.84522,144.81618 M 430.86067,204.92026 C 427.16278,214.13571 426.36469,226.43523 418.83986,235.32585 M 501.32319,295.24427 C 508.22603,251.18131 493.45352,203.1837 450.21772,179.37603 M 450.30611,179.46441 C 488.79305,198.42466 524.7612,238.00522 544.35131,261.84236 M 578.23178,216.97233 C 558.22043,212.10513 500.91836,197.15176 485.23191,155.43443 M 401.16219,189.71747 C 398.04297,202.34776 392.37775,209.37685 384.54518,211.63778 M 466.92312,105.57175 C 459.90776,109.22171 452.18038,112.26813 441.46727,110.5215 M 460.2056,71.277069 C 452.86187,75.530579 444.40106,78.411779 436.16397,76.226819 M 517.1277,103.45043 C 506.66682,106.38446 496.9796,107.51812 490.25764,102.03622 M 518.54191,64.559559 C 509.67442,67.206389 501.36505,66.504459 493.43962,63.498899 M 576.87823,154.00857 C 581.54326,163.39703 588.05062,165.41617 594.5559,167.44361 M 576.87823,154.00857 z M 585.89384,185.03288 C 578.59698,182.73768 569.89947,179.20449 561.49866,165.23389 M 585.89384,185.03288 z M 592.10063,134.12564 C 596.43277,140.27152 600.95557,143.97581 609.05159,147.29106 M 576.52468,90.015399 C 568.03113,89.004329 560.03384,85.015709 552.48304,78.348139 M 563.4432,123.60298 C 553.31682,124.44913 545.05541,120.61605 538.69446,112.99637"
       inkscape:connector-curvature="0"
       group="PalmCreases" />
  </g>
</svg>
