<?xml version="1.0" encoding="UTF-8" standalone="no"?>
<!-- Created with Inkscape (http://www.inkscape.org/) -->

<svg
   xmlns:dc="http://purl.org/dc/elements/1.1/"
   xmlns:cc="http://creativecommons.org/ns#"
   xmlns:rdf="http://www.w3.org/1999/02/22-rdf-syntax-ns#"
   xmlns:svg="http://www.w3.org/2000/svg"
   xmlns="http://www.w3.org/2000/svg"
   xmlns:sodipodi="http://sodipodi.sourceforge.net/DTD/sodipodi-0.dtd"
   xmlns:inkscape="http://www.inkscape.org/namespaces/inkscape"
   id="svg2"
   sodipodi:version="0.32"
   inkscape:version="0.48.0 r9654"
   width="227"
   height="283"
   version="1.0"
   sodipodi:docname="face.svg">
  <metadata
     id="metadata7">
    <rdf:RDF>
      <cc:Work
         rdf:about="">
        <dc:format>image/svg+xml</dc:format>
        <dc:type
           rdf:resource="http://purl.org/dc/dcmitype/StillImage" />
        <dc:title></dc:title>
      </cc:Work>
    </rdf:RDF>
  </metadata>
  <defs
     id="defs5" />
  <sodipodi:namedview
     inkscape:window-height="1018"
     inkscape:window-width="1920"
     inkscape:pageshadow="2"
     inkscape:pageopacity="0.0"
     guidetolerance="10.0"
     gridtolerance="10.0"
     objecttolerance="10.0"
     borderopacity="1.0"
     bordercolor="#666666"
     pagecolor="#ffffff"
     id="base"
     inkscape:zoom="1.3321555"
     inkscape:cx="-3.6034463"
     inkscape:cy="141.5"
     inkscape:window-x="-8"
     inkscape:window-y="-8"
     inkscape:current-layer="svg2"
     showgrid="false"
     inkscape:window-maximized="1" />
  <path
     style="fill:#00808c;fill-opacity:1"
     d="M 108,282.30963 C 79.190671,275.91828 58.128065,250.30256 48.204772,223.6462 C 46.724463,209.90986 30.050398,209.07436 24.355798,196.8268 C 19.043761,185.41687 13.569602,173.20056 15.740503,160.23831 C 9.0547273,151.24512 11.841085,139.53633 5.561532,129.30658 C -5.1131766,117.35829 7.0736116,105.72437 10.796036,93.422858 C 20.611461,67.249718 35.29189,41.668075 57.31711,23.948201 C 61.0642,20.91492 80.799623,11.30595 65.740813,14.520572 C 55.94938,16.420941 46.879533,25.742313 38,26.134859 C 44.561196,15.875065 57.649733,10.974504 69.406372,9.3599282 C 74.692991,8.6635584 88.787593,7.8427219 76.167352,5.5611752 C 70.734365,3.5453921 51.163358,9.6695361 53.819338,2.5492902 C 73.103612,-2.7144877 96.06109,0.71491491 109.54115,16.556055 C 114.76481,20.709659 123.25198,13.893293 129.97892,16.172297 C 153.45693,16.370257 177.56382,25.038679 192.34416,44.012099 C 204.2563,58.063086 213.30308,74.230147 224.38916,88.898164 C 225.70739,101.32951 224.64449,114.35186 219.80415,126.51481 C 217.32666,139.23222 214.0869,151.58938 213.4577,164.62562 C 210.69347,178.6172 207.78397,195.46707 197.5924,205.46555 C 193.08454,207.9449 184.78657,206.3427 185.34294,213.59037 C 182.06249,228.67795 177.14362,243.97871 165.72156,254.9963 C 155.2584,267.24287 143.43448,280.79307 126.16026,282.00657 C 120.16486,282.90833 114.01269,283.25901 108,282.30963 z M 136.5,270.97198 C 150.75861,265.4341 160.07863,252.40818 169.62322,241.10109 C 181.65205,222.88736 182.28707,200.08398 185.6991,179.16097 C 186.6816,165.63596 190.54488,151.89549 188.16165,138.3812 C 180.68374,118.69102 169.15075,100.35622 155.09939,84.671706 C 149.94703,79.829435 140.08463,72.030411 135.65854,71.145425 C 135.31664,79.021348 144.16099,95.918125 136.77772,99.013826 C 131.92715,92.739294 133.22746,72.030869 129.29037,72.999037 C 127.95224,87.726944 128.3179,104.00434 119.73719,116.69858 C 110.79398,114.57012 122.9844,97.647352 122.61606,89.526051 C 123.84245,80.667001 127.3643,68.571377 122.93558,61.45135 C 120.28437,79.234541 118.05634,98.07532 107.60332,113.32772 C 101.21364,108.2925 112.62006,91.20191 113.44194,82.058576 C 116.24511,75.916528 117.08967,62.68674 111.19267,75.347809 C 104.2843,88.312653 97.703996,102.69909 85.056136,111 C 83.629341,103.04509 95.994308,94.105007 99.307478,85.341957 C 102.20883,80.900266 112.9911,61.902482 102.76927,73.080804 C 90.865997,86.103598 78.773256,99.03911 67.996977,113.01801 C 73.70993,117.69599 94.628721,110.06499 94.493989,120.68972 C 80.010414,125.24765 61.987096,120.66428 50.44966,132.9597 C 46.264108,136.46258 39.598582,138.69225 42.000245,145.27898 C 43.278286,176.25291 46.213592,208.15258 59.459553,236.55245 C 69.78663,251.57283 80.306909,269.49065 99.713162,273.41669 C 111.79878,276.61023 125.18721,277.04052 136.5,270.97198 z M 106.18459,225.97652 C 92.292985,223.21923 117.76556,225.35605 121.44911,224.77546 C 125.30412,223.40957 140.19206,219.78559 129.62669,225.50965 C 121.96273,227.25535 113.93144,226.98833 106.18459,225.97652 z M 85.835144,218.24785 C 78.036673,210.49296 95.49854,219.62889 99.466078,215.42376 C 116.4755,214.92029 133.63566,214.4644 150.58118,215.16685 C 144.25922,221.55787 127.24629,216.52407 117.11763,218.42077 C 106.69409,218.42576 96.248187,218.77014 85.835144,218.24785 z M 110.46244,195.93626 C 95.849708,190.59648 104.2605,172.82994 104.71833,161.68225 C 104.43585,156.72268 109.79691,141.08042 109.2047,154.4594 C 109.2507,166.21792 104.37414,178.95529 107.60832,190.04288 C 115.46353,196.82643 127.0522,189.76773 133,189.32569 C 129.29525,197.87307 118.12738,197.73061 110.46244,195.93626 z M 144,175.58333 C 147.15262,170.36608 146.80976,179.76845 144,175.58333 z M 70.25,152.33772 C 58.942088,146.67975 83.555757,152.06161 87,149.94404 C 82.982725,154.65983 75.588981,154.57778 70.25,152.33772 z M 139.25,149.88123 C 131.07961,144.58843 151.3322,151.44776 155.14364,147.67675 C 167.31006,147.31576 143.9936,153.38361 139.25,149.88123 z M 73,144.73669 C 66.397881,145.03518 76.78885,137.64505 67.108773,141.50716 C 63.093902,145.09812 53.712183,145.00195 62.259247,139.97114 C 71.077687,133.12747 90.8624,132.63939 93.563641,145.19941 C 87.634181,142.63019 84.104985,139.49117 86.55887,144.5318 C 82.45043,146.91562 77.34741,145.55017 73,144.73669 z M 80.457298,138.93089 C 77.758456,136.00928 80.085181,143.67968 80.457295,138.9309 L 80.457298,138.93089 z M 140,144.82254 C 139.59476,139.13003 136.95518,143.53921 132.13759,143.90266 C 137.46237,130.4923 158.5453,132.30212 166.56809,142.63664 C 163.56857,147.54474 155.67309,135.36069 151.968,143.72056 C 148.17432,144.84765 143.84406,147.07986 140,144.82254 z M 146.56973,139.32115 C 142.3058,136.06623 147.65637,145.57837 146.56973,139.32115 z M 158,134.39868 C 152.10893,129.02156 140.81725,135.3819 137.35779,134.2721 C 144.12222,127.69702 160.6593,129.58826 163.39417,136.80344 C 161.53379,136.14593 159.79579,135.20433 158,134.39868 z M 61.453808,134.45892 C 67.562913,128.41372 86.928799,131.94239 87.094505,134.38069 C 78.779472,130.68811 66.725697,132.71252 61.453808,134.45892 z M 163.74084,125.47872 C 155.01557,121.17748 136.7242,125.31583 133.3554,117.65775 C 145.43153,113.20581 162.38966,113.98447 170.39228,125.47936 C 170.21506,128.58848 165.31633,125.77115 163.74084,125.47872 z M 43.992992,206.25 C 40.474081,193.9099 41.082963,180.18595 32.672641,169.67107 C 29.817031,162.04931 19.061301,154.10901 20.232489,167.76843 C 20.986928,178.43776 25.705167,189.44679 32.309897,197.70688 C 35.615346,199.82662 40.115308,207.91922 43.992992,206.25 z M 194.56151,202.2347 C 203.78158,188.03285 210.92783,171.10777 208.95938,153.91375 C 203.71607,136.68627 192.5236,163.19249 193.07407,171.37112 C 193.51978,181.08322 184.26214,197.90862 192.7802,202.96487 L 194.56151,202.23469 L 194.56151,202.2347 z "
     id="path1873"
     inkscape:export-filename="D:\MegaMatcher\Samples\Common\Resources\icons\face.b.png"
     inkscape:export-xdpi="20.062254"
     inkscape:export-ydpi="20.062254" />
</svg>
