<?xml version="1.0" encoding="UTF-8" standalone="no"?>
<!-- Created with Inkscape (http://www.inkscape.org/) -->

<svg
   xmlns:dc="http://purl.org/dc/elements/1.1/"
   xmlns:cc="http://creativecommons.org/ns#"
   xmlns:rdf="http://www.w3.org/1999/02/22-rdf-syntax-ns#"
   xmlns:svg="http://www.w3.org/2000/svg"
   xmlns="http://www.w3.org/2000/svg"
   xmlns:sodipodi="http://sodipodi.sourceforge.net/DTD/sodipodi-0.dtd"
   xmlns:inkscape="http://www.inkscape.org/namespaces/inkscape"
   width="744.09448819"
   height="1052.3622047"
   id="svg3845"
   version="1.1"
   inkscape:version="0.48.0 r9654"
   sodipodi:docname="Fingerprint.svg"
   inkscape:export-filename="D:\MegaMatcher\Samples\Common\Resources\icons\fingerprint.b.png"
   inkscape:export-xdpi="9.0269384"
   inkscape:export-ydpi="9.0269384">
  <defs
     id="defs3847" />
  <sodipodi:namedview
     id="base"
     pagecolor="#ffffff"
     bordercolor="#666666"
     borderopacity="1.0"
     inkscape:pageopacity="0.0"
     inkscape:pageshadow="2"
     inkscape:zoom="0.49497475"
     inkscape:cx="793.81033"
     inkscape:cy="395.55435"
     inkscape:document-units="px"
     inkscape:current-layer="g3864"
     showgrid="false"
     inkscape:window-width="1920"
     inkscape:window-height="1018"
     inkscape:window-x="-8"
     inkscape:window-y="-8"
     inkscape:window-maximized="1" />
  <metadata
     id="metadata3850">
    <rdf:RDF>
      <cc:Work
         rdf:about="">
        <dc:format>image/svg+xml</dc:format>
        <dc:type
           rdf:resource="http://purl.org/dc/dcmitype/StillImage" />
        <dc:title />
      </cc:Work>
    </rdf:RDF>
  </metadata>
  <g
     inkscape:label="Layer 1"
     inkscape:groupmode="layer"
     id="layer1">
    <g
       id="g3864"
       transform="translate(-742.85714,-48.571429)">
      <path
         style="fill:#008093;fill-opacity:1"
         d="m 1075.9764,1058.2764 c -4.7818,-2.7901 -9.7922,-12.5951 -11.6943,-22.8848 -0.9984,-5.4007 -3.5386,-13.2667 -5.6448,-17.48 -2.1064,-4.2134 -4.2629,-12.0401 -4.7921,-17.3929 -0.5293,-5.35274 -2.4969,-12.21489 -4.3722,-15.24917 -2.0802,-3.36578 -3.8452,-10.09728 -4.5267,-17.264 -0.7682,-8.07858 -2.5705,-14.38495 -5.7713,-20.19374 -2.5598,-4.64562 -5.2172,-11.8587 -5.9057,-16.02906 -0.6882,-4.17034 -3.1542,-12.13806 -5.4802,-17.70604 -2.3259,-5.56799 -5.2399,-14.0028 -6.4757,-18.74404 -1.2357,-4.74123 -3.7728,-11.20651 -5.6377,-14.36725 -1.8647,-3.16077 -4.2671,-9.83402 -5.3385,-14.82944 -1.0712,-4.99545 -3.7516,-12.95634 -5.956,-17.69087 -2.2046,-4.73453 -4.0158,-10.14766 -4.0248,-12.02916 -0.02,-4.27266 -4.54621,-10.92087 -7.43414,-10.92087 -1.19037,0 -3.04552,1.93389 -4.12251,4.29756 -4.07863,8.95183 -1.64711,28.80703 5.81079,47.4488 2.45498,6.13653 5.45846,17.81802 6.67466,25.95889 1.2162,8.14085 3.8281,17.97092 5.8042,21.84455 1.9761,3.87365 4.6715,12.67951 5.9896,19.56858 1.3181,6.88906 3.847,15.36879 5.6198,18.84383 1.7728,3.47505 4.1014,9.73072 5.1745,13.90148 1.0731,4.17078 3.8097,12.33666 6.0815,18.14642 2.2716,5.80973 4.1304,11.92513 4.1304,13.58963 0,1.6645 2.1382,6.402 4.7516,10.5277 2.6135,4.1257 6.9462,13.0998 9.6284,19.9424 l 4.8768,12.4413 -3.91,3.166 c -9.5966,7.7709 -18.4047,1.7448 -24.3768,-16.6777 -2.328,-7.1819 -4.759,-15.7155 -5.4021,-18.9635 -0.643,-3.248 -2.8968,-9.3349 -5.0083,-13.5264 -2.1116,-4.1916 -4.7093,-11.02499 -5.7726,-15.18544 -1.0633,-4.16045 -3.7375,-11.74044 -5.9429,-16.84442 -2.2052,-5.104 -4.55666,-13.07634 -5.22532,-17.71633 -0.66867,-4.64 -3.37471,-13.84927 -6.01359,-20.46506 -3.50278,-8.78129 -5.23392,-16.98059 -6.41282,-30.37084 -1.10144,-12.51132 -2.81368,-21.02398 -5.38643,-26.77847 -3.17325,-7.0981 -3.74793,-11.24668 -3.6224,-26.15267 0.0826,-9.74398 0.22879,-28.62925 0.32598,-41.96726 0.0979,-13.338 -0.59459,-30.40169 -1.53727,-37.91928 -2.16037,-17.22842 -2.18704,-97.20952 -0.0421,-128.60127 1.00578,-14.72594 2.90768,-27.89846 5.01203,-34.71154 1.86528,-6.03884 4.22341,-16.99873 5.24049,-24.35532 1.01709,-7.3566 4.06531,-18.43816 6.77371,-24.62568 2.70858,-6.18754 4.92463,-12.76053 4.92463,-14.60665 0,-3.38185 8.90002,-21.54935 21.19012,-43.25496 9.5143,-16.8034 41.7933,-49.1798 56.0274,-56.19656 5.8137,-2.86586 13.0829,-6.76356 16.154,-8.66157 5.5833,-3.45066 8.6945,-4.2412 37.6895,-9.57694 12.9567,-2.38434 17.499,-2.53371 27.8399,-0.91546 29.5166,4.61904 39.1428,6.91786 45.0081,10.74829 3.3858,2.21118 9.6377,5.68511 13.8931,7.71984 16.1875,7.74008 47.508,39.31995 61.4257,61.93471 4.5498,7.39272 9.6637,15.28041 11.3643,17.52823 1.7006,2.24779 4.617,7.53494 6.4813,11.74922 1.8641,4.21427 4.4333,8.82896 5.7092,10.25485 1.2759,1.42591 9.3115,16.25944 17.8569,32.9634 53.7906,105.1469 49.3812,97.01898 67.2515,123.96352 15.2774,23.03466 33.7775,43.0793 48.1202,52.13759 10.6823,6.74644 19.5515,16.41235 19.5515,21.30771 0,1.51491 -0.786,4.22303 -1.7468,6.01801 -2.2391,4.18394 -13.5625,4.44485 -19.9274,0.45917 -2.4633,-1.54248 -14.2367,-13.12135 -26.1634,-25.73086 -21.1732,-22.38538 -35.3288,-41.77828 -49.3725,-67.63902 -16.3055,-30.0256 -20.5864,-38.60565 -21.6282,-43.34933 -0.6241,-2.84099 -2.993,-7.68437 -5.2645,-10.76306 -2.2713,-3.07869 -4.1297,-6.35467 -4.1297,-7.27994 0,-2.28267 -15.9189,-34.37792 -20.1806,-40.68745 -1.8805,-2.78399 -3.424,-6.28457 -3.4301,-7.77906 0,-1.49451 -2.0043,-5.65429 -4.4402,-9.24398 -2.436,-3.58968 -5.4988,-9.55836 -6.8061,-13.26374 -1.3073,-3.70537 -3.7793,-8.27721 -5.4931,-10.15963 -1.7139,-1.88242 -6.7687,-9.49675 -11.233,-16.92073 -10.6807,-17.76177 -34.3773,-44.72525 -50.4167,-57.36715 -11.5093,-9.07141 -25.7538,-16.55363 -45.6363,-23.97162 -5.389,-2.0106 -12.8695,-2.36125 -37.1199,-1.74001 l -30.3708,0.77801 -14.9048,7.03431 c -23.7773,11.22163 -38.4932,23.44707 -55.6279,46.2137 -5.3275,7.07856 -10.4083,13.31636 -11.2909,13.86178 -0.8824,0.54542 -2.4428,4.18651 -3.4675,8.09133 -1.0248,3.90481 -3.6681,9.75709 -5.874,13.00509 -2.2061,3.24799 -4.5196,9.32216 -5.1415,13.49815 -0.6218,4.17599 -3.2364,12.52797 -5.8101,18.55996 -2.9192,6.8412 -5.11,15.72807 -5.8231,23.62177 -0.6289,6.95998 -2.60468,22.44595 -4.39084,34.41326 -4.16739,27.924 -4.12807,55.67887 0.12655,89.601 1.85602,14.79564 3.39929,31.47817 3.42979,37.07235 0.03,5.69569 1.513,14.25453 3.3686,19.45117 1.8224,5.10399 4.0715,14.90122 4.9982,21.77161 1.1221,8.32134 3.2306,15.08079 6.3155,20.24723 2.5471,4.26558 6.6317,13.45013 9.077,20.41011 11.5479,32.86944 9.5385,27.88782 30.1059,74.63674 5.6077,12.74627 10.1958,23.71006 10.1958,24.36398 0,3.26435 15.4292,26.41394 24.5433,36.82444 5.6873,6.49598 15.9598,19.40359 22.8278,28.68357 6.8681,9.28 19.5196,23.7973 28.1144,32.2608 9.7376,9.5887 15.6271,16.7065 15.6271,18.8862 0,5.1405 -6.3665,8.751 -15.431,8.751 -6.6723,0 -8.788,-0.8566 -13.3288,-5.3975 -5.326,-5.326 -22.3264,-29.7917 -40.4184,-58.16681 -11.3589,-17.81552 -14.0881,-19.86372 -18.8047,-14.11307 -3.9392,4.80303 -3.353,10.8194 1.9761,20.27488 1.8415,3.2675 5.5053,10.4965 8.1416,16.0645 2.6364,5.568 6.0992,11.2072 7.6951,12.5316 8.1364,6.7519 10.4125,21.6821 3.9911,26.1798 -4.2452,2.9736 -9.2592,3.3017 -13.4133,0.8776 z m 110.8066,-0.6567 c -2.7839,-1.2507 -8.0988,-6.2402 -11.8109,-11.0881 -3.712,-4.8479 -16.7746,-21.345 -29.0283,-36.6601 -21.4412,-26.79866 -46.2409,-61.81712 -48.732,-68.81247 -0.6582,-1.84831 -2.8379,-5.63839 -4.844,-8.42239 -4.2137,-5.84815 -16.1009,-30.61142 -16.1009,-33.54164 0,-1.08731 -2.254,-6.51322 -5.0089,-12.05758 -2.7547,-5.54437 -5.0628,-11.97884 -5.1287,-14.29883 -0.066,-2.31999 -2.3674,-8.39417 -5.1143,-13.49815 -2.9257,-5.43598 -4.9947,-11.82991 -4.995,-15.43589 -2e-4,-3.61208 -2.1473,-10.23588 -5.1958,-16.02906 -2.8575,-5.43023 -5.9228,-14.04913 -6.8118,-19.15312 -0.889,-5.10399 -3.8635,-14.27055 -6.6101,-20.37015 -3.0013,-6.66564 -5.3977,-15.41661 -6.0066,-21.93449 -0.5572,-5.96438 -3.2706,-18.81668 -6.0298,-28.56066 -4.3633,-15.4077 -5.2606,-22.3829 -6.8853,-53.52765 -2.5439,-48.76616 -0.1552,-91.32785 5.9466,-105.95364 2.3151,-5.54909 4.7087,-12.74669 5.3192,-15.99468 0.9078,-4.83131 9.8515,-25.60303 14.2287,-33.04645 16.041,-27.27774 35.6619,-45.4644 62.1169,-57.5758 18.545,-8.49025 64.7468,-7.12041 81.3134,2.41091 25.5227,14.68402 46.2995,32.90683 60.963,53.46896 3.2479,4.55461 8.4238,11.76724 11.5017,16.0281 3.078,4.26086 7.7042,11.92302 10.2805,17.02701 2.5765,5.10398 8.7899,17.34608 13.8074,27.20466 5.0176,9.85858 9.953,19.7291 10.9673,21.9345 1.0144,2.2054 3.0511,6.28762 4.5263,9.07161 5.8049,10.95626 26.5311,54.30274 26.5311,55.48698 0,0.69144 3.925,8.23078 8.722,16.75409 4.7969,8.52331 10.6104,19.29328 12.9184,23.93327 2.3082,4.63999 6.2357,11.0938 8.7278,14.34179 2.4918,3.24799 8.972,11.9796 14.3999,19.40359 5.4282,7.42399 15.9883,19.83802 23.4669,27.58673 10.975,11.37132 16.4371,15.51969 28.3198,21.5088 17.3508,8.74518 21.1206,13.20121 18.8707,22.30667 -1.247,5.04727 -2.3997,6.31179 -6.1476,6.74345 -10.8528,1.24991 -60.9615,-38.92826 -74.8529,-60.01842 -3.5107,-5.32998 -10.4603,-14.83283 -15.4439,-21.11739 -4.9835,-6.28459 -10.2382,-14.24418 -11.6771,-17.68799 -1.4391,-3.44381 -3.8911,-7.88226 -5.4494,-9.86321 -2.728,-3.46808 -23.0639,-43.81111 -33.5093,-66.47661 -2.7798,-6.03199 -7.3518,-15.90251 -10.1598,-21.93449 -2.8082,-6.03199 -5.6321,-12.74762 -6.2755,-14.92363 -1.0137,-3.42884 -5.7755,-12.90295 -21.7563,-43.28716 -6.6438,-12.63155 -27.7464,-42.52446 -35.9085,-50.86635 -11.7456,-12.00406 -28.91,-23.67213 -44.862,-30.49626 -11.6788,-4.99607 -16.4604,-6.07794 -30.0141,-6.79069 -15.7474,-0.82812 -16.4536,-0.70252 -30.3709,5.40231 -15.2416,6.68574 -29.3391,16.37353 -37.7438,25.93761 -7.6464,8.701 -19.4335,24.53964 -19.4851,26.18271 -0.025,0.78508 -2.6421,6.90016 -5.8162,13.58905 -3.1742,6.6889 -6.6322,17.05598 -7.6844,23.03798 -1.0524,5.98197 -3.4747,16.53899 -5.3828,23.46002 -3.0609,11.10189 -3.3695,15.87034 -2.6208,40.49446 0.5569,18.3175 1.7794,31.10041 3.5563,37.19074 1.4893,5.104 3.4365,17.40839 4.3273,27.34309 1.1238,12.53496 2.7142,20.20889 5.1964,25.07446 1.9674,3.85623 4.6852,12.32671 6.0399,18.82329 1.3545,6.49656 3.8608,14.57448 5.5697,17.95091 1.7087,3.37642 3.6091,8.7964 4.2228,12.04439 2.2573,11.94257 23.1224,55.22166 34.3591,71.26845 19.7915,28.2635 25.5154,36.27254 35.5559,49.75079 5.8965,7.91549 13.641,18.90956 17.2097,24.43129 15.3544,23.75599 74.707,83.35918 93.6605,94.05588 10.7928,6.0911 14.6599,11.3376 13.9279,18.8956 -0.6899,7.1216 -6.7224,10.8453 -14.977,9.245 -4.6031,-0.8924 -12.2946,-7.5071 -37.0756,-31.8849 -48.6313,-47.84003 -74.6729,-80.43078 -103.1501,-129.0912 -10.3269,-17.64566 -19.1014,-27.22286 -22.1492,-24.17509 -2.3079,2.3081 6.1642,27.48826 11.7492,34.91958 2.1543,2.86659 4.8085,7.76922 5.898,10.89471 1.7889,5.13153 4.1412,9.45806 14.2746,26.25383 10.0643,16.68113 21.2633,32.79386 30.1758,43.41521 5.5778,6.64723 13.1178,15.88221 16.7558,20.52219 3.6381,4.63997 15.2089,16.85457 25.7131,27.14337 20.6234,20.2004 22.0887,23.169 14.9573,30.3004 -4.6607,4.6607 -7.9243,5.0318 -15.2622,1.7358 z m -200.38221,-12.3578 c -1.45813,-1.624 -3.39579,-6.7491 -4.30574,-11.3891 -3.40913,-17.3819 -7.38973,-32.3205 -10.79043,-40.49448 -1.9304,-4.63998 -5.19509,-14.89014 -7.25474,-22.77812 -2.05965,-7.88798 -4.98757,-17.28272 -6.50645,-20.87719 -1.51888,-3.59447 -3.54884,-11.46348 -4.51108,-17.48669 -0.96225,-6.02322 -3.54191,-17.13649 -5.73252,-24.6962 -2.19075,-7.55971 -4.491,-18.29283 -5.11157,-23.85141 -0.62059,-5.55857 -2.21016,-15.80101 -3.53214,-22.761 -6.80897,-35.84336 -7.8188,-48.50997 -8.6788,-108.86602 -0.89729,-62.97437 0.84802,-91.44337 7.08248,-115.518 1.32501,-5.11651 3.14575,-15.79172 4.04607,-23.72272 0.9005,-7.93098 3.50885,-19.39254 5.79644,-25.47013 2.28762,-6.07757 5.08461,-15.53327 6.21558,-21.01266 1.13098,-5.47938 3.38416,-12.61997 5.00714,-15.86797 1.62298,-3.24799 3.90114,-8.94252 5.06231,-12.65451 3.69209,-11.80201 25.49903,-55.2066 34.33171,-68.3344 19.36185,-28.77678 55.87455,-59.14205 89.71515,-74.61043 23.7191,-10.84187 54.1952,-14.87989 80.5451,-10.67204 28.5475,4.5588 33.3907,6.00543 52.7491,15.75593 17.7275,8.92903 19.6313,10.43438 42.4461,33.5596 15.9983,16.21612 26.5379,28.52024 31.9163,37.25998 4.4166,7.17681 10.4452,16.46546 13.3968,20.64145 2.9518,4.17599 6.5176,9.87053 7.9243,12.65453 1.4066,2.78398 6.1543,11.47305 10.5505,19.30903 4.3962,7.83597 18.2269,34.41045 30.735,59.05442 26.0455,51.31609 31.3479,60.36682 51.2801,87.52997 14.0088,19.09092 28.611,34.26883 38.7065,40.23234 7.2812,4.30115 9.5931,11.16011 6.6042,19.59416 -5.2529,14.82281 -13.6081,11.12368 -34.2132,-15.14732 -7.8615,-10.02317 -16.9907,-21.64066 -20.287,-25.81665 -3.2964,-4.17599 -9.1639,-12.9076 -13.0389,-19.40359 -3.875,-6.49599 -9.5274,-15.60724 -12.5609,-20.24724 -5.1894,-7.93707 -22.7186,-41.10151 -35.6725,-67.49075 -3.1888,-6.49598 -6.9339,-13.70906 -8.3224,-16.02905 -1.3886,-2.32 -4.0985,-7.59228 -6.0221,-11.71618 -6.2204,-13.33485 -25.3621,-48.08354 -28.4005,-51.55641 -1.624,-1.856 -4.503,-6.46589 -6.3981,-10.24422 -7.0138,-13.984 -28.6083,-38.34959 -48.397,-54.60748 -16.1274,-13.24988 -22.454,-16.98923 -43.0253,-25.42982 l -17.7164,-7.26915 -32.0581,-0.1554 -32.0581,-0.1554 -12.0936,5.48363 c -6.6516,3.01598 -13.1649,5.48361 -14.4745,5.48361 -2.3721,0 -8.3798,3.57535 -30.799,18.32952 -6.496,4.27501 -19.0424,14.99719 -27.881,23.82702 -12.7185,12.70594 -18.5626,20.27704 -28.0207,36.30148 -6.5728,11.13597 -12.51756,22.1454 -13.21051,24.46539 -0.6928,2.32 -3.07336,7.38051 -5.28976,11.24558 -2.21657,3.86508 -4.88954,11.07816 -5.94021,16.02906 -1.05049,4.9509 -3.62796,12.41837 -5.72743,16.59436 -2.09964,4.17599 -4.65045,12.97476 -5.66872,19.5528 -1.01809,6.57805 -3.76143,17.03538 -6.09627,23.23847 -2.47168,6.56651 -4.24517,14.81324 -4.24517,19.73948 0,4.65359 -1.68524,21.15041 -3.74506,36.65957 -4.73466,35.64978 -5.15749,105.4132 -0.86641,142.93279 1.48598,12.99196 3.17089,32.1445 3.74455,42.56115 0.75624,13.73456 2.19565,22.23898 5.2378,30.94598 2.38866,6.83731 4.62986,17.93364 5.20522,25.77323 0.59628,8.12533 2.68411,18.26084 5.09505,24.7339 2.24659,6.03199 5.09403,16.71419 6.32759,23.73822 1.23356,7.02405 3.7751,15.77434 5.6478,19.4451 1.8727,3.67078 4.35079,11.59072 5.50707,17.59987 1.86545,9.69634 6.15162,20.03071 16.91586,40.78721 4.0501,7.8099 4.0898,11.8682 0.1502,15.4332 -4.1778,3.781 -15.83823,3.6841 -19.28987,-0.1602 z m -41.26015,-9.6617 c -5.72237,-2.488 -6.31326,-3.8973 -8.05469,-19.211 -1.09419,-9.6235 -11.60402,-50.76223 -14.21423,-55.63945 -0.85493,-1.59735 -3.08112,-10.85408 -4.94707,-20.57051 -1.86595,-9.71641 -4.54263,-20.86543 -5.94846,-24.77559 -1.40567,-3.91014 -3.39817,-13.40103 -4.42757,-21.09086 -1.02957,-7.68981 -3.36458,-21.95384 -5.18886,-31.69781 -10.9141,-58.29252 -13.58732,-99.95542 -10.10977,-157.56268 2.10317,-34.84086 5.09099,-58.66935 9.48701,-75.66045 1.37461,-5.31297 3.60062,-17.50566 4.94656,-27.09484 1.3461,-9.58917 3.97537,-20.88891 5.84284,-25.11053 1.86747,-4.22163 4.5396,-13.11536 5.93818,-19.76386 1.39858,-6.6485 3.98903,-14.92308 5.75662,-18.38794 1.76776,-3.46487 4.13128,-9.70678 5.25263,-13.8709 4.73853,-17.59777 29.34433,-62.89893 49.00608,-90.22444 27.42339,-38.11218 67.08549,-70.13861 102.30079,-82.60572 6.3333,-2.2422 14.932,-5.33739 19.1079,-6.87818 9.7872,-3.61111 57.0727,-5.30348 78.6997,-2.81667 18.2572,2.09932 42.1084,10.89308 63.3138,23.34338 16.1552,9.48521 48.5049,39.61361 58.417,54.40598 3.4801,5.1933 9.5625,13.80745 13.5167,19.14255 11.9281,16.09419 25.578,39.21995 44.5679,75.50688 6.5561,12.52798 16.1247,30.75048 21.2636,40.49445 5.1388,9.74398 11.5209,21.89233 14.1823,26.99631 2.6613,5.10399 6.5129,11.73918 8.5586,14.74486 2.0458,3.0057 9.0347,13.6476 15.5307,23.64868 14.8166,22.81118 21.5301,31.14784 29.57,36.71963 3.4923,2.42018 8.0917,7.68404 10.2209,11.69747 3.7128,6.99878 3.7529,7.47735 0.9829,11.70495 -2.2894,3.49417 -4.2403,4.40783 -9.4114,4.40783 -3.8237,0 -7.8962,-1.22192 -9.8413,-2.95273 -3.3766,-3.00475 -14.7255,-18.54121 -26.6992,-36.5508 -3.648,-5.48696 -8.7725,-13.07968 -11.3877,-16.8727 -2.6151,-3.79299 -6.608,-10.69272 -8.8732,-15.33271 -2.2651,-4.63999 -7.5149,-14.13088 -11.6661,-21.09086 -4.1512,-6.95999 -9.5189,-16.79683 -11.928,-21.85965 -2.409,-5.06282 -5.7397,-11.13699 -7.4012,-13.49816 -1.6616,-2.36116 -3.5815,-6.19119 -4.2667,-8.51119 -0.6851,-2.32 -3.3609,-7.63489 -5.9462,-11.81088 -2.5852,-4.17599 -5.2332,-9.36616 -5.8843,-11.53371 -0.6511,-2.16755 -3.2946,-7.48245 -5.8743,-11.81089 -14.5367,-24.39179 -21.5951,-36.60744 -25.3613,-43.89238 -2.32,-4.48761 -8.3942,-13.11788 -13.4981,-19.17837 -5.104,-6.06049 -13.8357,-17.28869 -19.4037,-24.95156 -12.2861,-16.90871 -26.9583,-29.61484 -50.0722,-43.36274 -14.3807,-8.55351 -21.0968,-11.33955 -38.5093,-15.97515 -19.4637,-5.18161 -23.0436,-5.61342 -46.3999,-5.59681 -23.7964,0.0169 -26.3678,0.34681 -43.0254,5.51916 -23.4962,7.29587 -39.7472,15.42201 -58.514,29.25956 -24.4691,18.04203 -55.15846,51.11317 -65.99173,71.11301 -2.1263,3.9255 -5.57441,9.79474 -7.66274,13.04273 -2.08816,3.24799 -6.69592,11.97961 -10.23935,19.4036 -3.54344,7.42398 -8.53658,17.67414 -11.09599,22.77813 -2.55944,5.10399 -5.19563,12.27513 -5.85823,15.93587 -0.66258,3.66074 -3.1076,10.41122 -5.4335,15.00106 -2.3259,4.58985 -5.00141,13.3634 -5.9456,19.49679 -0.94437,6.13337 -3.49181,15.39238 -5.66129,20.57557 -2.3664,5.65393 -4.37088,14.76627 -5.01069,22.77813 -0.58667,7.34478 -3.09731,21.3265 -5.5793,31.07048 l -4.51259,17.71633 0.0236,78.45801 0.0236,78.45801 4.53032,21.09085 c 2.49175,11.59999 5.26057,29.06322 6.15279,38.8072 0.99178,10.83029 2.95239,20.79138 5.04409,25.62782 1.88199,4.35133 4.21936,13.64674 5.19443,20.65648 0.97491,7.00974 3.63657,17.33227 5.91472,22.93896 2.27833,5.6067 4.65198,13.77451 5.27508,18.15071 0.62311,4.37621 3.32325,13.01926 6.00029,19.20678 2.67701,6.18753 4.86726,12.11115 4.86726,13.16361 0,1.0524 2.65745,7.0487 5.90544,13.325 3.24799,6.2763 5.90544,12.3457 5.90544,13.4875 0,3.5275 -8.0724,10.3628 -12.1561,10.2931 -2.13018,-0.037 -6.3141,-1.1274 -9.29788,-2.4247 z m 331.06756,-11.3768 c -1.8559,-1.0746 -9.4674,-8.0748 -16.9143,-15.5558 -7.4469,-7.4811 -24.8389,-23.8182 -38.6491,-36.30466 -15.6821,-14.17894 -28.6528,-27.57286 -34.5473,-35.6743 -20.7133,-28.46846 -24.8232,-34.49017 -29.7245,-43.55193 -2.8054,-5.18698 -8.7506,-15.1254 -13.2116,-22.08539 -14.3906,-22.45228 -26.3121,-42.79726 -30.6493,-52.30533 -2.3282,-5.104 -5.1168,-10.79853 -6.197,-12.65453 -5.7772,-9.92703 -12.1861,-24.9106 -19.1247,-44.71262 -2.1134,-6.03199 -5.8082,-15.14324 -8.2103,-20.24723 -2.4021,-5.10399 -4.3748,-11.05088 -4.3839,-13.21535 0,-2.16445 -2.224,-8.99788 -4.9222,-15.18543 -3.3388,-7.65746 -5.2772,-15.56052 -6.0701,-24.74819 -0.6404,-7.42399 -2.609,-19.14586 -4.3743,-26.04864 -4.46,-17.43814 -4.3741,-45.63023 0.1933,-63.48847 1.8717,-7.31839 4.1907,-18.23656 5.1534,-24.26259 0.9626,-6.02605 3.4175,-13.63329 5.4549,-16.90499 2.0377,-3.27171 4.9351,-8.66231 6.4386,-11.97913 1.5038,-3.31684 7.9575,-11.31573 14.3419,-17.77533 10.1916,-10.31179 13.5291,-12.51048 27.3548,-18.02078 19.2335,-7.66561 29.4438,-8.1705 44.7071,-2.2107 5.7262,2.23596 12.3095,4.60035 14.6295,5.25422 7.708,2.17242 14.336,7.24766 29.3901,22.50528 11.196,11.34714 17.6982,19.88439 26.0852,34.24858 16.6316,28.48445 35.8939,68.48123 38.1687,79.25416 0.6601,3.12564 3.3975,9.57179 6.0833,14.32474 2.6858,4.75295 4.8833,9.514 4.8833,10.58013 0,5.01448 33.5405,69.4219 39.6342,76.10884 2.1139,2.31999 7.419,9.53306 11.7891,16.02905 11.0833,16.47586 27.0808,34.41045 37.7115,42.27797 20.753,15.35895 24.0314,17.61134 30.148,20.71234 3.5303,1.78975 10.877,4.65142 16.326,6.35926 5.8431,1.83131 10.8927,4.60928 12.3097,6.77176 3.1634,4.82807 1.3307,11.87827 -3.9948,15.36775 -3.851,2.52319 -4.6951,2.47718 -12.0255,-0.65547 -11.8713,-5.07317 -50.1051,-30.6093 -64.1424,-42.84032 -11.8287,-10.30677 -43.7998,-50.24044 -50.2517,-62.76747 -1.5503,-3.01018 -4.5015,-7.75086 -6.5579,-10.53486 -2.0566,-2.78399 -7.3179,-12.65451 -11.6918,-21.93449 -4.3739,-9.27998 -9.0714,-18.95387 -10.4389,-21.49754 -1.3676,-2.54367 -3.6513,-8.61784 -5.0749,-13.49816 -1.4235,-4.88031 -3.7182,-10.6401 -5.0992,-12.79954 -2.7322,-4.27193 -10.81,-23.13259 -15.6618,-36.56821 -4.8777,-13.5072 -13.3758,-30.49985 -27.6633,-55.31528 -8.7783,-15.24653 -27.8419,-36.38718 -41.0763,-45.5517 -13.33,-9.23067 -46.32,-10.41818 -60.3879,-2.17375 -10.4984,6.15243 -19.7829,17.23291 -27.7431,33.10972 -9.8705,19.68711 -12.8268,42.55559 -10.5663,81.73612 1.5862,27.49083 2.3207,31.03885 13.8006,66.65289 8.1875,25.39974 37.4525,87.29981 50.7669,107.37992 17.9261,27.03496 23.8271,34.82508 36.0129,47.54121 7.3968,7.71878 17.6605,17.21433 22.8084,21.10119 5.1478,3.88687 20.369,16.20832 33.825,27.38099 37.0075,30.72773 70.0041,52.51635 89.1723,58.88302 13.362,4.43814 20.3954,13.41841 17.1646,21.91592 -1.9108,5.02582 -6.5622,7.69532 -13.4084,7.69532 -3.7491,0 -7.6335,-2.1856 -14.2442,-8.01455 -4.9992,-4.40799 -14.6881,-11.60979 -21.5306,-16.004 -26.2329,-16.84629 -41.1436,-28.36212 -71.5806,-55.28312 -37.6435,-33.29488 -38.4656,-33.88137 -42.2258,-30.12111 -4.2977,4.29776 -1.7459,8.85999 14.7669,26.4004 29.6264,31.47018 72.6925,68.05644 94.8278,80.56008 17.4451,9.8541 20.1695,13.8676 13.7628,20.2742 -3.3526,3.3527 -5.791,4.113 -13.0573,4.0712 -4.9141,-0.028 -10.4534,-0.9305 -12.3095,-2.0053 z m -381.39931,-13.8957 c -2.27781,-2.2778 -4.14157,-5.9357 -4.14157,-8.1286 0,-2.193 -1.50066,-9.63036 -3.3348,-16.52759 -2.11641,-7.95862 -3.35123,-18.08859 -3.37975,-27.72583 -0.0412,-13.94861 -0.52546,-16.13952 -5.94514,-26.89958 -5.73437,-11.38481 -5.90024,-12.26685 -5.90024,-31.37478 0,-16.90409 -0.43262,-20.05215 -3.08559,-22.45304 -3.30147,-2.98781 -8.24585,-3.58085 -11.67917,-1.40084 -1.16062,0.73695 -5.21204,9.2036 -9.00315,18.81477 -8.15082,20.66389 -10.59484,24.70999 -16.89332,27.96706 -10.10919,5.22766 -18.39319,1.15891 -18.39319,-9.03393 0,-4.10676 2.38565,-8.01974 10.54543,-17.29673 12.81923,-14.57439 14.33631,-16.61121 21.92447,-29.43546 6.0155,-10.16638 13.54042,-35.49766 15.50122,-52.18203 1.59037,-13.53257 8.42294,-18.40657 13.95894,-9.95757 2.36852,3.6148 3.05433,9.04502 3.46282,27.41812 0.40116,18.04394 1.37674,25.95706 4.59269,37.25238 2.24585,7.88798 4.56034,18.13814 5.14334,22.77813 0.583,4.64 2.86727,14.89016 5.07642,22.77814 2.20897,7.88798 4.86085,20.73105 5.89295,28.54017 1.03227,7.80911 3.62712,18.81853 5.76658,24.4654 7.6904,20.29943 12.75491,37.80741 11.71791,40.50951 -2.71295,7.0698 -15.53755,8.1816 -21.82685,1.8923 z m -44.13786,-35.08752 c -1.90555,-2.08799 -6.23877,-9.08277 -9.62941,-15.54393 -6.12142,-11.66495 -6.40909,-13.85632 -3.2777,-24.96903 1.08881,-3.86405 9.1816,-7.99602 15.66082,-7.99602 3.4896,0 5.92446,1.24805 7.68913,3.94127 2.39084,3.64889 5.95345,24.76333 6.41414,38.01451 0.34229,9.84495 -10.13554,13.91823 -16.85698,6.5532 z m 501.46437,-5.83057 c -4.64,-1.38959 -11.7877,-5.10687 -15.8842,-8.26067 -4.0963,-3.15379 -8.3562,-5.73417 -9.4662,-5.73417 -1.1102,0 -4.9719,-2.03185 -8.5813,-4.51523 -3.6096,-2.48337 -10.7388,-6.62372 -15.8428,-9.20078 -42.0226,-21.21765 -113.421,-86.19867 -139.7098,-127.1522 -4.1763,-6.50629 -9.6246,-14.89198 -12.1072,-18.63482 -2.4827,-3.74286 -5.2999,-9.05776 -6.2608,-11.81089 -0.9609,-2.75314 -4.1296,-8.76088 -7.0417,-13.35055 -2.9121,-4.58967 -5.2978,-9.52494 -5.3019,-10.96725 0,-1.44231 -2.2577,-6.0149 -5.0085,-10.16129 -2.7507,-4.1464 -5.4794,-9.84092 -6.0637,-12.65451 -0.5843,-2.81359 -2.9264,-8.357 -5.2051,-12.31869 -2.2784,-3.96169 -4.9618,-11.93404 -5.9632,-17.71632 -1.0014,-5.7823 -3.6822,-14.22059 -5.9575,-18.75177 -5.4976,-10.94871 -7.8133,-34.35618 -6.8784,-69.52542 l 0.7216,-27.14588 8.2324,-14.6665 c 4.5279,-8.06658 10.5509,-16.39593 13.3847,-18.50966 18.6962,-13.94564 25.9626,-14.88646 44.104,-5.7104 13.631,6.89459 32.2624,25.36577 39.6843,39.34298 12.8922,24.27903 23.501,46.53844 23.4692,49.24345 -0.017,1.18646 2.1482,6.50135 4.8049,11.81089 2.6566,5.30951 5.3777,12.69076 6.0472,16.40275 0.6691,3.71199 3.0414,10.1658 5.2714,14.34178 2.2302,4.17599 5.1501,10.6298 6.489,14.34179 16.033,44.45779 56.866,104.39634 87.511,128.45773 6.698,5.25895 15.7266,12.48098 20.0637,16.04896 10.1349,8.33779 37.6498,22.47375 52.1484,26.79163 12.431,3.70209 15.5852,6.27923 14.7572,12.05709 -1.3528,9.43969 -18.3922,10.93311 -31.0137,2.71817 -4.5897,-2.9873 -12.1413,-7.41001 -16.7812,-9.82826 -19.1291,-9.96963 -25.5897,-14.12611 -41.0984,-26.44104 -44.6635,-35.46572 -75.5645,-77.85741 -101.8188,-139.68067 -4.52,-10.64371 -7.8188,-19.65375 -20.817,-56.85867 -2.1716,-6.21634 -5.5023,-14.18868 -7.4013,-17.71632 -1.8991,-3.52766 -4.8728,-9.451 -6.6088,-13.163 -7.0961,-15.17558 -13.0878,-24.1618 -22.8655,-34.29354 -12.6822,-13.1413 -16.972,-15.48261 -28.3531,-15.47458 -12.8856,0.008 -17.7571,3.6996 -25.8148,19.5562 l -6.749,13.28148 0.064,29.55608 c 0.062,28.60478 0.2593,30.2621 6.1101,51.49058 3.325,12.06398 8.0413,26.65707 10.4808,32.4291 2.4395,5.77201 4.441,11.46654 4.4483,12.65451 0.017,1.85789 7.5553,17.2503 20.9056,42.65438 7.6736,14.60177 23.835,38.24052 38.0128,55.59943 25.9436,31.76485 63.4151,65.79642 92.5172,84.02443 7.0398,4.40929 14.0208,9.12215 15.5135,10.47305 6.7819,6.13748 46.0129,25.5322 56.3397,27.85278 12.3131,2.76694 18.4222,12.9506 11.5174,19.19928 -3.6542,3.30717 -6.7256,3.29259 -18.0051,-0.0854 z m 12.656,-29.60208 c -9.3106,-7.03833 -8.2587,-6.39498 -26.9978,-16.51037 -41.7235,-22.5224 -63.8083,-38.48793 -93.8413,-67.84003 -26.5721,-25.96931 -45.9808,-50.10312 -65.0229,-80.85257 -14.9041,-24.06733 -32.1043,-60.18089 -34.4256,-72.28014 -0.6231,-3.24799 -2.9509,-10.26419 -5.1725,-15.59156 -5.8508,-14.02908 -7.5303,-30.3975 -5.9975,-58.44625 l 1.3261,-24.26339 5.4192,-4.84201 c 12.4607,-11.13364 20.0471,-5.43341 45.2041,33.96518 2.074,3.24799 4.6655,9.30944 5.759,13.46989 1.0935,4.16045 3.715,10.9939 5.8256,15.18543 2.1105,4.19153 4.7118,11.74072 5.7803,16.77598 1.0687,5.03525 3.3836,11.48906 5.1445,14.3418 1.7606,2.85271 4.1125,8.98312 5.2261,13.6231 1.1135,4.64 3.7562,11.62986 5.8725,15.53305 2.1162,3.90319 5.1166,10.91753 6.6678,15.5874 1.5511,4.66987 3.5383,8.93456 4.4163,9.47708 0.8777,0.54252 3.9155,5.58152 6.7505,11.1978 8.5334,16.90447 29.0057,46.85189 42.4491,62.09533 16.2806,18.46073 38.2302,38.16515 50.8005,45.60411 5.4441,3.22168 12.5987,8.30973 15.8993,11.30678 3.3007,2.99705 8.6306,6.31692 11.8442,7.37749 3.2135,1.06057 8.5028,3.73352 11.7541,5.93988 3.2513,2.20637 7.8985,4.01158 10.3272,4.01158 12.4311,0 23.7969,7.29462 23.7969,15.27294 0,8.22013 -3.4562,8.96503 -15.3937,3.31771 -5.9174,-2.79941 -11.6499,-5.09044 -12.7387,-5.09116 -1.0887,-7.3e-4 -4.194,-1.86466 -6.9005,-4.14206 -2.7066,-2.2774 -9.0288,-5.75088 -14.0494,-7.71884 -11.9535,-4.68543 -24.8078,-11.90333 -44.1586,-24.79572 -11.878,-7.91372 -20.8377,-15.97817 -36.348,-32.71597 -11.3212,-12.21735 -24.0393,-27.23223 -28.2624,-33.36639 -4.2231,-6.13415 -10.6232,-15.32901 -14.2224,-20.43299 -11.6212,-16.47959 -35.9577,-66.6912 -43.3425,-89.42526 -1.3566,-4.17599 -4.2998,-12.3186 -6.5405,-18.09467 -2.2409,-5.77607 -5.1667,-15.74235 -6.5022,-22.14726 -2.9651,-14.21986 -9.8432,-28.29922 -14.5556,-29.79493 -4.4427,-1.41006 -11.4075,3.03118 -12.6255,8.05106 -0.5038,2.07626 0.2604,7.95101 1.6983,13.05499 1.4378,5.104 4.1476,15.73379 6.0216,23.62177 4.7962,20.18727 8.8022,31.31629 22.1676,61.58532 7.7967,17.6572 32.9037,59.31209 46.6896,77.4623 4.1656,5.48433 21.2927,23.72349 38.0603,40.53143 25.3995,25.46073 32.8795,31.92976 44.8283,38.76964 7.888,4.51535 16.9992,9.89561 20.2472,11.95616 3.248,2.06053 8.3183,4.68288 11.2671,5.82742 2.949,1.14456 6.6489,3.50348 8.2223,5.24207 1.5735,1.73859 7.133,4.39842 12.3547,5.91075 5.2217,1.51233 10.3453,3.44912 11.386,4.30398 1.0408,0.85485 5.7508,2.70019 10.4671,4.10075 10.0211,2.97596 13.7935,6.20414 13.7935,11.80347 0,5.24423 -4.5012,7.53156 -14.8213,7.53156 -6.7447,0 -9.6493,-1.02444 -15.548,-5.48363 z M 799.93995,887.60094 c -6.47337,-3.23008 -6.5852,-9.12496 -0.39087,-20.60392 3.05325,-5.65812 7.29592,-12.18566 9.42815,-14.50565 2.13224,-2.32 5.2503,-7.25875 6.929,-10.97503 1.67869,-3.71627 4.78203,-9.5352 6.89632,-12.93098 2.11426,-3.39577 4.98026,-9.99989 6.36885,-14.67581 1.3886,-4.67593 4.35489,-10.67671 6.59174,-13.33505 5.14637,-6.11611 6.79584,-12.57174 4.37024,-17.10401 -2.63502,-4.92359 -7.91177,-4.40443 -11.26514,1.10829 -1.55235,2.552 -6.08783,9.69936 -10.07884,15.88303 -3.991,6.18365 -8.47247,14.156 -9.95883,17.71633 -4.40022,10.54002 -14.63186,24.19918 -18.93603,25.27945 -6.44038,1.61644 -10.58695,-3.50792 -10.58695,-13.08345 0,-7.59405 0.68571,-8.85948 11.05819,-20.40754 6.082,-6.77131 12.63798,-15.34856 14.56886,-19.06055 1.93086,-3.71199 5.6863,-9.24313 8.3454,-12.29142 2.6591,-3.04828 4.83473,-6.50616 4.83473,-7.6842 0,-1.17802 2.19434,-5.60195 4.8763,-9.83097 6.66233,-10.50541 17.97695,-39.28943 19.29216,-49.07865 0.59262,-4.41095 2.67586,-11.15294 4.62939,-14.98221 1.95356,-3.82926 4.32282,-11.91405 5.26507,-17.96622 0.94223,-6.05216 3.43406,-15.63448 5.53739,-21.29405 2.10331,-5.65959 4.35609,-15.16388 5.00613,-21.12067 0.65835,-6.03282 3.02215,-14.46207 5.33617,-19.02857 2.29453,-4.52802 4.8193,-13.49423 5.63977,-20.02851 1.07128,-8.53175 2.69591,-13.4174 5.82661,-17.52194 3.35471,-4.39827 4.68852,-8.79664 5.87002,-19.35716 1.2077,-10.7947 2.48967,-14.9253 6.10216,-19.66149 3.45469,-4.52934 4.78392,-8.54808 5.43453,-16.43095 0.6037,-7.31484 2.13018,-12.3202 5.10533,-16.73939 2.33418,-3.46734 4.8806,-9.7117 5.6586,-13.87632 1.50572,-8.05956 21.96386,-51.76715 26.88309,-57.43377 1.61117,-1.856 6.93602,-9.82835 11.83299,-17.71633 16.34881,-26.3342 44.20208,-57.22751 69.49572,-77.08068 14.6902,-11.53047 49.8513,-29.55275 63.0774,-32.33101 4.742,-0.99614 12.7144,-3.54661 17.7163,-5.66774 8.6326,-3.66078 11.15,-3.85511 49.5887,-3.82775 39.695,0.0282 40.7111,0.11575 51.4617,4.43413 6.0319,2.42292 14.3742,4.97103 18.5382,5.66245 7.3613,1.22238 33.5923,13.83426 44.4246,21.35949 15.7682,10.95418 41.4344,36.14817 60.0488,58.94398 12.8707,15.76192 42.462,61.58752 50.6223,78.3945 2.7336,5.63009 6.1157,11.18726 7.5158,12.34927 1.4002,1.16202 3.029,4.3129 3.6195,7.00194 0.5906,2.68905 2.9875,7.70915 5.3266,11.15579 2.3389,3.44665 5.9957,10.20809 8.1262,15.02547 2.1303,4.81736 4.6969,9.26773 5.7034,9.88972 1.0063,0.62198 2.688,4.31875 3.7373,8.21504 1.0491,3.89631 3.5375,9.33917 5.5295,12.09526 3.8236,5.29026 9.7034,16.01009 17.0864,31.15174 4.5648,9.36161 7.868,14.20159 17.1489,25.12685 2.9175,3.43434 7.7615,11.73941 10.7646,18.45571 4.6273,10.34897 5.1195,12.62201 3.2264,14.90296 -2.9033,3.49823 -10.9713,1.98872 -16.3428,-3.05775 -3.6698,-3.44747 -18.9817,-32.81352 -18.9817,-36.40396 0,-0.87644 -1.2557,-2.63557 -2.7905,-3.9092 -1.5348,-1.27362 -5.0195,-6.87131 -7.7439,-12.43929 -7.275,-14.86884 -15.2324,-29.85611 -18.3828,-34.6236 -1.5206,-2.30097 -3.6373,-6.93905 -4.7036,-10.30683 -1.0664,-3.36778 -3.4319,-7.47453 -5.2569,-9.12611 -1.8251,-1.65157 -4.1443,-6.1092 -5.1539,-9.90581 -1.0097,-3.79662 -3.5946,-9.229 -5.7442,-12.07196 -2.1497,-2.84296 -5.1571,-8.15786 -6.6831,-11.81089 -1.5259,-3.65302 -4.5426,-8.54004 -6.7035,-10.86004 -2.1608,-2.31999 -7.1941,-10.29233 -11.1846,-17.71633 -3.9906,-7.42398 -9.0616,-15.77596 -11.2693,-18.55995 -2.2074,-2.784 -9.9466,-13.41379 -17.1983,-23.62177 -43.1141,-60.69141 -92.0396,-93.05081 -149.4181,-98.82521 -32.0321,-3.22363 -74.7448,0.69201 -89.7278,8.22572 -3.5532,1.78667 -9.4977,4.18908 -13.2096,5.3387 -21.6802,6.71444 -61.1214,33.97391 -78.96805,54.57789 -13.59871,15.69992 -29.78907,37.20958 -38.29713,50.8799 -4.176,6.70973 -9.57138,14.78083 -11.98991,17.93575 -2.41853,3.15495 -4.99516,7.63443 -5.72609,9.95442 -0.73092,2.31999 -3.87734,9.02667 -6.99188,14.90373 -3.11469,5.87706 -5.66298,12.03511 -5.66298,13.68453 0,1.64942 -2.01965,5.95216 -4.48796,9.56165 -2.46847,3.6095 -5.47839,11.23448 -6.68884,16.9444 -1.21045,5.70994 -4.12605,13.21879 -6.47928,16.68633 -3.15722,4.6525 -4.29781,8.56424 -4.35248,14.92736 -0.081,9.36838 -3.18235,19.84165 -7.20919,24.34164 -1.58485,1.77094 -3.19234,9.19616 -4.26792,19.71371 -0.94902,9.27998 -3.32002,21.42831 -5.26889,26.99631 -1.94887,5.56798 -4.31523,17.6296 -5.25858,26.8036 -0.94336,9.17398 -3.15939,22.84085 -4.92447,30.37084 -1.7651,7.52996 -4.3995,22.42247 -5.85423,33.09444 -3.57893,26.25533 -7.68138,48.4121 -10.4268,56.31384 -1.24966,3.59667 -2.2721,10.11011 -2.2721,14.47432 0,5.99328 -1.23841,9.80462 -5.06101,15.57569 -3.00034,4.52967 -5.50321,11.00222 -6.147,15.8965 -0.59731,4.54067 -2.77715,11.67249 -4.84409,15.84848 -2.06696,4.17599 -4.32465,9.4909 -5.01713,11.81089 -3.19002,10.68756 -14.87214,38.81619 -16.77754,40.39754 -3.36198,2.79018 -11.57178,3.5513 -15.7607,1.46111 z M 769.8673,784.82346 c -2.30358,-2.54543 -3.21423,-6.06707 -3.21423,-12.43003 0,-7.96174 0.69679,-9.66597 6.74908,-16.50733 6.48886,-7.33484 10.90792,-13.43064 17.27415,-23.82855 1.63519,-2.67073 5.32071,-8.36526 8.19003,-12.65453 2.86932,-4.28923 6.19896,-10.8357 7.39921,-14.5477 1.20025,-3.71199 3.60072,-9.57126 5.33436,-13.0206 1.73363,-3.44933 4.00312,-10.28278 5.04333,-15.18541 1.04019,-4.90265 3.60911,-12.33062 5.7087,-16.50661 2.09958,-4.17599 4.67924,-13.1603 5.73256,-19.9651 1.05331,-6.80483 3.46304,-15.4066 5.35495,-19.11504 1.89193,-3.70847 4.47115,-12.56703 5.73163,-19.68572 1.26047,-7.11869 4.24412,-17.11906 6.63031,-22.22306 2.38619,-5.10398 4.36557,-11.55779 4.39859,-14.34178 0.0331,-2.784 1.96734,-10.37671 4.29849,-16.87269 2.33116,-6.49599 5.63127,-16.74615 7.33359,-22.77814 1.70232,-6.03199 4.66624,-14.7636 6.58653,-19.40359 1.92026,-4.63999 4.59509,-11.85306 5.94402,-16.02906 4.50435,-13.94431 11.27929,-29.31468 24.13382,-54.7528 11.84648,-23.44302 19.33459,-36.02603 39.07833,-65.66778 10.2785,-15.43121 48.71654,-55.03516 61.16893,-63.02441 27.93752,-17.92419 46.68402,-27.70992 57.43532,-29.98151 3.1604,-0.66775 10.8326,-3.42198 17.0493,-6.12052 10.2795,-4.46206 14.1182,-5.08168 42.387,-6.84185 43.9514,-2.73665 82.2006,-0.12975 99.4676,6.77933 6.707,2.68366 14.852,5.44148 18.1,6.12852 3.248,0.68705 8.5331,2.8756 11.7446,4.86349 3.2115,1.98789 8.7736,4.79998 12.3603,6.24906 9.3756,3.78805 42.0578,27.38667 55.5328,40.09824 6.3278,5.96935 15.8298,16.63932 21.1157,23.71103 5.2859,7.07172 13.8208,17.91233 18.9666,24.09025 5.1458,6.17792 11.9634,15.66881 15.1502,21.09087 3.1865,5.42205 7.0821,11.37682 8.6567,13.23281 3.3659,3.96758 18.4509,28.79785 18.4509,30.3706 0,0.59372 2.1533,4.25339 4.7851,8.13257 2.6318,3.87921 5.927,9.33091 7.3228,12.1149 1.3957,2.78399 4.8602,8.85816 7.6987,13.49815 2.8386,4.63999 8.4648,13.84487 12.5026,20.45531 4.038,6.61041 11.2398,17.69307 16.0039,24.62808 4.7642,6.93503 9.2148,14.43412 9.8905,16.66463 0.6754,2.23051 3.4211,7.94426 6.1013,12.69721 7.8216,13.87047 6.0011,24.26001 -4.2512,24.26001 -7.4065,0 -18.7743,-11.80978 -20.5621,-21.36121 -0.6669,-3.5633 -4.6612,-12.93253 -8.8762,-20.82051 -4.2152,-7.88799 -10.0661,-18.89742 -13.0023,-24.46541 -5.1796,-9.82215 -20.9618,-38.00818 -33.2859,-59.44711 -3.3251,-5.78397 -7.9983,-13.07672 -10.3854,-16.2061 -2.3867,-3.12937 -6.4215,-9.42319 -8.9661,-13.98623 -7.6356,-13.69264 -38.7683,-54.45441 -52.4589,-68.68373 -26.8696,-27.92696 -62.3222,-49.9539 -93.0545,-57.81513 -5.1041,-1.30559 -15.3542,-4.07973 -22.7782,-6.16477 -11.9812,-3.36493 -17.2907,-3.7849 -47.2435,-3.73695 -29.8996,0.0479 -35.3798,0.49864 -48.0872,3.9553 -48.0541,13.07171 -71.6028,24.08636 -96.3487,45.06597 -12.84978,10.89407 -41.03104,40.70862 -46.1136,48.78631 -1.7519,2.78399 -7.12957,10.37671 -11.95061,16.87269 -9.67429,13.03566 -24.73435,40.28223 -35.90897,64.9667 -3.9892,8.8122 -9.49375,20.57784 -12.23236,26.14582 -2.73861,5.56799 -5.44812,13.54034 -6.02127,17.71633 -0.57315,4.17599 -2.84946,10.76221 -5.05849,14.63604 -2.209,3.87384 -5.17304,12.54193 -6.58674,19.26243 -1.41371,6.72047 -4.05839,14.62673 -5.87708,17.56943 -1.81868,2.94269 -4.00704,10.29561 -4.86299,16.33981 -0.85597,6.0442 -3.2066,14.22431 -5.22363,18.17802 -2.01704,3.95368 -4.77734,12.51221 -6.13402,19.01892 -1.3567,6.50671 -4.24133,16.10314 -6.41031,21.32545 -2.16898,5.22228 -4.4814,13.29141 -5.13871,17.9314 -0.65729,4.63999 -3.00066,12.99197 -5.20744,18.55996 -2.20679,5.56799 -4.89455,14.2996 -5.97279,19.4036 -1.07825,5.10398 -3.66054,12.69669 -5.73842,16.87268 -2.07789,4.17599 -4.76195,10.62979 -5.9646,14.34178 -1.91169,5.90049 -6.63819,15.58542 -18.52724,37.96356 -1.72558,3.24799 -5.65708,11.11499 -8.73663,17.48224 -7.86619,16.26393 -15.52458,20.56531 -22.6322,12.71146 z m -2.31601,-63.02967 c -1.5463,-1.86317 -1.66506,-7.20165 -0.48639,-21.86188 1.38739,-17.25617 2.09479,-20.16921 6.4101,-26.39617 3.55746,-5.13344 5.14864,-9.87889 5.96853,-17.80031 0.7731,-7.46934 2.48586,-12.86796 5.55281,-17.50241 2.47277,-3.73663 4.45266,-9.14363 4.47512,-12.22134 0.0675,-9.24936 2.70851,-17.70968 8.04212,-25.76193 3.23007,-4.87655 5.78656,-11.71628 7.01425,-18.76628 1.0625,-6.1012 4.0919,-15.00569 6.73204,-19.78772 3.16383,-5.73065 5.18955,-12.43337 5.94223,-19.66188 0.6281,-6.03199 2.97059,-15.14324 5.20551,-20.24723 2.23492,-5.10399 5.19029,-14.83616 6.56749,-21.62707 1.37718,-6.79088 3.98889,-14.76323 5.80376,-17.71632 1.8149,-2.95307 3.8348,-8.40632 4.48868,-12.11831 0.65389,-3.71199 2.9301,-10.1658 5.05826,-14.3418 2.12816,-4.17599 7.81745,-15.56505 12.64288,-25.30903 4.82542,-9.74398 9.7395,-18.85523 10.92013,-20.24722 1.18063,-1.39201 4.1292,-6.32727 6.55236,-10.96726 7.24246,-13.86822 24.21791,-39.51378 32.83665,-49.60759 4.4365,-5.19574 11.55391,-14.00245 15.81679,-19.57044 11.16922,-14.58914 29.71181,-31.11273 63.46445,-56.55418 16.96304,-12.78604 46.45974,-28.73362 57.67064,-31.18002 3.2365,-0.70626 9.7789,-3.3576 14.5385,-5.89188 6.3224,-3.36632 12.3098,-4.92669 22.2228,-5.7914 7.4627,-0.65098 20.6519,-2.64524 29.3094,-4.43168 20.3821,-4.20575 45.0923,-4.23157 67.5389,-0.0705 9.5591,1.772 21.9357,3.69502 27.5037,4.27336 5.568,0.57832 13.5404,2.82737 17.7163,4.99789 4.176,2.1705 10.2502,4.52332 13.4982,5.22846 9.7656,2.12012 44.7445,20.70274 53.5682,28.45812 2.0865,1.83395 9.7874,7.569 17.113,12.74459 35.556,25.12072 66.5649,55.2592 84.0199,81.6615 4.4041,6.66163 12.3987,17.66651 17.7658,24.4553 5.367,6.78878 9.7581,13.05059 9.7581,13.91511 0,0.86453 2.515,4.42132 5.5891,7.90399 4.9951,5.65947 9.5994,12.43845 22.8362,33.6228 2.1779,3.48554 6.6298,13.84527 9.893,23.02163 4.8844,13.73498 5.6075,17.39902 4.0909,20.72772 -4.2209,9.26392 -21.3099,0.94711 -25.6674,-12.49176 -2.8804,-8.88294 -13.329,-29.38843 -24.2471,-47.58541 -5.1521,-8.58672 -9.3674,-15.9509 -9.3674,-16.36489 0,-1.69356 -24.882,-37.61082 -33.6616,-48.59058 -5.1943,-6.49598 -11.4231,-14.46833 -13.8416,-17.71632 -8.4698,-11.37446 -32.7033,-36.04508 -40.4685,-41.19842 -4.3106,-2.86082 -12.4394,-8.77427 -18.0641,-13.14104 -5.6244,-4.36675 -13.2549,-9.4847 -16.9568,-11.37321 -3.7017,-1.88851 -9.5382,-5.33897 -12.9698,-7.66769 -3.4314,-2.3287 -7.4754,-4.23402 -8.9865,-4.23402 -1.5112,0 -5.5653,-1.91485 -9.0095,-4.2552 -3.4442,-2.34036 -9.8843,-4.95085 -14.3116,-5.80106 -4.4272,-0.85019 -13.3645,-3.55655 -19.8605,-6.01413 -15.8765,-6.00645 -45.3027,-8.23975 -89.3304,-6.77977 -27.797,0.92177 -35.2813,1.71543 -43.0253,4.56252 -5.1562,1.89563 -14.6898,4.7767 -21.1857,6.40237 -6.496,1.62565 -17.8851,6.01581 -25.3091,9.75593 -7.424,3.7401 -17.6742,8.91928 -22.7781,11.50929 -5.1039,2.58999 -14.59487,8.95834 -21.09085,14.15187 -6.49599,5.19353 -16.07259,12.6653 -21.28119,16.60391 -10.36725,7.83927 -24.98712,22.69003 -32.74315,33.26048 -2.72376,3.71199 -9.27357,12.11823 -14.55523,18.68055 -8.39062,10.42532 -18.38853,26.03307 -39.37204,61.46472 -8.52757,14.39915 -25.52083,50.50475 -28.5139,60.58352 -1.4825,4.99211 -4.52563,13.71353 -6.7625,19.38095 -2.23689,5.66744 -4.6168,13.68902 -5.28868,17.82573 -0.6719,4.13673 -2.94285,12.10907 -5.04656,17.71632 -2.1037,5.60727 -5.13478,16.64883 -6.73573,24.53681 -1.60096,7.88799 -4.37706,18.0654 -6.16912,22.61651 -1.79207,4.55109 -4.37445,13.58065 -5.73863,20.06572 -1.36417,6.48506 -3.95958,15.13514 -5.76759,19.22244 -1.80799,4.08729 -4.14036,12.13585 -5.183,17.88571 -1.04263,5.74984 -3.06308,13.11717 -4.48989,16.37183 -1.42679,3.25467 -4.35727,11.6121 -6.51215,18.57208 -2.1549,6.95999 -5.4315,17.21015 -7.28138,22.77813 -1.84985,5.56799 -3.8071,12.23093 -4.34946,14.80653 -1.99101,9.4552 -12.76147,14.85371 -17.71836,8.88101 z m 7.03195,-144.66473 c -2.95122,-2.95122 -2.47561,-12.59128 0.87336,-17.70247 2.17733,-3.32303 2.96005,-8.47554 3.1472,-20.71764 0.24718,-16.16819 1.58353,-21.17384 7.44565,-27.88956 1.96559,-2.25182 3.27218,-7.51607 3.92721,-15.82278 0.75118,-9.52606 1.98936,-13.90243 5.27452,-18.64293 2.36112,-3.40707 5.10954,-10.71296 6.10764,-16.23533 0.99812,-5.52236 3.64275,-12.71696 5.877,-15.98802 2.23427,-3.27103 4.49407,-8.58593 5.02184,-11.81087 0.52774,-3.22494 3.514,-11.17841 6.63613,-17.6744 3.12214,-6.49599 6.94342,-14.46833 8.49173,-17.71633 6.55456,-13.74984 16.31804,-30.04551 25.273,-42.18172 2.39659,-3.24799 7.68415,-10.46107 11.7501,-16.02905 11.11847,-15.22579 57.02015,-58.24567 83.10415,-77.88659 8.17483,-6.15568 18.15705,-14.08187 22.18237,-17.61376 4.02532,-3.53187 10.85876,-8.08926 15.18542,-10.12752 4.32666,-2.03828 10.14437,-5.36364 12.92837,-7.38967 5.67677,-4.13123 34.64057,-17.74582 37.75257,-17.74582 1.1056,0 5.8665,-1.95406 10.5797,-4.34235 4.713,-2.38832 13.2295,-5.06983 18.9256,-5.95895 5.696,-0.88913 17.1899,-3.68051 25.5419,-6.20308 14.7396,-4.4518 16.3496,-4.58257 54.8362,-4.45345 35.5147,0.11912 40.9709,0.5169 52.3054,3.8131 6.9599,2.02407 19.0778,4.87935 26.9283,6.34508 7.8505,1.46573 17.8855,4.49527 22.3001,6.7323 4.4146,2.23705 9.0559,4.06735 10.3143,4.06735 2.8861,0 28.5859,12.89944 44.5242,22.34785 15.2623,9.04779 37.1781,24.58786 50.3182,35.67981 22.1766,18.71974 75.426,71.32626 78.7484,77.7975 1.9058,3.71199 4.8721,8.28923 6.5922,10.17164 1.7197,1.88242 4.2753,6.67728 5.6788,10.65521 1.4034,3.97794 4.0865,9.18381 5.9624,11.56857 4.3336,5.50914 4.3471,11.38086 0.036,15.69174 -4.3741,4.37428 -8.3077,4.26189 -15.2798,-0.43659 -3.8067,-2.56526 -6.784,-6.72039 -9.1078,-12.71042 -5.5196,-14.22862 -31.2698,-47.22168 -55.6203,-71.2651 -26.2395,-25.90869 -52.5211,-46.22938 -83.6571,-64.68297 -4.176,-2.475 -8.7317,-5.20057 -10.1236,-6.05677 -8.1693,-5.02496 -27.1278,-13.26157 -32.9018,-14.29431 -3.7119,-0.66394 -10.925,-3.16444 -16.029,-5.55665 -6.1188,-2.86784 -14.1655,-4.83784 -23.6218,-5.78309 -7.888,-0.78851 -20.2093,-2.62032 -27.3805,-4.07074 -16.9694,-3.43204 -47.8393,-3.49296 -62.0448,-0.12248 -6.0319,1.43122 -16.2821,3.09447 -22.7781,3.6961 -18.4474,1.70857 -59.9574,16.55585 -84.8984,30.36643 -20.23815,11.20633 -69.7315,49.78407 -88.56717,69.0337 -7.29119,7.45163 -19.07846,21.43753 -26.19367,31.07975 -7.1151,9.64222 -14.93111,19.89238 -17.36883,22.77813 -8.48329,10.04244 -37.23111,62.82703 -42.77519,78.54063 -1.42138,4.02865 -3.99695,9.68592 -5.72347,12.57177 -1.72653,2.88581 -4.03707,8.95552 -5.13454,13.48822 -1.09748,4.53271 -3.41699,11.0278 -5.15445,14.43355 -1.73749,3.40573 -4.02964,11.0862 -5.0937,17.06773 -1.06406,5.98154 -3.8583,15.05151 -6.20939,20.15549 -2.65201,5.75722 -4.56116,13.44325 -5.02928,20.24723 -1.35003,19.62311 -2.11019,21.89719 -10.21651,30.56351 -8.03126,8.58608 -10.27314,9.60665 -13.66084,6.21895 z M 1415.3629,302.01985 c -3.0833,-2.08799 -11.3577,-10.4976 -18.3877,-18.68802 -10.744,-12.51755 -53.4245,-50.27018 -65.087,-57.57204 -24.3232,-15.22872 -62.7902,-35.01102 -72.5526,-37.31136 -2.784,-0.656 -9.5994,-3.07124 -15.1455,-5.36719 -5.546,-2.29595 -16.9625,-5.20786 -25.3704,-6.4709 -8.4077,-1.26303 -18.6757,-3.59049 -22.818,-5.17209 -6.0461,-2.30855 -15.0804,-3.01567 -45.8117,-3.58572 -36.6113,-0.6791 -39.039,-0.52269 -55.6799,3.58746 -9.5698,2.36365 -21.5755,4.79119 -26.6796,5.39452 -5.1039,0.60334 -14.3424,3.29654 -20.53,5.98491 -6.1875,2.68838 -12.667,4.88796 -14.3989,4.88796 -5.4321,0 -51.21099,24.26677 -69.70632,36.95034 -20.20675,13.85715 -47.88809,38.0462 -68.22997,59.6222 -7.66771,8.13296 -15.13408,14.78721 -16.59185,14.78721 -5.13828,0 -8.37459,-5.23383 -7.4587,-12.06231 0.69448,-5.1777 3.86301,-9.65747 16.6325,-23.51545 33.62842,-36.49487 53.9428,-55.03527 63.5508,-58.00101 2.14907,-0.66333 6.32507,-3.31068 9.27999,-5.88298 2.95507,-2.57229 12.2062,-8.29107 20.55818,-12.70837 8.35199,-4.4173 17.16092,-9.43033 19.57537,-11.14007 2.4145,-1.70973 8.0164,-3.92134 12.449,-4.91467 4.4324,-0.99334 11.223,-3.66032 15.09,-5.9266 3.904,-2.28785 11.8943,-4.80921 17.9651,-5.66895 6.0136,-0.85163 13.9515,-2.93031 17.6399,-4.6193 5.8576,-2.68247 12.6816,-3.14819 53.9494,-3.68198 56.7711,-0.7343 87.6078,1.42014 104.6832,7.31379 6.6146,2.28305 16.3492,4.95006 21.6323,5.92672 5.2834,0.97666 14.3297,4.01049 20.1031,6.74182 5.7737,2.73134 11.3676,4.96667 12.4313,4.96739 2.2956,0.002 20.1905,8.2443 50.3715,23.2017 25.5697,12.67216 28.3526,14.91649 72.24,58.25989 30.366,29.98946 33.2142,33.30017 33.2142,38.60623 0,10.34987 -6.9199,12.82737 -16.9177,6.05687 z m -84.3184,-120.26753 c -5.1039,-2.33431 -11.5578,-5.49545 -14.3418,-7.02476 -19.3079,-10.60622 -35.113,-17.87166 -43.742,-20.10762 -5.5264,-1.43207 -13.0785,-4.14967 -16.782,-6.0391 -3.7035,-1.88944 -12.859,-4.50466 -20.3453,-5.81158 -7.4862,-1.30694 -17.7888,-4.06867 -22.8945,-6.13719 -8.9826,-3.63911 -11.1795,-3.76094 -67.8296,-3.76094 -39.9093,0 -59.131,-0.58391 -60.3826,-1.83432 -2.6625,-2.65991 0.5551,-10.01598 5.9182,-13.53 3.1212,-2.04509 10.1507,-3.27516 24.1188,-4.22061 10.8428,-0.73387 24.2696,-2.49997 29.8376,-3.92466 14.7703,-3.77933 39.6104,-3.39742 55.8319,0.85841 7.3403,1.92582 18.4502,4.18018 24.6885,5.00967 6.2381,0.8295 14.9697,3.32629 19.4035,5.54842 4.4336,2.22214 10.8863,4.55363 14.3389,5.1811 3.4527,0.62745 8.4622,2.97899 11.1322,5.22561 2.6699,2.24666 8.0908,4.81198 12.0464,5.70073 3.9554,0.88876 9.2675,3.60452 11.8044,6.03501 2.5369,2.43051 7.3836,4.86876 10.7702,5.41836 3.3869,0.54959 8.1043,2.9458 10.4833,5.32491 4.1065,4.10639 13.5492,11.09812 25.6457,18.98895 3.6711,2.39473 5.4836,4.91629 5.4836,7.62862 0,2.22833 -0.3175,4.05151 -0.7055,4.05151 -0.3882,0 -1.7169,0.37434 -2.9528,0.83185 -1.2359,0.45751 -6.4231,-1.07804 -11.5271,-3.41237 z"
         id="path3866"
         inkscape:connector-curvature="0" />
    </g>
  </g>
</svg>
